<?xml version="1.0" encoding="UTF-8"?>
<svg width="13px" height="13px" viewBox="0 0 13 13" version="1.1" xmlns="http://www.w3.org/2000/svg" xmlns:xlink="http://www.w3.org/1999/xlink">
    <title>编组备份</title>
    <defs>
        <linearGradient x1="50%" y1="1.8713049%" x2="50%" y2="100%" id="linearGradient-1">
            <stop stop-color="#FFB97E" offset="0%"></stop>
            <stop stop-color="#FF9347" offset="100%"></stop>
        </linearGradient>
    </defs>
    <g id="#20655_231225" stroke="none" stroke-width="1" fill="none" fill-rule="evenodd">
        <g id="1.月度季度经济大全" transform="translate(-1001.000000, -74.000000)" fill="url(#linearGradient-1)" fill-rule="nonzero">
            <g id="编组-12备份" transform="translate(0.000000, 62.000000)">
                <g id="编组-7" transform="translate(858.000000, 8.000000)">
                    <g id="编组-18" transform="translate(143.000000, 0.000000)">
                        <g id="编组备份" transform="translate(0.000000, 4.000000)">
                            <path d="M1.20104338,3.85369552 C2.08971525,2.84809313 2.80132093,1.72890111 2.71445826,0.497789885 C2.70610609,0.372507196 2.70777652,0.247224507 2.69942434,0.123612253 C2.69441303,0.0634765625 2.7395148,0.011693051 2.80132093,0.00668174342 C2.83807052,0.00501130757 2.87314967,0.00167043586 2.90822882,0.00167043586 C5.58426706,0.00167043586 7.75416324,2.0730109 7.75416324,4.62710732 C7.75416324,4.81920744 7.74079975,5.00629626 7.71574322,5.19171464 C7.70237973,5.29361123 7.82265111,5.35374692 7.89615029,5.28191817 C8.66789165,4.53690378 9.17737459,3.54633532 9.27927118,2.43883635 C9.28595292,2.3619963 9.37114515,2.31689453 9.44130345,2.35698499 C11.2186472,3.4010074 12.4063271,5.26855469 12.4063271,7.40671258 C12.4063271,9.85056024 10.8544922,11.9486277 8.63949424,12.8523335 C8.23858964,13.0160362 7.79258326,13.0394223 7.3749743,12.9191509 C6.41781456,12.6451994 5.51243832,12.1390574 4.75406044,11.4023951 C4.47008635,11.1251028 4.22286184,10.8260948 4.00403475,10.5137233 C3.95392167,10.4402241 3.84200247,10.4569285 3.81527549,10.5387798 C3.58976665,11.1919202 3.48285876,11.8734581 3.49288137,12.5566663 C3.49455181,12.6368472 3.41103002,12.6903012 3.33753084,12.655222 C1.35806435,11.6646536 0.00167043586,9.6901984 0.00167043586,7.40671258 C0.00167043586,6.13384046 0.404245477,4.90941098 1.12086246,3.94389905" id="路径"></path>
                        </g>
                    </g>
                </g>
            </g>
        </g>
    </g>
</svg>