<?xml version="1.0" encoding="UTF-8"?>
<svg width="12px" height="12px" viewBox="0 0 12 12" version="1.1" xmlns="http://www.w3.org/2000/svg" xmlns:xlink="http://www.w3.org/1999/xlink">
    <title>编组 16</title>
    <g id="#14935_231026" stroke="none" stroke-width="1" fill="none" fill-rule="evenodd">
        <g id="1-1.无地区比较默认页面" transform="translate(-271.000000, -104.000000)" fill="#0171F6" fill-rule="nonzero">
            <g id="编组-5" transform="translate(24.000000, 96.000000)">
                <g id="编组-12备份" transform="translate(244.000000, 0.000000)">
                    <g id="编组-16" transform="translate(3.000000, 8.000000)">
                        <path d="M6,0 C2.68627148,0 0,2.68629583 0,6 C0,9.31370417 2.6862989,12 6,12 C9.3137011,12 12,9.31370417 12,6 C12,2.68629583 9.3137148,0 6,0 Z M6.00000685,11.1382115 C3.16224358,11.1382115 0.861803164,8.83774632 0.861803164,6.00000001 C0.861803164,3.16223999 3.16222988,0.861802193 6.00000685,0.861802193 C8.8377427,0.861802193 11.1382105,3.16223999 11.1382105,6.00000001 C11.1382105,8.83774632 8.83774271,11.1382115 6.00000685,11.1382115 Z" id="形状"></path>
                        <path d="M6.36468285,2.57162124 L6.36463298,5.62662124 L9.41982167,5.6267679 L9.41982167,6.35866329 L6.36463298,6.35862124 L6.36468285,9.41380993 L5.63278746,9.41380993 L5.63263298,6.35862124 L2.57763298,6.35866329 L2.57763298,5.6267679 L5.63263298,5.62662124 L5.63278746,2.57162124 L6.36468285,2.57162124 Z" id="形状结合"></path>
                    </g>
                </g>
            </g>
        </g>
    </g>
</svg>