<?xml version="1.0" encoding="UTF-8"?>
<svg width="12px" height="14px" viewBox="0 0 12 14" version="1.1" xmlns="http://www.w3.org/2000/svg" xmlns:xlink="http://www.w3.org/1999/xlink">
    <title>编组 32</title>
    <g id="#14935_231026" stroke="none" stroke-width="1" fill="none" fill-rule="evenodd">
        <g id="1-2.对比详情页" transform="translate(-837.000000, -72.000000)" fill-rule="nonzero">
            <g id="编组-9" transform="translate(24.000000, 68.000000)">
                <g id="编组-3" transform="translate(813.000000, 2.000000)">
                    <g id="编组-32" transform="translate(0.000000, 3.000000)">
                        <rect id="矩形" fill="#FFFFFF" opacity="0" x="0" y="0" width="12" height="12"></rect>
                        <path d="M6,0 C6.34749082,0 6.62918778,0.277550416 6.62918778,0.619926205 L6.62918778,0.619926205 L6.62918778,11.3800738 C6.62918778,11.7224496 6.34749082,12 6,12 C5.65250918,12 5.37081222,11.7224496 5.37081222,11.3800738 L5.37081222,11.3800738 L5.37081222,0.619926205 C5.37081222,0.277550416 5.65250918,0 6,0 Z M10.4079098,1.22391145 C10.6425069,1.25579337 10.9130577,1.33195572 11.1386664,1.55335795 C11.3633764,1.77476017 11.4406766,2.04132842 11.472136,2.27335794 C11.5,2.47704797 11.5,2.72501846 11.5,2.97830258 L11.5,9.02258302 C11.5,9.27586715 11.5,9.52295203 11.4730348,9.72752767 C11.4406766,9.9595572 11.3633764,10.2261254 11.1386664,10.4475277 C10.9139565,10.6689299 10.6425069,10.7459779 10.4079098,10.7769742 C10.2521858,10.7969004 10.0721932,10.8018819 9.88347897,10.8031273 L7.99362642,10.8035424 C7.65967735,10.7859359 7.39805825,10.5140059 7.39805825,10.1845018 C7.39805825,9.85499774 7.65967735,9.58306776 7.99362642,9.56546125 L9.6582775,9.56546125 C9.95129922,9.56546125 10.1148881,9.56546125 10.2281419,9.5512915 C10.2393774,9.45830257 10.2424983,9.3308733 10.2432265,9.12390324 L10.2434221,3.01195573 C10.2434221,2.72236163 10.2416245,2.56118083 10.2281419,2.44959409 L9.94339579,2.43524317 L9.94339579,2.43524317 L7.99362642,2.43542437 C7.65562893,2.42283051 7.38821554,2.14920121 7.38821554,1.81594097 C7.38821554,1.48268073 7.65562893,1.20905142 7.99362642,1.19645757 L9.6924334,1.19645757 C9.94860271,1.19645757 10.2002778,1.19645757 10.4079098,1.22391145 Z M4.00637358,1.19645757 C4.23667023,1.18787667 4.45330007,1.3040369 4.57103619,1.49923827 C4.6887723,1.69443964 4.6887723,1.9374423 4.57103619,2.13264367 C4.45330007,2.32784504 4.23667023,2.44400526 4.00637358,2.43542437 L4.00637358,2.43542437 L2.20563151,2.43555146 C1.99556934,2.43606395 1.86623631,2.43852398 1.77185814,2.44959409 C1.75837554,2.56118081 1.75657787,2.72236163 1.75657787,3.01107011 L1.75682463,9.27030571 L1.75682463,9.27030571 L1.77185814,9.5512915 C1.88511194,9.56546125 2.04870078,9.56546125 2.3417225,9.56546125 L4.00637358,9.56546125 C4.23885875,9.55320413 4.45921054,9.66843868 4.57919365,9.86502161 C4.69917676,10.0616045 4.69917676,10.3073991 4.57919365,10.5039821 C4.45921054,10.700565 4.23885875,10.8157995 4.00637358,10.8035424 L4.00637358,10.8035424 L2.11690023,10.8031273 C1.92831243,10.8018819 1.74781419,10.7969004 1.59209021,10.7769742 C1.35749305,10.7459779 1.08604348,10.6689299 0.861333551,10.4475277 C0.636623624,10.2261254 0.559323419,9.9595572 0.52696519,9.72752767 C0.5,9.52295203 0.5,9.27586715 0.5,9.02258302 L0.500435376,2.78994465 C0.501741502,2.60380075 0.506966009,2.42612547 0.527864037,2.27335794 C0.559323419,2.04132842 0.636623624,1.77476017 0.861333551,1.55335795 C1.0869423,1.33107013 1.35749305,1.25490775 1.59209021,1.22391145 C1.79972218,1.19645757 2.05139729,1.19645757 2.3075666,1.19645757 Z" id="形状结合" stroke="#FFFFFF" stroke-width="0.2" fill="#0171F6"></path>
                    </g>
                </g>
            </g>
        </g>
    </g>
</svg>