<?xml version="1.0" encoding="UTF-8"?>
<svg width="12px" height="12px" viewBox="0 0 12 12" version="1.1" xmlns="http://www.w3.org/2000/svg" xmlns:xlink="http://www.w3.org/1999/xlink">
    <title>问号</title>
    <g id="#14935_231026" stroke="none" stroke-width="1" fill="none" fill-rule="evenodd">
        <g id="1-1.无地区比较默认页面" transform="translate(-1102.000000, -73.000000)" fill="#0171F6" fill-rule="nonzero">
            <g id="编组-9" transform="translate(24.000000, 68.000000)">
                <g id="编组-27" transform="translate(1078.000000, 2.000000)">
                    <g id="问号" transform="translate(0.000000, 3.000000)">
                        <path d="M6,0 C2.68627148,0 0,2.68629583 0,6 C0,9.31370417 2.6862989,12 6,12 C9.3137011,12 12,9.31370417 12,6 C12,2.68629583 9.3137148,0 6,0 Z M6.00000685,11.1382115 C3.16224358,11.1382115 0.861803164,8.83774632 0.861803164,6.00000001 C0.861803164,3.16223999 3.16222988,0.861802193 6.00000685,0.861802193 C8.8377427,0.861802193 11.1382105,3.16223999 11.1382105,6.00000001 C11.1382105,8.83774632 8.83774271,11.1382115 6.00000685,11.1382115 Z M5.87441263,2.77268034 C4.99127723,2.80164882 4.06472333,3.23595676 3.76071154,4.58234016 C4.48456807,4.68369559 4.83203949,4.72712775 4.83203949,4.72712775 C4.83203949,4.72712775 5.02025947,3.56892298 6.17843814,3.69923318 C7.33663052,3.82954338 7.07605094,4.69818668 6.96020428,4.87191533 C6.84439876,5.1614768 5.7730708,5.85639144 5.59932824,6.276222 C5.42559938,6.69606625 5.44007678,7.47785893 5.44007678,7.47785893 L6.48246363,7.47785893 C6.48246363,7.47785893 6.4245403,6.65263409 7.0036502,6.30517678 C7.58274639,5.95771946 8.56720991,4.94428857 8.13290148,3.97430356 C7.43797234,2.85954466 6.75753431,2.74372555 5.87441263,2.77268034 Z M5.42561307,7.8687347 L6.51141843,7.8687347 L6.51141843,9.05572973 L5.42561307,9.05572973 L5.42561307,7.8687347 L5.42561307,7.8687347 Z" id="形状"></path>
                    </g>
                </g>
            </g>
        </g>
    </g>
</svg>