<?xml version="1.0" encoding="UTF-8"?>
<svg width="16px" height="14px" viewBox="0 0 16 14" version="1.1" xmlns="http://www.w3.org/2000/svg" xmlns:xlink="http://www.w3.org/1999/xlink">
    <title>编组 45</title>
    <g id="页面-1" stroke="none" stroke-width="1" fill="none" fill-rule="evenodd">
        <g id="01舆情动态_区域动态" transform="translate(-1165.000000, -148.000000)">
            <g id="债券公告" transform="translate(214.000000, 102.000000)">
                <g id="筛选" transform="translate(20.000000, 43.000000)">
                    <g id="编组-45" transform="translate(932.000000, 3.000000)">
                        <rect id="矩形" fill="#D8D8D8" opacity="0" x="0" y="0" width="14" height="14"></rect>
                        <path d="M8.1875,6.1875 L8.1875,4.3125 C8.1875,4.13991102 8.32741101,4 8.5,4 C8.67258899,4 8.8125,4.13991102 8.8125,4.3125 L8.8125,6.1875 L10.6875,6.1875 C10.860089,6.1875 11,6.32741101 11,6.5 C11,6.67258899 10.860089,6.8125 10.6875,6.8125 L8.8125,6.8125 L8.8125,8.6875 C8.8125,8.86008898 8.67258899,9 8.5,9 C8.32741101,9 8.1875,8.86008898 8.1875,8.6875 L8.1875,6.8125 L6.3125,6.8125 C6.13991102,6.8125 6,6.67258899 6,6.5 C6,6.32741101 6.13991102,6.1875 6.3125,6.1875 L8.1875,6.1875 L8.1875,6.1875 Z M10.3888889,7.88674576 C10.3888889,7.7224004 10.5256908,7.58917216 10.6944444,7.58917216 C10.8631981,7.58917216 11,7.7224004 11,7.88674576 L11,12.1054466 C11,12.4325159 10.8161497,12.733346 10.5210743,12.8895333 C10.225999,13.0457205 9.86684521,13.0322561 9.58497222,12.8544394 L5.67355555,10.3860664 C5.57250846,10.3223496 5.44246376,10.3223496 5.34141667,10.3860664 L1.41411112,12.8571175 C1.13218251,13.0345055 0.773247357,13.0476473 0.478438171,12.8913757 C0.183628986,12.7351041 0,12.4344116 0,12.1075297 L0,3.08301519 C0,2.53056521 0.225346569,2.00074215 0.626466045,1.61010102 C1.02758552,1.2194599 1.57162028,1 2.13888888,1 L8.86111112,1 C9.42837972,1 9.97241448,1.2194599 10.373534,1.61010102 C10.7746534,2.00074215 11,2.53056521 11,3.08301519 L11,3.69601679 C11,3.86036215 10.8631981,3.99359038 10.6944444,3.99359038 C10.5256908,3.99359038 10.3888889,3.86036215 10.3888889,3.69601679 L10.3888889,3.08301519 C10.3888889,2.26128839 9.70487948,1.59514721 8.86111112,1.5951472 L2.13888888,1.5951472 C1.29512052,1.59514721 0.611111116,2.26128839 0.611111116,3.08301519 L0.611111116,12.1075297 C0.61108119,12.2165407 0.672258966,12.3168423 0.770570121,12.3689642 C0.868881276,12.4210861 0.988587744,12.4166845 1.08258333,12.3574915 L5.00988888,9.88614274 C5.31313886,9.69539231 5.70311103,9.69574181 6.006,9.88703546 L9.91711112,12.3554084 C10.0111187,12.4147639 10.1309428,12.4192553 10.229357,12.3671126 C10.3277712,12.3149698 10.3889914,12.2145558 10.3888889,12.1054466 L10.3888889,7.88704333 L10.3888889,7.88674576 Z" id="形状" stroke="#0171F6" stroke-width="0.3" fill="#0171F6" fill-rule="nonzero"></path>
                    </g>
                </g>
            </g>
        </g>
    </g>
</svg>