<?xml version="1.0" encoding="UTF-8"?>
<svg width="12px" height="12px" viewBox="0 0 12 12" version="1.1" xmlns="http://www.w3.org/2000/svg" xmlns:xlink="http://www.w3.org/1999/xlink">
    <title>1备份</title>
    <g id="页面-1" stroke="none" stroke-width="1" fill="none" fill-rule="evenodd">
        <g id="1.AI主页面" transform="translate(-729.000000, -330.000000)" fill="#FF0000" fill-rule="nonzero">
            <g id="编组-18" transform="translate(729.113281, 245.000000)">
                <g id="编组-52" transform="translate(0.000000, 82.000000)">
                    <g id="2" transform="translate(3.273438, 4.386719)">
                        <path d="M0,8.61328125 L4.86914062,8.61328125 L4.86914062,7.38867188 L1.60546875,7.38867188 L4.35351562,3.94335938 C4.69726562,3.50585938 4.86914062,3.00585938 4.86914062,2.44335938 C4.86132812,1.74023438 4.625,1.16015625 4.16015625,0.703125 C3.703125,0.2421875 3.10742188,0.0078125 2.37304688,0 C1.71679688,0.0078125 1.1640625,0.23828125 0.71484375,0.69140625 C0.26953125,1.15625 0.03125,1.74414062 0,2.45507812 L1.21875,2.45507812 C1.26171875,2.06445312 1.3984375,1.76171875 1.62890625,1.546875 C1.8515625,1.33203125 2.13085938,1.22460938 2.46679687,1.22460938 C2.84570312,1.23242188 3.13867188,1.35546875 3.34570312,1.59375 C3.54492187,1.83203125 3.64453125,2.11132812 3.64453125,2.43164062 C3.64453125,2.55273438 3.62890625,2.68164062 3.59765625,2.81835938 C3.55078125,2.96289062 3.46289062,3.11914062 3.33398438,3.28710938 L0,7.45898438 L0,8.61328125 Z"></path>
                    </g>
                </g>
            </g>
        </g>
    </g>
</svg>