<?xml version="1.0" encoding="UTF-8"?>
<svg width="12px" height="12px" viewBox="0 0 12 12" version="1.1" xmlns="http://www.w3.org/2000/svg" xmlns:xlink="http://www.w3.org/1999/xlink">
    <title>1备份</title>
    <g id="页面-1" stroke="none" stroke-width="1" fill="none" fill-rule="evenodd">
        <g id="1.AI主页面" transform="translate(-729.000000, -359.000000)" fill="#FF5100" fill-rule="nonzero">
            <g id="编组-18" transform="translate(729.113281, 245.000000)">
                <g id="编组-53" transform="translate(0.000000, 111.000000)">
                    <g id="3" transform="translate(0.000000, 3.457031)">
                        <path d="M4.99609375,5.68164062 L5.51171875,5.68164062 C5.890625,5.68164062 6.203125,5.796875 6.44921875,6.02734375 C6.69921875,6.265625 6.828125,6.6015625 6.8359375,7.03515625 C6.828125,7.4609375 6.69921875,7.7890625 6.44921875,8.01953125 C6.203125,8.265625 5.90039062,8.38867188 5.54101562,8.38867188 C5.20507812,8.38867188 4.93554688,8.296875 4.73242188,8.11328125 C4.53320312,7.9375 4.37890625,7.70703125 4.26953125,7.421875 L3.04492188,7.421875 C3.17773438,8.1328125 3.46875,8.67578125 3.91796875,9.05078125 C4.3671875,9.42578125 4.8828125,9.61328125 5.46484375,9.61328125 C6.21875,9.60546875 6.8359375,9.36523438 7.31640625,8.89257812 C7.8046875,8.43164062 8.05273438,7.80078125 8.06054688,7 C8.06054688,6.640625 7.984375,6.296875 7.83203125,5.96875 C7.671875,5.640625 7.41210938,5.359375 7.05273438,5.125 C7.40429688,4.88671875 7.6484375,4.61523438 7.78515625,4.31054688 C7.90234375,4.00585938 7.9609375,3.68945312 7.9609375,3.36132812 C7.953125,2.71289062 7.73046875,2.15039062 7.29296875,1.67382812 C6.8359375,1.18554688 6.21875,0.9375 5.44140625,0.9296875 C4.828125,0.9375 4.30078125,1.15625 3.859375,1.5859375 C3.41015625,2.01953125 3.15429688,2.55273438 3.09179688,3.18554688 L4.31640625,3.18554688 C4.39453125,2.83398438 4.546875,2.57421875 4.7734375,2.40625 C4.98828125,2.23828125 5.2265625,2.15429688 5.48828125,2.15429688 C5.8515625,2.16210938 6.1484375,2.27734375 6.37890625,2.5 C6.609375,2.73046875 6.72851562,3.02539062 6.73632812,3.38476562 C6.73632812,3.74023438 6.62109375,4.02929688 6.390625,4.25195312 C6.16015625,4.48242188 5.8359375,4.59765625 5.41796875,4.59765625 L4.99609375,4.59765625 L4.99609375,5.68164062 Z"></path>
                    </g>
                </g>
            </g>
        </g>
    </g>
</svg>