<?xml version="1.0" encoding="UTF-8"?>
<svg width="12px" height="12px" viewBox="0 0 12 12" version="1.1" xmlns="http://www.w3.org/2000/svg" xmlns:xlink="http://www.w3.org/1999/xlink">
    <title>编组</title>
    <g id="页面-1" stroke="none" stroke-width="1" fill="none" fill-rule="evenodd">
        <g id="1.AI主页面" transform="translate(-786.000000, -248.000000)" fill="#FF3800" fill-rule="nonzero">
            <g id="编组-18" transform="translate(729.113281, 245.000000)">
                <g id="编组-27" transform="translate(2.886719, 0.000000)">
                    <g id="编组" transform="translate(54.000000, 3.000000)">
                        <path d="M9.80959621,2.60733289 C8.12299053,3.07625717 7.81420376,4.40547967 7.92299227,5.24972516 C6.71980261,3.87100784 6.76920849,2.28498169 6.76920849,0 C2.91038016,1.41841475 3.80779489,5.50801244 3.692389,6.74990059 C2.72179217,5.97546645 2.53838802,4.12505806 2.53838802,4.12505806 C1.51378065,4.63902623 1,6.01164859 1,7.12504803 C1,9.81748313 3.23859914,12 6,12 C8.76140086,12 11,9.81748313 11,7.12504803 C11,5.52498744 9.79500033,4.78689584 9.80959621,2.60733289 Z" id="路径"></path>
                    </g>
                </g>
            </g>
        </g>
    </g>
</svg>