<?xml version="1.0" encoding="UTF-8"?>
<svg width="14px" height="14px" viewBox="0 0 14 14" version="1.1" xmlns="http://www.w3.org/2000/svg" xmlns:xlink="http://www.w3.org/1999/xlink">
    <!-- Generator: Sketch 64 (93537) - https://sketch.com -->
    <title>icon_exc_normal@2x</title>
    <desc>Created with Sketch.</desc>
    <g id="页面-1" stroke="none" stroke-width="1" fill="none" fill-rule="evenodd">
        <g id="27文件图标" transform="translate(-94.000000, -30.000000)" fill-rule="nonzero">
            <g id="icon_exc_normal@2x" transform="translate(94.000000, 30.000000)">
                <path d="M12.5282531,3.18146461 L9.85758189,0.477608626 C9.56873007,0.175779475 9.17244178,0.00375124429 8.75735141,0 L3.57120906,0 C2.7076203,0 2,0.715635074 2,1.59073231 L2,12.4092677 C2,13.2843649 2.706852,14 3.57120906,14 L11.4287909,14 C12.293148,14 13,13.2843649 13,12.4092677 L13,4.29614401 C13,3.89787754 12.8424949,3.50038893 12.5282531,3.18146461 Z M9.07082489,0.875097233 C9.14996159,0.875097233 9.22832995,0.954439387 9.30746665,1.03378153 L11.9789062,3.73841538 C12.0572746,3.8185354 12.0572746,3.89787754 12.1356429,3.97721969 L9.07236153,3.97721969 L9.07236153,0.875097233 L9.07082489,0.875097233 Z M12.2140113,12.4256028 C12.2140113,12.9024336 11.8997695,13.2205801 11.4287909,13.2205801 L3.57120906,13.2205801 C3.09946218,13.2205801 2.78522036,12.9024336 2.78522036,12.4256028 L2.78522036,1.59073231 C2.78522036,1.11390155 3.09946218,0.79575508 3.57044074,0.79575508 L8.28483621,0.79575508 L8.28483621,4.3747083 C8.28483621,4.61351261 8.44234127,4.77297477 8.67821471,4.77297477 L12.213243,4.77297477 L12.213243,12.4256028 L12.2140113,12.4256028 Z" id="形状" fill="#CCCCCC"></path>
                <polygon id="路径" fill="#77D693" points="0 6 14 6 14 12 0 12"></polygon>
                <path d="M4.76062391,10.9250412 L4.76062391,10.4233937 L2.56740411,10.4233937 L2.56740411,9.20016474 L4.54655419,9.20016474 L4.54655419,8.69769358 L2.56740411,8.69769358 L2.56740411,7.57742998 L4.67149451,7.57742998 L4.67149451,7.07495882 L2,7.07495882 L2,10.9250412 L4.76062391,10.9250412 L4.76062391,10.9250412 Z M5.69250357,10.9250412 L6.68725132,9.39950577 L7.68199905,10.9250412 L8.37434346,10.9250412 L7.02705714,8.93574959 L8.28760146,7.07578254 L7.59525704,7.07578254 L6.6880471,8.46622735 L5.78163298,7.07578254 L5.08928856,7.07578254 L6.3386917,8.93574959 L5.00095496,10.9250412 L5.69329937,10.9250412 L5.69250357,10.9250412 Z M10.3853255,11 C10.7864078,11 11.1301926,10.8813839 11.4166799,10.6449753 C11.723858,10.3912685 11.9164412,10.0411862 12,9.59308073 L11.4477161,9.59308073 C11.3752984,9.89538715 11.2447875,10.121911 11.0577749,10.2726524 C10.8803119,10.4126853 10.6511221,10.4827018 10.3805507,10.4827018 C9.96355244,10.4827018 9.65637434,10.3484349 9.4582206,10.0790774 C9.27120802,9.82537068 9.17730384,9.46952225 9.17730384,9.00576606 C9.17730384,8.55848434 9.27120802,8.20263591 9.46379118,7.9431631 C9.66671972,7.65815486 9.96912302,7.51812191 10.3694095,7.51812191 C10.6399809,7.51812191 10.8596212,7.57742998 11.0362884,7.70098846 C11.2137514,7.82454694 11.3331211,8.01894563 11.3959892,8.27759474 L11.9482731,8.27759474 C11.8909756,7.89044481 11.723858,7.57742998 11.4532866,7.3509061 C11.1715741,7.11367381 10.8126691,7 10.3805507,7 C9.78608945,7 9.33805507,7.19934102 9.02610218,7.60955519 C8.74438962,7.97034596 8.60910393,8.43410215 8.60910393,9.00576606 C8.60910393,9.58813838 8.73961483,10.0518946 9.01018621,10.3962109 C9.31736431,10.7957166 9.77574406,11 10.3853255,11 L10.3853255,11 Z" id="形状" fill="#FFFFFF"></path>
            </g>
        </g>
    </g>
</svg>