<?xml version="1.0" encoding="UTF-8"?>
<svg width="14px" height="14px" viewBox="0 0 14 14" version="1.1" xmlns="http://www.w3.org/2000/svg" xmlns:xlink="http://www.w3.org/1999/xlink">
    <!-- Generator: Sketch 64 (93537) - https://sketch.com -->
    <title>icon_html_normal@2x</title>
    <desc>Created with Sketch.</desc>
    <g id="页面-1" stroke="none" stroke-width="1" fill="none" fill-rule="evenodd">
        <g id="27文件图标" transform="translate(-59.000000, -30.000000)" fill-rule="nonzero">
            <g id="icon_html_normal@2x" transform="translate(59.000000, 30.000000)">
                <path d="M12.5282531,3.18146461 L9.85758189,0.477608626 C9.56873007,0.175779475 9.17244178,0.00375124429 8.75735141,0 L3.57120906,0 C2.7076203,0 2,0.715635074 2,1.59073231 L2,12.4092677 C2,13.2843649 2.706852,14 3.57120906,14 L11.4287909,14 C12.293148,14 13,13.2843649 13,12.4092677 L13,4.29614401 C13,3.89787754 12.8424949,3.50038893 12.5282531,3.18146461 Z M9.07082489,0.875097233 C9.14996159,0.875097233 9.22832995,0.954439387 9.30746665,1.03378153 L11.9789062,3.73841538 C12.0572746,3.8185354 12.0572746,3.89787754 12.1356429,3.97721969 L9.07236153,3.97721969 L9.07236153,0.875097233 L9.07082489,0.875097233 Z M12.2140113,12.4256028 C12.2140113,12.9024336 11.8997695,13.2205801 11.4287909,13.2205801 L3.57120906,13.2205801 C3.09946218,13.2205801 2.78522036,12.9024336 2.78522036,12.4256028 L2.78522036,1.59073231 C2.78522036,1.11390155 3.09946218,0.79575508 3.57044074,0.79575508 L8.28483621,0.79575508 L8.28483621,4.3747083 C8.28483621,4.61351261 8.44234127,4.77297477 8.67821471,4.77297477 L12.213243,4.77297477 L12.213243,12.4256028 L12.2140113,12.4256028 Z" id="形状" fill="#CCCCCC"></path>
                <polygon id="路径" fill="#86C4F8" points="0 6 14 6 14 12 0 12"></polygon>
                <path d="M1.47578479,10.499244 L1.47578479,9.15498992 L3.10996789,9.15498992 L3.10996789,10.499244 L3.58575267,10.499244 L3.58575267,7.50075605 L3.10996789,7.50075605 L3.10996789,8.76486895 L1.47578479,8.76486895 L1.47578479,7.50075605 L1,7.50075605 L1,10.499244 L1.47578479,10.499244 Z M5.47316338,10.499244 L5.47316338,7.89087702 L6.51281211,7.89087702 L6.51281211,7.5015121 L3.95694344,7.5015121 L3.95694344,7.89163306 L5.00209713,7.89163306 L5.00209713,10.5 L5.4739498,10.5 L5.47316338,10.499244 Z M7.36529262,10.499244 L7.36529262,8.35735887 L7.38259387,8.35735887 L8.33888197,10.499244 L8.74939379,10.499244 L9.70646831,8.35735887 L9.72376958,8.35735887 L9.72376958,10.499244 L10.2003408,10.499244 L10.2003408,7.50075605 L9.63647683,7.50075605 L8.55278852,9.90272178 L8.54020578,9.90272178 L7.45258535,7.50075605 L6.88872141,7.50075605 L6.88872141,10.499244 L7.36529262,10.499244 Z M13,10.499244 L13,10.1083669 L11.2832427,10.1083669 L11.2832427,7.5 L10.81139,7.5 L10.81139,10.499244 L13,10.499244 Z" id="形状" fill="#FFFFFF"></path>
            </g>
        </g>
    </g>
</svg>