<?xml version="1.0" encoding="UTF-8"?>
<svg width="14px" height="14px" viewBox="0 0 14 14" version="1.1" xmlns="http://www.w3.org/2000/svg" xmlns:xlink="http://www.w3.org/1999/xlink">
    <!-- Generator: Sketch 64 (93537) - https://sketch.com -->
    <title>a-icon_jpg_normal2x2x</title>
    <desc>Created with Sketch.</desc>
    <g id="页面-1" stroke="none" stroke-width="1" fill="none" fill-rule="evenodd">
        <g id="27文件图标" transform="translate(-199.000000, -30.000000)" fill-rule="nonzero">
            <g id="a-icon_jpg_normal2x2x" transform="translate(199.000000, 30.000000)">
                <path d="M12.248,3.18100001 L9.54499999,0.478000004 C9.25239071,0.175708884 8.85069923,0.00350392306 8.43,0 L3.18,0 C2.30600001,0 1.59,0.716000004 1.59,1.59 L1.59,12.408 C1.59,13.283 2.305,13.998 3.18,13.998 L11.134,13.998 C12.009,13.998 12.725,13.283 12.725,12.408 L12.725,4.296 C12.725,3.897 12.565,3.5 12.247,3.18100001 L12.248,3.18100001 Z M8.748,0.875 C8.828,0.875 8.90799999,0.955000006 8.988,1.034 L11.692,3.738 C11.772,3.81800001 11.772,3.898 11.851,3.977 L8.75,3.977 L8.75,0.875 L8.748,0.875 Z M11.93,12.425 C11.93,12.901 11.612,13.219 11.135,13.219 L3.18100001,13.219 C2.704,13.219 2.386,12.901 2.386,12.424 L2.386,1.591 C2.386,1.114 2.704,0.795999996 3.18100001,0.795999996 L7.954,0.795999996 L7.954,4.374 C7.954,4.613 8.113,4.772 8.352,4.772 L11.93,4.772 L11.93,12.424 L11.93,12.425 Z" id="形状" fill="#CCCCCC"></path>
                <polygon id="路径" fill="#FFCC70" points="0 6.363 13.998 6.363 13.998 12.09 0 12.09"></polygon>
                <path d="M3.43,11.06 C3.84,11.06 4.14000001,10.95 4.32999999,10.74 C4.49499999,10.54 4.58,10.24 4.58,9.84 L4.58,7.42 L4.03500001,7.42 L4.03500001,9.82 C4.03500001,10.085 3.985,10.275 3.89500001,10.395 C3.80000001,10.515 3.65000001,10.58 3.44000001,10.58 C3.07000001,10.58 2.885,10.365 2.885,9.94 L2.885,9.82499999 L2.34,9.82499999 L2.34,9.945 C2.34,10.295 2.435,10.565 2.625,10.765 C2.805,10.96 3.075,11.06 3.43,11.06 Z M5.825,10.99 L5.825,9.60000001 L6.75,9.60000001 C7.60500001,9.60000001 8.035,9.235 8.035,8.505 C8.035,7.78000001 7.61,7.42 6.76,7.42 L5.28,7.42 L5.28,10.99 L5.825,10.99 L5.825,10.99 Z M6.715,9.135 L5.825,9.135 L5.825,7.88500001 L6.715,7.88500001 C6.98,7.88500001 7.175,7.93500001 7.3,8.035 C7.425,8.125 7.49,8.28499999 7.49,8.505 C7.49,8.72500001 7.425,8.88500001 7.30499999,8.98499999 C7.18,9.085 6.985,9.135 6.715,9.135 Z M10.155,11.06 C10.465,11.06 10.75,11.02 11.01,10.94 C11.255,10.86 11.47,10.75 11.655,10.605 L11.655,9.105 L10.125,9.105 L10.125,9.57 L11.11,9.57 L11.11,10.345 C10.99,10.42 10.86,10.48 10.71,10.52 C10.555,10.56 10.39,10.585 10.215,10.585 C9.77000001,10.585 9.44000001,10.46 9.22999999,10.21 C9.03,9.98 8.93499999,9.64999999 8.93500001,9.22 C8.93500001,8.78 9.04000001,8.435 9.26,8.185 C9.465,7.945 9.73999999,7.83000001 10.085,7.82999999 C10.365,7.82999999 10.595,7.88999999 10.765,8.015 C10.935,8.135 11.045,8.315 11.095,8.555 L11.645,8.555 C11.58,8.155 11.42,7.86 11.165,7.66 C10.9,7.45 10.54,7.35 10.085,7.35 C9.56,7.35 9.14,7.53 8.83000001,7.89999999 C8.535,8.245 8.38999999,8.685 8.38999999,9.22 C8.38999999,9.75 8.53499999,10.185 8.83000001,10.52 C9.14500001,10.88 9.585,11.06 10.155,11.06 L10.155,11.06 Z" id="形状" fill="#FFFFFF"></path>
            </g>
        </g>
    </g>
</svg>