<?xml version="1.0" encoding="UTF-8"?>
<svg width="14px" height="14px" viewBox="0 0 14 14" version="1.1" xmlns="http://www.w3.org/2000/svg" xmlns:xlink="http://www.w3.org/1999/xlink">
    <!-- Generator: Sketch 64 (93537) - https://sketch.com -->
    <title>icon_pdf_normal@2x</title>
    <desc>Created with Sketch.</desc>
    <g id="页面-1" stroke="none" stroke-width="1" fill="none" fill-rule="evenodd">
        <g id="27文件图标" transform="translate(-24.000000, -30.000000)" fill-rule="nonzero">
            <g id="icon_pdf_normal@2x" transform="translate(24.000000, 30.000000)">
                <path d="M12.2157778,3.17333334 L9.52,0.476 C9.22796145,0.174793202 8.82730252,0.00332238945 8.40777778,0 L3.17333334,0 C2.30066666,0 1.58666666,0.714 1.58666666,1.58666666 L1.58666666,12.3744444 C1.58666666,13.2471111 2.30066666,13.9611111 3.17333334,13.9611111 L11.1058889,13.9611111 C11.9777778,13.9611111 12.6925556,13.2471111 12.6925556,12.3744444 L12.6925556,4.28322222 C12.6925556,3.88655556 12.5331111,3.48988888 12.2157778,3.17333334 Z M8.72666666,0.872666662 C8.806,0.872666662 8.88533332,0.952 8.96466666,1.03133334 L11.662,3.72866666 C11.7405556,3.808 11.7405556,3.88733332 11.8198889,3.96588888 L8.72666666,3.96588888 L8.72666666,0.872666662 Z M11.9,12.3915556 C11.9,12.8667778 11.5826667,13.1841111 11.1066667,13.1841111 L3.17333334,13.1841111 C2.69811112,13.1841111 2.38,12.8667778 2.38,12.3907778 L2.38,1.58666666 C2.38,1.11066666 2.69811112,0.793333338 3.17333334,0.793333338 L7.93333334,0.793333338 L7.93333334,4.36333334 C7.93333334,4.60055556 8.092,4.76 8.33,4.76 L11.9,4.76 L11.9,12.3907778 L11.9,12.3915556 Z" id="形状" fill="#CCCCCC"></path>
                <polygon id="路径" fill="#FF8989" points="0 6.34588888 13.9611111 6.34588888 13.9611111 12.0571111 0 12.0571111"></polygon>
                <path d="M2.81244444,10.9386667 L2.81244444,9.52777778 L3.752,9.52777778 C4.62,9.52777778 5.05633334,9.15677778 5.05633334,8.41555556 C5.05633334,7.67977778 4.62466668,7.31422222 3.76211112,7.31422222 L2.25944444,7.31422222 L2.25944444,10.9386667 L2.81244444,10.9386667 L2.81244444,10.9386667 Z M3.71622222,9.05566666 L2.81244444,9.05566666 L2.81244444,7.78555556 L3.71622222,7.78555556 C3.98533334,7.78555556 4.18288888,7.83611112 4.31044444,7.938 C4.43722222,8.029 4.50333334,8.19155556 4.50333334,8.41477778 C4.50333334,8.638 4.43722222,8.80055556 4.31511112,8.90244444 C4.18833334,9.00355556 3.99,9.05488888 3.71622222,9.05488888 L3.71622222,9.05566666 Z M6.87944444,10.9386667 C7.46277778,10.9386667 7.90455556,10.7761111 8.20944444,10.4517778 C8.49877778,10.1367778 8.64577778,9.695 8.64577778,9.12644444 C8.64577778,8.55244444 8.50344444,8.11144444 8.21955556,7.80655556 C7.91466668,7.47677778 7.4728889,7.31422222 6.88955556,7.31422222 L5.56888888,7.31422222 L5.56888888,10.9386667 L6.87944444,10.9386667 Z M6.77755556,10.4665556 L6.12266666,10.4665556 L6.12266666,7.78633334 L6.78766666,7.78633334 C7.245,7.78633334 7.57944444,7.8928889 7.79255556,8.11144444 C7.99633334,8.32455556 8.10288888,8.65977778 8.10288888,9.12644444 C8.10288888,9.583 7.99633332,9.91822222 7.78788888,10.1367778 C7.57477777,10.3545556 7.2341111,10.4665556 6.77755556,10.4665556 L6.77755556,10.4665556 Z M9.76266666,10.9386667 L9.76266666,9.31466666 L11.5647778,9.31466666 L11.5647778,8.84177778 L9.76266666,8.84177778 L9.76266666,7.78633334 L11.6713333,7.78633334 L11.6713333,7.31422222 L9.20966666,7.31422222 L9.20966666,10.9386667 L9.76266666,10.9386667 Z" id="形状" fill="#FFFFFF"></path>
            </g>
        </g>
    </g>
</svg>