<?xml version="1.0" encoding="UTF-8"?>
<svg width="14px" height="14px" viewBox="0 0 14 14" version="1.1" xmlns="http://www.w3.org/2000/svg" xmlns:xlink="http://www.w3.org/1999/xlink">
    <!-- Generator: Sketch 64 (93537) - https://sketch.com -->
    <title>a-icon_png_normal2x2x</title>
    <desc>Created with Sketch.</desc>
    <g id="页面-1" stroke="none" stroke-width="1" fill="none" fill-rule="evenodd">
        <g id="27文件图标" transform="translate(-262.000000, -30.000000)" fill-rule="nonzero">
            <g id="a-icon_png_normal2x2x" transform="translate(262.000000, 30.000000)">
                <path d="M12.248,3.18100001 L9.54499999,0.478000004 C9.25239071,0.175708884 8.85069923,0.00350392306 8.43,0 L3.18,0 C2.30600001,0 1.59,0.716000004 1.59,1.59 L1.59,12.408 C1.59,13.283 2.305,13.998 3.18,13.998 L11.134,13.998 C12.009,13.998 12.725,13.283 12.725,12.408 L12.725,4.296 C12.725,3.897 12.565,3.5 12.247,3.18100001 L12.248,3.18100001 Z M8.748,0.875 C8.828,0.875 8.90799999,0.955000006 8.988,1.034 L11.692,3.738 C11.772,3.81800001 11.772,3.898 11.851,3.977 L8.75,3.977 L8.75,0.875 L8.748,0.875 Z M11.93,12.425 C11.93,12.901 11.612,13.219 11.135,13.219 L3.18100001,13.219 C2.704,13.219 2.386,12.901 2.386,12.424 L2.386,1.591 C2.386,1.114 2.704,0.795999996 3.18100001,0.795999996 L7.954,0.795999996 L7.954,4.374 C7.954,4.613 8.113,4.772 8.352,4.772 L11.93,4.772 L11.93,12.424 L11.93,12.425 Z" id="形状" fill="#CCCCCC"></path>
                <polygon id="路径" fill="#8AA6DC" points="0 6.363 13.998 6.363 13.998 12.09 0 12.09"></polygon>
                <path d="M2.725,10.99 L2.725,9.60000001 L3.65000001,9.60000001 C4.50500001,9.60000001 4.935,9.235 4.935,8.505 C4.935,7.78000001 4.51,7.42 3.66,7.42 L2.18000001,7.42 L2.18000001,10.99 L2.725,10.99 L2.725,10.99 Z M3.61500001,9.135 L2.725,9.135 L2.725,7.88500001 L3.61500001,7.88500001 C3.88,7.88500001 4.075,7.93500001 4.2,8.035 C4.325,8.125 4.39,8.28499999 4.39,8.505 C4.39,8.72500001 4.325,8.88500001 4.205,8.98499999 C4.08,9.085 3.885,9.135 3.61500001,9.135 L3.61500001,9.135 Z M5.985,10.99 L5.985,8.30500001 L6.005,8.30500001 L7.85000001,10.99 L8.38,10.99 L8.38,7.42 L7.835,7.42 L7.835,10.075 L7.81500001,10.075 L5.99,7.42 L5.44,7.42 L5.44,10.99 L5.985,10.99 L5.985,10.99 Z M10.7,11.06 C11.01,11.06 11.295,11.02 11.555,10.94 C11.8,10.86 12.015,10.75 12.2,10.605 L12.2,9.105 L10.67,9.105 L10.67,9.57 L11.655,9.57 L11.655,10.345 C11.535,10.42 11.405,10.48 11.255,10.52 C11.1,10.56 10.935,10.585 10.76,10.585 C10.315,10.585 9.98500001,10.46 9.77500001,10.21 C9.57500001,9.98 9.48,9.64999999 9.48,9.22 C9.48,8.78 9.585,8.435 9.805,8.185 C10.01,7.945 10.285,7.83000001 10.63,7.82999999 C10.91,7.82999999 11.14,7.88999999 11.31,8.015 C11.48,8.135 11.59,8.315 11.64,8.555 L12.19,8.555 C12.125,8.155 11.965,7.86 11.71,7.66 C11.445,7.45 11.085,7.35 10.63,7.35 C10.105,7.35 9.68499999,7.53 9.375,7.89999999 C9.08,8.245 8.93500001,8.685 8.93500001,9.22 C8.93500001,9.75 9.08,10.185 9.375,10.52 C9.69,10.88 10.13,11.06 10.7,11.06 L10.7,11.06 Z" id="形状" fill="#FFFFFF"></path>
            </g>
        </g>
    </g>
</svg>