<?xml version="1.0" encoding="UTF-8"?>
<svg width="14px" height="14px" viewBox="0 0 14 14" version="1.1" xmlns="http://www.w3.org/2000/svg" xmlns:xlink="http://www.w3.org/1999/xlink">
    <!-- Generator: Sketch 64 (93537) - https://sketch.com -->
    <title>FILE1</title>
    <desc>Created with Sketch.</desc>
    <g id="页面-1" stroke="none" stroke-width="1" fill="none" fill-rule="evenodd">
        <g id="27文件图标" transform="translate(-293.000000, -30.000000)" fill-rule="nonzero">
            <g id="FILE1" transform="translate(293.000000, 30.000000)">
                <path d="M12.2496072,3.18181818 L9.54545455,0.477665538 C9.2529937,0.175781703 8.85172679,0.00372932039 8.43142537,0 L3.18181818,0 C2.30425786,0.00258868788 1.59349778,0.713348768 1.59090909,1.59090909 L1.59090909,12.4090909 C1.59090909,13.2842873 2.30662178,14 3.18181818,14 L11.1363636,14 C12.013924,13.9974113 12.724684,13.2866512 12.7272727,12.4090909 L12.7272727,4.29506173 C12.7272727,3.89753087 12.5685746,3.5 12.2503928,3.18181818 L12.2496072,3.18181818 Z M8.74960719,0.875196405 C8.82974187,0.875196405 8.90909091,0.954545455 8.98843996,1.0338945 L11.6933782,3.73883277 C11.7727273,3.81818182 11.7727273,3.89753087 11.8520763,3.97687992 L8.74960719,3.97687992 L8.74960719,0.875982041 L8.74960719,0.875196405 Z M11.9314254,12.4255892 C11.9314254,12.9024691 11.6140292,13.220651 11.1363636,13.220651 L3.18181818,13.220651 C2.70493827,13.220651 2.38675645,12.9024691 2.38675645,12.4255892 L2.38675645,1.59090909 C2.38675645,1.11402917 2.70493827,0.795847356 3.18181818,0.795847356 L7.95454545,0.795847356 L7.95454545,4.37519641 C7.95454545,4.61324354 8.11402917,4.77272727 8.35207632,4.77272727 L11.9314254,4.77272727 L11.9314254,12.4248036 L11.9314254,12.4255892 Z" id="形状" fill="#CCCCCC"></path>
                <polygon id="路径" fill="#4188FF" points="0 6.36363636 14 6.36363636 14 12.0909091 0 12.0909091"></polygon>
                <path d="M9.15151515,10.998092 L9.15151515,9.37890012 L10.9474747,9.37890012 L10.9474747,8.90751964 L9.15151515,8.90751964 L9.15151515,7.85634119 L11.054321,7.85634119 L11.054321,7.38496072 L8.6,7.38496072 L8.6,10.998092 L9.15151515,10.998092 L9.15151515,10.998092 Z M6.4681111,7.38 L6.4681111,7.85444444 L5.25633332,7.85444444 L5.25633332,11.0153333 L4.70644444,11.0153333 L4.70644444,7.85444444 L3.49,7.85444444 L3.49,7.38 L6.4681111,7.38 Z M7.69584736,7.38496072 L7.69584736,10.998092 L7.14983165,10.998092 L7.14983165,7.38496072 L7.69584736,7.38496072 Z" id="形状" fill="#FFFFFF"></path>
            </g>
        </g>
    </g>
</svg>