<?xml version="1.0" encoding="UTF-8"?>
<svg width="14px" height="14px" viewBox="0 0 14 14" version="1.1" xmlns="http://www.w3.org/2000/svg" xmlns:xlink="http://www.w3.org/1999/xlink">
    <!-- Generator: Sketch 64 (93537) - https://sketch.com -->
    <title>icon_txt_normal@2x</title>
    <desc>Created with Sketch.</desc>
    <g id="页面-1" stroke="none" stroke-width="1" fill="none" fill-rule="evenodd">
        <g id="27文件图标" transform="translate(-129.000000, -30.000000)" fill-rule="nonzero">
            <g id="icon_txt_normal@2x" transform="translate(129.000000, 30.000000)">
                <path d="M12.2484444,3.18111112 L9.54488888,0.477555559 C9.25248039,0.175759944 8.85131256,0.00375082749 8.43111112,0 L3.18111112,0 C2.30688888,0 1.59055556,0.715555559 1.59055556,1.59055556 L1.59055556,12.4078889 C1.59055556,13.2828889 2.30611112,13.9984444 3.18111112,13.9984444 L11.1354444,13.9984444 C12.0104444,13.9984444 12.726,13.2828889 12.726,12.4078889 L12.726,4.29566666 C12.726,3.89744444 12.5665556,3.5 12.2484444,3.18111112 Z M8.74844444,0.875 C8.82855556,0.875 8.90788888,0.954333338 8.988,1.03366666 L11.6923333,3.738 C11.7716667,3.81811112 11.7716667,3.89744444 11.851,3.97677778 L8.75,3.97677778 L8.75,0.875 L8.74844444,0.875 Z M11.9303333,12.4242222 C11.9303333,12.901 11.6122222,13.2191111 11.1354444,13.2191111 L3.18111112,13.2191111 C2.70433334,13.2191111 2.38622222,12.901 2.38622222,12.4242222 L2.38622222,1.59055556 C2.38622222,1.11377778 2.70433334,0.795666662 3.18111112,0.795666662 L7.95355556,0.795666662 L7.95355556,4.37422222 C7.95355556,4.613 8.113,4.77244444 8.35177778,4.77244444 L11.9303333,4.77244444 L11.9303333,12.4242222 Z" id="形状" fill="#CCCCCC"></path>
                <polygon id="路径" fill="#86CDD7" points="0 6.363 13.9984444 6.363 13.9984444 12.0897778 0 12.0897778"></polygon>
                <path d="M4.24355556,10.9861111 L4.24355556,7.82444444 L5.45533334,7.82444444 L5.45533334,7.35 L2.47722222,7.35 L2.47722222,7.82444444 L3.69444444,7.82444444 L3.69444444,10.9853333 L4.24433334,10.9853333 L4.24355556,10.9861111 Z M6.23933334,10.9861111 L7.21155556,9.54566666 L8.18377778,10.9861111 L8.86044444,10.9861111 L7.54211112,9.10777778 L8.77411112,7.35155556 L8.09744444,7.35155556 L7.21,8.66444444 L6.32644444,7.35155556 L5.64977778,7.35155556 L6.87088888,9.10777778 L5.56266666,10.9861111 L6.23933334,10.9861111 Z M10.7286667,10.9861111 L10.7286667,7.82444444 L11.9404444,7.82444444 L11.9404444,7.35 L8.96233334,7.35 L8.96233334,7.82444444 L10.1787778,7.82444444 L10.1787778,10.9853333 L10.7286667,10.9853333 L10.7286667,10.9861111 Z" id="形状" fill="#FFFFFF"></path>
            </g>
        </g>
    </g>
</svg>