<?xml version="1.0" encoding="UTF-8"?>
<svg width="14px" height="14px" viewBox="0 0 14 14" version="1.1" xmlns="http://www.w3.org/2000/svg" xmlns:xlink="http://www.w3.org/1999/xlink">
    <!-- Generator: Sketch 64 (93537) - https://sketch.com -->
    <title>icon_word_normal@2x</title>
    <desc>Created with Sketch.</desc>
    <g id="页面-1" stroke="none" stroke-width="1" fill="none" fill-rule="evenodd">
        <g id="27文件图标" transform="translate(-164.000000, -30.000000)" fill-rule="nonzero">
            <g id="icon_word_normal@2x" transform="translate(164.000000, 30.000000)">
                <path d="M12.2484444,3.18111112 L9.54488888,0.477555559 C9.25248039,0.175759944 8.85131256,0.00375082749 8.43111112,0 L3.18111112,0 C2.30688888,0 1.59055556,0.715555559 1.59055556,1.59055556 L1.59055556,12.4078889 C1.59055556,13.2828889 2.30611112,13.9984444 3.18111112,13.9984444 L11.1354444,13.9984444 C12.0104444,13.9984444 12.726,13.2828889 12.726,12.4078889 L12.726,4.29566666 C12.726,3.89744444 12.5665556,3.5 12.2484444,3.18111112 Z M8.74844444,0.875 C8.82855556,0.875 8.90788888,0.954333338 8.988,1.03366666 L11.6923333,3.738 C11.7716667,3.81811112 11.7716667,3.89744444 11.851,3.97677778 L8.75,3.97677778 L8.75,0.875 L8.74844444,0.875 Z M11.9303333,12.4242222 C11.9303333,12.901 11.6122222,13.2191111 11.1354444,13.2191111 L3.18111112,13.2191111 C2.70355556,13.2191111 2.38544444,12.901 2.38544444,12.4242222 L2.38544444,1.59055556 C2.38544444,1.11377778 2.70355556,0.795666662 3.18033334,0.795666662 L7.95277778,0.795666662 L7.95277778,4.37422222 C7.95277778,4.613 8.11222222,4.77244444 8.351,4.77244444 L11.9295556,4.77244444 L11.9295556,12.4242222 L11.9303333,12.4242222 Z" id="形状" fill="#CCCCCC"></path>
                <polygon id="路径" fill="#6FA7FF" points="0 6.363 13.9984444 6.363 13.9984444 12.0897778 0 12.0897778"></polygon>
                <path d="M2.31,10.4478889 L2.884,8.26622222 L2.89955556,8.26622222 L3.47355556,10.4478889 L3.93244444,10.4478889 L4.74911112,7.62066666 L4.26144444,7.62066666 L3.71155556,9.82177778 L3.696,9.82177778 L3.11733334,7.62066666 L2.66622222,7.62066666 L2.08833334,9.82177778 L2.07277778,9.82177778 L1.52211112,7.62066666 L1.03444444,7.62066666 L1.84566666,10.4478889 L2.30922222,10.4478889 L2.31,10.4478889 Z M6.29688888,10.5031111 C6.72466666,10.5031111 7.06455554,10.3646667 7.31422222,10.0877778 C7.55222222,9.81866666 7.67044444,9.47022222 7.67044444,9.03777778 C7.67044444,8.60222222 7.55222222,8.25066666 7.31422222,7.98544444 C7.06533334,7.70388888 6.72466666,7.56544444 6.29688888,7.56544444 C5.86522222,7.56544444 5.52455554,7.70388888 5.27955556,7.98933334 C5.04155556,8.25844446 4.92722222,8.6068889 4.92722222,9.03855556 C4.92722222,9.46633334 5.04155556,9.81477778 5.27955556,10.0838889 C5.52455556,10.3607778 5.86522222,10.5038889 6.29688888,10.5038889 L6.29688888,10.5031111 Z M6.29688888,10.1235556 C5.99588888,10.1235556 5.76255554,10.0201111 5.59611112,9.82255556 C5.43744446,9.62811112 5.35811112,9.36677778 5.35811112,9.03855556 C5.35811112,8.70566668 5.43744446,8.44433334 5.59611112,8.25066666 C5.76255556,8.04455554 5.9958889,7.94577778 6.29611112,7.94577778 C6.5978889,7.94577778 6.83122223,8.04066666 6.99377778,8.239 C7.15166666,8.43266666 7.23488888,8.69788888 7.23488888,9.03855556 C7.23488888,9.37533334 7.15166666,9.64055556 6.99377778,9.83033334 C6.83122222,10.0247778 6.59711112,10.1235556 6.29688888,10.1235556 L6.29688888,10.1235556 Z M8.53766666,10.4478889 L8.53766666,9.27966666 L9.30222222,9.27966666 C9.464,9.27966666 9.58688888,9.31155554 9.674,9.38311112 C9.75722222,9.4538889 9.80855556,9.56511112 9.82411112,9.723 L9.85988888,10.0761111 C9.87544444,10.234 9.91588888,10.3607778 9.98277778,10.4478889 L10.4494444,10.4478889 C10.3492806,10.3318962 10.2909437,10.185643 10.2837778,10.0325556 L10.2363333,9.58144444 C10.2052222,9.30377778 10.066,9.1381111 9.81244444,9.08211112 L9.81244444,9.07433334 C9.96153822,9.03855979 10.0925554,8.94983293 10.1811111,8.82466666 C10.2609356,8.70801583 10.3022731,8.56931784 10.2993333,8.428 C10.2993333,8.15966666 10.2122222,7.95744444 10.038,7.81511112 C9.87233334,7.68444446 9.64211112,7.62066666 9.35744444,7.62066666 L8.106,7.62066666 L8.106,10.4478889 L8.53766666,10.4478889 L8.53766666,10.4478889 Z M9.30222222,8.91177778 L8.53766666,8.91177778 L8.53766666,7.98933334 L9.29755556,7.98933334 C9.4958889,7.98933334 9.63822222,8.02511112 9.73311112,8.09977778 C9.82022223,8.17133334 9.86766666,8.28644444 9.86766666,8.44433334 C9.86766666,8.59522222 9.821,8.70955556 9.72922222,8.78888888 C9.63433334,8.86822222 9.492,8.91177778 9.30144444,8.91177778 L9.30222222,8.91177778 Z M11.8673333,10.4478889 C12.3231111,10.4478889 12.6668889,10.3211111 12.9048889,10.0675556 C13.1304444,9.82255556 13.2455556,9.478 13.2455556,9.03466666 C13.2455556,8.58744444 13.1343333,8.24288888 12.9126667,8.00488888 C12.6754444,7.74822222 12.3308889,7.62066666 11.8751111,7.62066666 L10.8461111,7.62066666 L10.8461111,10.4478889 L11.8673333,10.4478889 Z M11.788,10.08 L11.2777778,10.08 L11.2777778,7.98933334 L11.7957778,7.98933334 C12.1527778,7.98933334 12.4141111,8.07255556 12.5797778,8.24288888 C12.7384444,8.40855554 12.8208889,8.67066666 12.8208889,9.03466666 C12.8208889,9.39088888 12.7384444,9.65222222 12.5758889,9.82255556 C12.4094444,9.9928889 12.1442222,10.0792222 11.788,10.0792222 L11.788,10.08 Z" id="形状" fill="#FFFFFF"></path>
            </g>
        </g>
    </g>
</svg>