<?xml version="1.0" encoding="UTF-8"?>
<svg width="14px" height="14px" viewBox="0 0 14 14" version="1.1" xmlns="http://www.w3.org/2000/svg" xmlns:xlink="http://www.w3.org/1999/xlink">
    <!-- Generator: Sketch 64 (93537) - https://sketch.com -->
    <title>ZIP</title>
    <desc>Created with Sketch.</desc>
    <g id="页面-1" stroke="none" stroke-width="1" fill="none" fill-rule="evenodd">
        <g id="27文件图标" transform="translate(-230.000000, -30.000000)" fill-rule="nonzero">
            <g id="ZIP" transform="translate(230.000000, 30.000000)">
                <path d="M12.2181818,3.18181818 L9.51402917,0.477665538 C9.22113601,0.175469233 8.81925823,0.0033976225 8.39842873,0 L3.14725028,0 C2.26938317,0.0021573499 1.55814631,0.713043146 1.55555556,1.59090909 L1.55555556,12.4090909 C1.55555556,13.2842873 2.27205388,14 3.14725028,14 L11.1041526,14 C11.9820198,13.9978426 12.6932566,13.2869568 12.6958474,12.4090909 L12.6958474,4.29506173 C12.6958474,3.89753087 12.5363636,3.5 12.2181818,3.18181818 Z M8.71739618,0.875196405 C8.79674523,0.875196405 8.87609428,0.954545455 8.95622895,1.0338945 L11.6611672,3.73883277 C11.7413019,3.81818182 11.7413019,3.89753087 11.820651,3.97687992 L8.71739618,3.97687992 L8.71739618,0.875982041 L8.71739618,0.875196405 Z M11.9,12.4255892 C11.9,12.9024691 11.5818182,13.220651 11.1041526,13.220651 L3.14725028,13.220651 C2.66958474,13.220651 2.35140291,12.9024691 2.35140291,12.4255892 L2.35140291,1.59090909 C2.35140291,1.11402917 2.66958473,0.795847356 3.14725028,0.795847356 L7.92154883,0.795847356 L7.92154883,4.37519641 C7.92154883,4.61324354 8.08024692,4.77272727 8.31907968,4.77272727 L11.9,4.77272727 L11.9,12.4248036 L11.9,12.4255892 Z" id="形状" fill="#CCCCCC"></path>
                <polygon id="路径" fill="#9279FF" points="0 6.22222222 14 6.22222222 14 11.8222222 0 11.8222222"></polygon>
                <path d="M6.47441077,10.725477 L6.47441077,10.2619529 L4.2691358,10.2619529 L6.35578002,7.60493827 L6.35578002,7.17283951 L3.71133558,7.17283951 L3.71133558,7.63479237 L5.65342311,7.63479237 L3.56206509,10.298092 L3.56206509,10.7262626 L6.47441077,10.7262626 L6.47441077,10.725477 Z M7.49494949,10.725477 L7.49494949,7.17126824 L6.95757576,7.17126824 L6.95757576,10.725477 L7.49494949,10.725477 Z M8.74410774,10.725477 L8.74410774,9.34197531 L9.66487093,9.34197531 C10.5164983,9.34197531 10.9446689,8.97822671 10.9446689,8.25151515 C10.9446689,7.52951739 10.5212121,7.17126824 9.67508418,7.17126824 L8.2020202,7.17126824 L8.2020202,10.725477 L8.74410774,10.725477 L8.74410774,10.725477 Z M9.63030303,8.87923681 L8.74410774,8.87923681 L8.74410774,7.63322109 L9.63030303,7.63322109 C9.8942761,7.63322109 10.0883277,7.68350168 10.2124579,7.78249158 C10.3373737,7.87205386 10.4017957,8.0315376 10.4017957,8.25072952 C10.4017957,8.46992144 10.3373737,8.62940516 10.2179574,8.72839507 C10.0930415,8.8281706 9.8989899,8.87766555 9.63030303,8.87766554 L9.63030303,8.87923681 Z" id="形状" fill="#FFFFFF"></path>
            </g>
        </g>
    </g>
</svg>