<?xml version="1.0" encoding="UTF-8"?>
<svg width="12px" height="12px" viewBox="0 0 12 12" version="1.1" xmlns="http://www.w3.org/2000/svg" xmlns:xlink="http://www.w3.org/1999/xlink">
    <title>编组 18备份</title>
    <g id="#22822_240313" stroke="none" stroke-width="1" fill="none" fill-rule="evenodd">
        <g id="3.成功保存指标，目录增加自定义指标，鼠标移入出编辑" transform="translate(-192.000000, -183.000000)">
            <g id="编组-29备份" transform="translate(0.000000, 62.000000)">
                <g id="编组-7" transform="translate(12.000000, 46.000000)">
                    <g id="编组-8" transform="translate(21.500000, 20.000000)">
                        <g id="编组-18备份-7" transform="translate(158.500000, 55.000000)">
                            <rect id="矩形" fill="#D8D8D8" opacity="0" x="0" y="0" width="12" height="12" rx="1"></rect>
                            <g id="ico_zixuan_piliangshanchu" transform="translate(1.000000, 0.000000)" fill="#434343" fill-rule="nonzero">
                                <path d="M6.28774273,8.24917689 L6.28774273,3.92951212 C6.28774273,3.42577073 7.07548546,3.42577073 7.07548546,3.92951212 L7.07548546,8.25082311 C7.07548546,8.7545645 6.28774273,8.7545645 6.28774273,8.25082311 L6.28774273,8.24917689 Z M3.92451454,8.24917689 L3.92451454,3.92951212 C3.92451454,3.42577073 4.71225727,3.42577073 4.71225727,3.92951212 L4.71225727,8.25082311 C4.71225727,8.7545645 3.92451454,8.7545645 3.92451454,8.25082311 L3.92451454,8.24917689 Z M10.6215625,1.96475606 L8.65179407,1.96475606 L8.65179407,1.17868902 C8.65179407,0.5284346 8.12251656,0 7.48211546,0 L3.53105474,0 C2.87748344,0 2.34820593,0.527611494 2.34820593,1.17868902 L2.34820593,1.96475606 L0.378437535,1.96475606 C-0.126145845,1.96475606 -0.126145845,2.75 0.378437535,2.75 L10.6215625,2.75 C11.1261458,2.75 11.1261458,1.96475606 10.6215625,1.96475606 L10.6215625,1.96475606 Z M3.1367718,1.17868902 C3.1367718,0.969619874 3.32115464,0.785243939 3.5302316,0.785243939 L7.48129233,0.785243939 C7.58504776,0.784036385 7.68475272,0.825459409 7.75710551,0.899832181 C7.8294583,0.974204953 7.86811863,1.07501018 7.86405133,1.17868902 L7.86405133,1.96475606 L3.1367718,1.96475606 L3.1367718,1.17868902 Z M8.25751113,11 L2.74248887,11 C2.08974071,11 1.5604632,10.4723885 1.5604632,9.82131098 L1.5604632,3.92868902 C1.5604632,3.69574978 1.74566917,3.53606705 1.95474614,3.53606705 C2.1638231,3.53606705 2.34820593,3.69574978 2.34820593,3.92868902 L2.34820593,9.82213409 C2.34820593,10.029557 2.53341191,10.213933 2.74248887,10.213933 L8.25751113,10.213933 C8.47227904,10.2083542 8.64531651,10.0360456 8.65179407,9.82131098 L8.65179407,3.94103562 C8.65179407,3.42494762 9.4395368,3.42494762 9.4395368,3.94103562 L9.4395368,9.82131098 C9.4395368,10.4715654 8.91025929,11 8.25751113,11 Z" id="形状"></path>
                            </g>
                        </g>
                    </g>
                </g>
            </g>
        </g>
    </g>
</svg>