<?xml version="1.0" encoding="UTF-8"?>
<svg width="12px" height="12px" viewBox="0 0 12 12" version="1.1" xmlns="http://www.w3.org/2000/svg" xmlns:xlink="http://www.w3.org/1999/xlink">
    <title>编组</title>
    <g id="#22822_240313" stroke="none" stroke-width="1" fill="none" fill-rule="evenodd">
        <g id="4.自定义指标说明" transform="translate(-172.000000, -183.000000)" fill="#0171F6" fill-rule="nonzero">
            <g id="编组-29备份" transform="translate(0.000000, 62.000000)">
                <g id="编组-7" transform="translate(12.000000, 46.000000)">
                    <g id="编组-8" transform="translate(21.500000, 20.000000)">
                        <g id="编组" transform="translate(138.500000, 55.000000)">
                            <path d="M10.3216535,1.12447877 C10.4207137,1.02191418 10.5674069,0.980780484 10.7053515,1.01688745 C10.8432961,1.05299442 10.9510246,1.16072296 10.9871316,1.29866753 C11.0232385,1.43661211 10.9821049,1.58330532 10.8795403,1.68236551 L5.30027831,7.26175897 C5.14618583,7.41585145 4.89635255,7.41585145 4.74226007,7.26175897 C4.58816758,7.10766648 4.58816758,6.8578332 4.74226007,6.70374072 L10.3216535,1.12461028 L10.3216535,1.12447877 Z M10.2060518,5.21735789 C10.2060518,4.99945666 10.3826957,4.82281281 10.6005969,4.82281281 C10.8184981,4.82281281 10.995142,4.99945666 10.995142,5.21735789 L10.995142,9.55735375 C10.995142,10.3563075 10.3474305,11.004019 9.54847669,11.004019 L2.44666528,11.004019 C1.6477115,11.004019 1,10.3563075 1,9.55735375 L1,2.45554235 C1,1.65658856 1.6477115,1.00887706 2.44666528,1.00887706 L6.65514611,1.00887706 C6.87304734,1.00887706 7.04969119,1.18552091 7.04969119,1.40342214 C7.04969119,1.62132337 6.87304734,1.79796722 6.65514611,1.79796722 L2.44666528,1.79796722 C2.08349657,1.79796722 1.78909016,2.09237363 1.78909016,2.45554235 L1.78909016,9.55735375 C1.78909016,9.92052247 2.08349657,10.2149289 2.44666528,10.2149289 L9.54847669,10.2149289 C9.9116454,10.2149289 10.2060518,9.92052247 10.2060518,9.55735375 L10.2060518,5.21735789 Z" id="形状"></path>
                        </g>
                    </g>
                </g>
            </g>
        </g>
    </g>
</svg>