<?xml version="1.0" encoding="UTF-8"?>
<svg width="10px" height="10px" viewBox="0 0 10 10" version="1.1" xmlns="http://www.w3.org/2000/svg" xmlns:xlink="http://www.w3.org/1999/xlink">
    <title>编组</title>
    <g id="#22822_240313" stroke="none" stroke-width="1" fill="none" fill-rule="evenodd">
        <g id="12.指标筛选弹框" transform="translate(-588.000000, -173.000000)" fill="#0171F6" fill-rule="nonzero">
            <g id="编组-15" transform="translate(240.000000, 80.000000)">
                <g id="编组-7" transform="translate(24.000000, 60.000000)">
                    <g id="编组-22备份-9" transform="translate(0.000000, 29.000000)">
                        <g id="编组-34" transform="translate(324.000000, 0.000000)">
                            <g id="编组" transform="translate(0.000000, 4.000000)">
                                <path d="M4.91470516,0.00690606808 C4.62801909,0.0539574183 4.41589608,0.299133846 4.41056152,0.589606347 L4.41056152,4.41039365 L0.589774218,4.41039365 C0.26646437,4.41592941 0.0057036299,4.67669015 0.000167870548,5 L0.00707393862,5.0854627 C0.0502369271,5.36515884 0.300582221,5.58960635 0.589774218,5.58960635 L4.41056152,5.5887431 L4.41056152,9.41039364 C4.41056152,9.7280732 4.68248832,10 5.00016787,10 L5.08563057,9.99309392 C5.37231665,9.94604258 5.58443966,9.70086615 5.58977422,9.41039364 L5.58891097,5.5887431 L9.41056151,5.5887431 C9.73354266,5.58322127 9.99417282,5.3229727 10.0001679,5 L9.99326179,4.91453729 C9.94621044,4.62785122 9.70103401,4.41572821 9.41056151,4.41039365 L5.58891097,4.41039365 L5.58891097,0.589606347 C5.5834037,0.266953349 5.32366658,0.00645342686 5.00103112,0 L4.91556842,0.00690606808 L4.91470516,0.00690606808 Z" id="路径"></path>
                            </g>
                        </g>
                    </g>
                </g>
            </g>
        </g>
    </g>
</svg>