<?xml version="1.0" encoding="UTF-8"?>
<svg width="14px" height="14px" viewBox="0 0 14 14" version="1.1" xmlns="http://www.w3.org/2000/svg" xmlns:xlink="http://www.w3.org/1999/xlink">
    <title>html-filled</title>
    <g id="页面-1" stroke="none" stroke-width="1" fill="none" fill-rule="evenodd">
        <g id="招拍挂-宗地详情" transform="translate(-1055.000000, -79.000000)">
            <g id="html-filled" transform="translate(1055.000000, 79.000000)">
                <path d="M12.1275,3.15 L9.45,0.4725 C9.135,0.1575 8.74125,0 8.3475,0 L3.15,0 C2.28375,0 1.575,0.70875 1.575,1.575 L1.575,12.285 C1.575,13.15125 2.28375,13.86 3.15,13.86 L11.025,13.86 C11.89125,13.86 12.6,13.15125 12.6,12.285 L12.6,4.2525 C12.6,3.85875 12.4425,3.465 12.1275,3.15 Z M8.6625,0.86625 C8.74125,0.86625 8.82,0.945 8.89875,1.02375 L11.57625,3.70125 C11.655,3.78 11.655,3.85875 11.73375,3.9375 L8.6625,3.9375 L8.6625,0.86625 Z M11.8125,12.3009961 C11.8125,12.7734961 11.4975,13.0884961 11.025,13.0884961 L3.15,13.0884961 C2.6775,13.0884961 2.3625,12.7734961 2.3625,12.3009961 L2.3625,1.575 C2.3625,1.1025 2.6775,0.7875 3.15,0.7875 L7.875,0.7875 L7.875,4.33125 C7.875,4.5675 8.0325,4.725 8.26875,4.725 L11.8125,4.725 L11.8125,12.3009961 Z" id="形状" fill="#CCCCCC" fill-rule="nonzero"></path>
                <rect id="矩形" fill="#6EC0FF" x="0" y="6.3" width="13.86" height="5.67"></rect>
                <path d="M2.28116,10.3444444 L2.28116,9.09004444 L3.74724,9.09004444 L3.74724,10.3444444 L4.17452,10.3444444 L4.17452,7.54556444 L3.74724,7.54556444 L3.74724,8.72548444 L2.28116,8.72548444 L2.28116,7.54556444 L1.85388,7.54556444 L1.85388,10.3444444 L2.28116,10.3444444 Z M5.86796,10.3444444 L5.86796,7.91012444 L6.80092,7.91012444 L6.80092,7.54556444 L4.50772,7.54556444 L4.50772,7.91012444 L5.4446,7.91012444 L5.4446,10.3444444 L5.86796,10.3444444 Z M7.56532,10.3444444 L7.56532,8.34524444 L7.581,8.34524444 L8.43948,10.3444444 L8.80796,10.3444444 L9.66644,8.34524444 L9.68212,8.34524444 L9.68212,10.3444444 L10.1094,10.3444444 L10.1094,7.54556444 L9.60372,7.54556444 L8.63156,9.78780444 L8.6198,9.78780444 L7.64372,7.54556444 L7.13804,7.54556444 L7.13804,10.3444444 L7.56532,10.3444444 Z M12.62212,10.3444444 L12.62212,9.97988444 L11.08156,9.97988444 L11.08156,7.54556444 L10.6582,7.54556444 L10.6582,10.3444444 L12.62212,10.3444444 Z" id="HTML" fill="#FFFFFF" fill-rule="nonzero"></path>
            </g>
        </g>
    </g>
</svg>