<?xml version="1.0" encoding="UTF-8"?>
<svg width="16px" height="16px" viewBox="0 0 16 16" version="1.1" xmlns="http://www.w3.org/2000/svg" xmlns:xlink="http://www.w3.org/1999/xlink">
    <!-- Generator: Sketch 64 (93537) - https://sketch.com -->
    <title>jiangpai</title>
    <desc>Created with Sketch.</desc>
    <g id="页面-1" stroke="none" stroke-width="1" fill="none" fill-rule="evenodd">
        <g id="04榜单明细弹窗（有排名）" transform="translate(-261.000000, -221.000000)">
            <g id="编组-3" transform="translate(172.000000, 149.000000)">
                <g id="编组-4备份" transform="translate(89.000000, 6.000000)">
                    <g id="编组-4">
                        <g id="编组-21" transform="translate(0.000000, 66.000000)">
                            <g id="编组-13">
                                <g id="jiangpai">
                                    <path d="M2.95820251,6.17150706 L6.15188383,9.36518838 L12.1075353,3.40953689 C12.2350863,3.28198587 12.3037677,3.10864731 12.2988619,2.92876766 L12.2416274,0.654107797 C12.2318158,0.297619048 11.9407378,0.0147174254 11.5842491,0.0147174254 L9.38481162,0.0163526949 C9.21147305,0.0163526949 9.04467556,0.0850340136 8.92203035,0.209314495 L2.95820251,6.17150706 Z" id="路径" fill="#005ACF" fill-rule="nonzero"></path>
                                    <path d="M9.3537415,6.17314233 L6.16006018,9.36845892 L0.202773417,3.41117216 C0.0752223967,3.28362114 0.00654107797,3.11028257 0.0114468864,2.93040293 L0.0686813187,0.654107797 C0.0784929356,0.297619048 0.369570905,0.0147174254 0.726059655,0.0147174254 L2.92713239,0.0179879644 C3.10047096,0.0179879644 3.26726845,0.0866692831 3.39154893,0.210949765 L9.3537415,6.17314233 Z" id="路径" fill="#3986FE" fill-rule="nonzero"></path>
                                    <path d="M0.729330194,10.2253401 C0.729330194,13.2244244 3.16097593,15.6560701 6.16006018,15.6560701 C9.15914443,15.6560701 11.5907902,13.2244244 11.5907902,10.2253401 C11.5907902,7.22625589 9.1607797,4.79461015 6.16169545,4.79461015 C3.1626112,4.79461015 0.729330194,7.22625589 0.729330194,10.2253401 Z" id="路径" fill="#EAEAEA" fill-rule="nonzero"></path>
                                    <path d="M8.28918106,8.33823914 L9.8574045,10.4379252 C9.86067504,10.3676086 9.86394558,10.2956567 9.86394558,10.2253401 C9.86394558,8.179618 8.20578231,6.52145474 6.16006018,6.52145474 C4.11433804,6.52145474 2.45781005,8.179618 2.45781005,10.2253401 C2.45781005,11.9734432 3.67118001,13.4386447 5.29827316,13.8278388 L3.73659079,11.741235 L8.28918106,8.33823914 Z" id="路径" fill="#CBCBCB" fill-rule="nonzero"></path>
                                    <path d="M9.8574045,10.4379252 C9.74620617,12.3855311 8.13383046,13.9275903 6.16006018,13.9275903 C5.86244113,13.9275903 5.5746337,13.8932496 5.29827316,13.8262036 L6.64900576,15.6348116 C8.72252747,15.4500262 10.4624542,14.0992936 11.2032313,12.2416274 L9.8574045,10.4379252 L9.8574045,10.4379252 Z" id="路径" fill="#DADADA" fill-rule="nonzero"></path>
                                    <path d="M9.8574045,10.4379252 L8.28918106,8.33823914 L3.73822606,11.7395997 L5.29827316,13.8262036 C5.57626897,13.8916143 5.86244113,13.9275916 6.16006018,13.9275916 C8.13546572,13.9292255 9.74784144,12.3855311 9.8574045,10.4379252 L9.8574045,10.4379252 Z" id="路径" fill="#BFBEBC" fill-rule="nonzero"></path>
                                    <path d="M3.35664336,10.1115551 C3.35664336,11.1254222 3.89791756,12.0640669 4.77605728,12.5710004 C5.65419699,13.077934 6.7367454,13.077934 7.61488511,12.5710004 C8.49302483,12.0640669 9.03429903,11.1270575 9.03429903,10.1115551 C9.03429903,8.54333167 7.76369464,7.27272727 6.1954712,7.27272727 C4.62724775,7.27272727 3.35664336,8.54333167 3.35664336,10.1115551 L3.35664336,10.1115551 Z" id="路径" fill="#EAEAEA" fill-rule="nonzero"></path>
                                    <polygon id="星形" fill="#BDBBBB" points="6.15384615 11.1888112 4.83852251 11.8803177 5.08972697 10.4156834 4.0256078 9.37842351 5.49618433 9.16473623 6.15384615 7.83216783 6.81150797 9.16473623 8.28208451 9.37842351 7.21796533 10.4156834 7.4691698 11.8803177"></polygon>
                                </g>
                            </g>
                        </g>
                    </g>
                </g>
            </g>
        </g>
    </g>
</svg>