<?xml version="1.0" encoding="UTF-8"?>
<svg width="12px" height="12px" viewBox="0 0 12 12" version="1.1" xmlns="http://www.w3.org/2000/svg" xmlns:xlink="http://www.w3.org/1999/xlink">
    <title>Content_icon_gengduo_zt</title>
    <g id="区域融资" stroke="none" stroke-width="1" fill="none" fill-rule="evenodd">
        <g id="5-0租赁融资表格" transform="translate(-976.000000, -387.000000)" fill="#0171F6" fill-rule="nonzero">
            <g id="更多icon备份-2" transform="translate(976.000000, 387.000000)">
                <path d="M10,0.5 C11.1045695,0.5 12,1.43656673 12,2.59188034 L12,9.40811966 C12,10.5634333 11.1045695,11.5 10,11.5 L2,11.5 C0.8954305,11.5 0,10.5634333 0,9.40811966 L0,2.59188034 C0,1.43656673 0.8954305,0.5 2,0.5 L10,0.5 Z M10,1.02297009 L2,1.02297009 C1.22030388,1.02297009 0.579551322,1.64518743 0.506866578,2.44078381 L0.5,2.59188034 L0.5,9.40811966 C0.5,10.2236351 1.09488808,10.893824 1.85553999,10.9698479 L2,10.9770299 L10,10.9770299 C10.7796961,10.9770299 11.4204487,10.3548126 11.4931334,9.55921619 L11.5,9.40811966 L11.5,2.59188034 C11.5,1.77636485 10.9051119,1.10617601 10.14446,1.03015212 L10,1.02297009 Z" id="矩形"></path>
                <path d="M8.8385685,4.04745262 C8.92863147,3.94254999 9.08695752,3.93028455 9.19219964,4.02005699 C9.27993991,4.09486736 9.3030636,4.21692973 9.2562284,4.31624666 L9.21968393,4.37254738 L6.20997519,7.87816536 C6.12416781,7.97811121 5.97900481,7.99238919 5.87623868,7.9209993 L5.82885976,7.87816536 L2.81915102,4.37254738 C2.72908806,4.26764476 2.74139319,4.10982943 2.84663531,4.02005699 C2.93433708,3.94524662 3.05890269,3.94129589 3.15010817,4.00276459 L3.20026645,4.04745262 L6.01941748,7.332 L8.8385685,4.04745262 Z" id="路径-4" transform="translate(6.019422, 5.962807) scale(1, -1) translate(-6.019422, -5.962807) "></path>
            </g>
        </g>
    </g>
</svg>