<?xml version="1.0" encoding="UTF-8"?>
<svg width="14px" height="14px" viewBox="0 0 14 14" version="1.1" xmlns="http://www.w3.org/2000/svg" xmlns:xlink="http://www.w3.org/1999/xlink">
    <title>放大</title>
    <g id="页面-1" stroke="none" stroke-width="1" fill="none" fill-rule="evenodd" fill-opacity="0.25">
        <g id="05企业偿债压力" transform="translate(-634.000000, -232.000000)" fill="#000000" fill-rule="nonzero">
            <g id="编组-6" transform="translate(235.000000, 229.000000)">
                <g id="放大" transform="translate(399.500000, 3.500000)">
                    <path d="M0,8.032375 L0,1.532375 C0,0.687375 0.684125,0 1.529125,0 L11.470875,0 C12.315875,0 13,0.6849375 13,1.529125 L13,11.470875 C13,12.315875 12.3150625,13 11.470875,13 L1.529125,13 C0.684612582,13 0,12.3153874 0,11.470875 L0,8.032375 Z M5.5826875,9.75975 L3.895125,9.75975 L5.59325,8.0624375 C5.76280761,7.87519422 5.75560307,7.58784271 5.57687518,7.40933172 C5.39814729,7.23082074 5.11078724,7.22396514 4.92375,7.39375 L3.24025,9.07725 L3.24025,7.38075 C3.23987274,7.12352552 3.03428581,6.91361044 2.777125,6.90785771 C2.64886079,6.90678629 2.52551036,6.95714631 2.43465804,7.04769324 C2.34380572,7.13824018 2.29303067,7.26142036 2.29368121,7.3896875 L2.29368121,10.2236875 C2.29368121,10.489375 2.509,10.7055 2.7755,10.7055 L5.59325,10.7055 C5.85047448,10.7051227 6.06038956,10.4995358 6.06612777,10.242375 C6.06656001,10.114101 6.01574012,9.99096711 5.92495995,9.90033951 C5.83417978,9.80971192 5.71096056,9.75909922 5.5826875,9.75975 L5.5826875,9.75975 Z M10.226125,2.2936875 L7.40675,2.2936875 C7.14921641,2.29407468 6.93917558,2.50014568 6.93386389,2.757625 C6.93300241,2.88589062 6.98357001,3.00915582 7.07426959,3.09985541 C7.16496918,3.19055499 7.28823438,3.24112259 7.4165,3.24025 L9.1040625,3.24025 L7.40675,4.9375625 C7.24264817,5.12559585 7.25225411,5.40861094 7.42872783,5.58508467 C7.60520156,5.76155839 7.88821665,5.77116433 8.07625,5.6070625 L9.75975,3.92275 L9.75975,5.617625 C9.75975,5.8751875 9.966125,6.085625 10.222875,6.09132361 C10.3511406,6.09218509 10.4744058,6.04161749 10.5651054,5.95091791 C10.655805,5.86021832 10.7063726,5.73695312 10.7055111,5.6086875 L10.7055111,2.773875 C10.7055111,2.5091235 10.4908765,2.2945 10.226125,2.2945 L10.226125,2.2936875 Z" id="形状"></path>
                </g>
            </g>
        </g>
    </g>
</svg>