<?xml version="1.0" encoding="UTF-8"?>
<svg width="13px" height="13px" viewBox="0 0 13 13" version="1.1" xmlns="http://www.w3.org/2000/svg" xmlns:xlink="http://www.w3.org/1999/xlink">
    <title>icon_qygy_kh备份</title>
    <g id="区域融资" stroke="none" stroke-width="1" fill="none" fill-rule="evenodd">
        <g id="6-4区域融资-租赁融资上推" transform="translate(-234.000000, -372.000000)">
            <g id="编组-33" transform="translate(234.000000, 368.000000)">
                <g id="编组-72" transform="translate(0.000000, 4.000000)">
                    <g id="编组-64备份" transform="translate(1.500000, 1.500000)">
                        <polyline id="路径" stroke="#5693FF" stroke-width="0.9" stroke-linecap="round" stroke-linejoin="round" points="0 4 5 0 10 4"></polyline>
                        <polyline id="路径" stroke="#5693FF" stroke-width="0.9" stroke-linecap="round" stroke-linejoin="round" points="9 5 9 10 1 10 1 5"></polyline>
                        <polygon id="出" fill="#98BCFD" fill-rule="nonzero" points="6.29 5.505 5.245 5.505 5.245 3.8 4.755 3.8 4.755 5.505 3.71 5.505 3.71 4.18 3.23 4.18 3.23 5.965 4.755 5.965 4.755 7.69 3.46 7.69 3.46 6.365 2.985 6.365 2.985 8.385 3.46 8.385 3.46 8.145 6.54 8.145 6.54 8.385 7.015 8.385 7.015 6.365 6.54 6.365 6.54 7.69 5.245 7.69 5.245 5.965 6.77 5.965 6.77 4.18 6.29 4.18"></polygon>
                    </g>
                </g>
            </g>
        </g>
    </g>
</svg>