<?xml version="1.0" encoding="UTF-8"?>
<svg width="13px" height="13px" viewBox="0 0 13 13" version="1.1" xmlns="http://www.w3.org/2000/svg" xmlns:xlink="http://www.w3.org/1999/xlink">
    <title>icon_qygy_kh</title>
    <g id="区域融资" stroke="none" stroke-width="1" fill="none" fill-rule="evenodd">
        <g id="6-2区域融资-租赁融资" transform="translate(-234.000000, -145.000000)">
            <g id="编组-10" transform="translate(234.000000, 141.000000)">
                <g id="编组-66" transform="translate(0.000000, 4.000000)">
                    <g id="编组-64" transform="translate(1.500000, 1.500000)">
                        <polyline id="路径" stroke="#5693FF" stroke-width="0.9" stroke-linecap="round" stroke-linejoin="round" points="0 4 5 0 10 4"></polyline>
                        <polyline id="路径" stroke="#5693FF" stroke-width="0.9" stroke-linecap="round" stroke-linejoin="round" points="9 5 9 10 1 10 1 5"></polyline>
                        <g id="承" transform="translate(2.700000, 4.060000)" fill="#98BCFD" fill-rule="nonzero">
                            <path d="M0.85,0 L0.85,0.45 L3.06,0.45 C2.84,0.56 2.535,0.7 2.15,0.87 L2.15,1.335 L1.505,1.335 L1.505,1.77 L2.15,1.77 L2.15,2.13 L1.4,2.13 L1.4,2.57 L2.15,2.57 L2.15,2.93 L1.22,2.93 L1.22,3.38 L2.15,3.38 L2.15,3.835 C2.15,3.965 2.105,4.03 2.015,4.03 C1.825,4.03 1.645,4.025 1.485,4.015 L1.605,4.455 L2.185,4.455 C2.475,4.455 2.625,4.3 2.625,3.995 L2.625,3.38 L3.515,3.38 L3.515,2.93 L2.625,2.93 L2.625,2.57 L3.3,2.57 L3.3,2.13 L2.625,2.13 L2.625,1.77 L3.205,1.77 L3.205,1.335 L2.625,1.335 L2.625,1.085 C3.05,0.88 3.435,0.67 3.775,0.45 L3.775,0 L0.85,0 Z M4.28,1.07 C4.185,1.26 4.085,1.425 3.985,1.56 C3.94,1.615 3.895,1.665 3.85,1.715 C3.82,1.495 3.81,1.265 3.81,1.03 L3.375,1.03 C3.375,2.265 3.69,3.315 4.315,4.185 L4.65,3.85 C4.29,3.37 4.05,2.815 3.925,2.18 C4.08,2.06 4.205,1.945 4.305,1.835 C4.43,1.695 4.55,1.52 4.67,1.31 L4.28,1.07 Z M0.11,1.19 L0.11,1.64 L0.88,1.64 C0.795,2.56 0.5,3.285 0,3.825 L0.305,4.195 C0.905,3.575 1.24,2.71 1.3,1.6 L1.3,1.19 L0.11,1.19 Z"></path>
                        </g>
                    </g>
                </g>
            </g>
        </g>
    </g>
</svg>