<?xml version="1.0" encoding="UTF-8"?>
<svg width="13px" height="13px" viewBox="0 0 13 13" version="1.1" xmlns="http://www.w3.org/2000/svg" xmlns:xlink="http://www.w3.org/1999/xlink">
    <title>编组 3</title>
    <g id="页面-1" stroke="none" stroke-width="1" fill="none" fill-rule="evenodd">
        <g id="05企业偿债压力" transform="translate(-494.000000, -271.000000)">
            <g id="编组-13" transform="translate(234.000000, 171.013861)">
                <g id="编组-9" transform="translate(1.000000, 89.986139)">
                    <g id="编组-9备份-26" transform="translate(259.000000, 7.000000)">
                        <g id="编组-3" transform="translate(0.000000, 3.000000)">
                            <circle id="椭圆形" stroke="#FF5957" stroke-width="0.816666667" cx="6.5" cy="6.5" r="5.00833333"></circle>
                            <circle id="椭圆形" fill="#FF5957" cx="6.5" cy="6.3" r="2"></circle>
                            <rect id="矩形" fill="#FF5957" x="5.95833333" y="0" width="1.08333333" height="2.16666667" rx="0.541666667"></rect>
                            <rect id="矩形备份-2" fill="#FF5957" x="5.95833333" y="10.8333333" width="1.08333333" height="2.16666667" rx="0.541666667"></rect>
                            <path d="M11.9166667,5.41666667 C12.2158209,5.41666667 12.4583333,5.65917909 12.4583333,5.95833333 L12.4583333,7.04166667 C12.4583333,7.34082091 12.2158209,7.58333333 11.9166667,7.58333333 C11.6175124,7.58333333 11.375,7.34082091 11.375,7.04166667 L11.375,5.95833333 C11.375,5.65917909 11.6175124,5.41666667 11.9166667,5.41666667 Z" id="矩形" fill="#FF5957" transform="translate(11.916667, 6.500000) rotate(-270.000000) translate(-11.916667, -6.500000) "></path>
                            <path d="M1.08333333,5.41666667 C1.38248757,5.41666667 1.625,5.65917909 1.625,5.95833333 L1.625,7.04166667 C1.625,7.34082091 1.38248757,7.58333333 1.08333333,7.58333333 C0.784179094,7.58333333 0.541666667,7.34082091 0.541666667,7.04166667 L0.541666667,5.95833333 C0.541666667,5.65917909 0.784179094,5.41666667 1.08333333,5.41666667 Z" id="矩形备份-2" fill="#FF5957" transform="translate(1.083333, 6.500000) rotate(-270.000000) translate(-1.083333, -6.500000) "></path>
                        </g>
                    </g>
                </g>
            </g>
        </g>
    </g>
</svg>