<?xml version="1.0" encoding="UTF-8"?>
<svg width="12px" height="12px" viewBox="0 0 12 12" version="1.1" xmlns="http://www.w3.org/2000/svg" xmlns:xlink="http://www.w3.org/1999/xlink">
    <title>加</title>
    <g id="页面-1" stroke="none" stroke-width="1" fill="none" fill-rule="evenodd">
        <g id="01-地区简介浮窗（超过10行显示展开备份" transform="translate(-9.000000, -141.000000)">
            <g id="加" transform="translate(9.000000, 141.000000)">
                <rect id="矩形备份-5" x="0" y="0" width="12" height="12" rx="1"></rect>
                <rect id="矩形" stroke="#D5D5D5" stroke-width="0.5" x="0.25" y="1.25" width="10.5" height="10.5" rx="1"></rect>
                <path d="M5.5,3.00540924 C5.77614237,3.00540924 6,3.22926687 6,3.50540924 L6,5.99940924 L8.50061035,6 C8.77675273,6 9.00061035,6.22385763 9.00061035,6.5 C9.00061035,6.77614237 8.77675273,7 8.50061035,7 L6,6.99940924 L6,9.52747726 C6,9.80361964 5.77614237,10.0274773 5.5,10.0274773 C5.22385763,10.0274773 5,9.80361964 5,9.52747726 L5,6.99940924 L2.5,7 C2.22385763,7 2,6.77614237 2,6.5 C2,6.22385763 2.22385763,6 2.5,6 L5,5.99940924 L5,3.50540924 C5,3.22926687 5.22385763,3.00540924 5.5,3.00540924 Z" id="形状结合" fill="#979797"></path>
            </g>
        </g>
    </g>
</svg>
