<?xml version="1.0" encoding="UTF-8"?>
<svg width="32px" height="14px" viewBox="0 0 32 14" version="1.1" xmlns="http://www.w3.org/2000/svg" xmlns:xlink="http://www.w3.org/1999/xlink">
    <title>不适用</title>
    <g id="页面-1" stroke="none" stroke-width="1" fill="none" fill-rule="evenodd">
        <g id="目录-我的收藏" transform="translate(-148.000000, -296.000000)">
            <g id="编组-29" transform="translate(60.000000, 97.000000)">
                <g id="编组-94备份" transform="translate(20.000000, 199.000000)">
                    <g id="不适用" transform="translate(68.000000, 0.000000)">
                        <rect id="矩形" stroke="#DFDFDF" stroke-width="0.5" fill="#FFFFFF" x="0.25" y="0.25" width="31.5" height="13.5" rx="1"></rect>
                        <path d="M8.224,10.8 L8.224,5.376 C8.416,5.056 8.592,4.72 8.744,4.368 L11.36,4.368 L11.36,3.944 L4.64,3.944 L4.64,4.368 L8.264,4.368 C7.56,5.912 6.28,7.232 4.416,8.32 L4.704,8.688 C5.992,7.92 7.016,7.04 7.776,6.032 L7.776,10.8 L8.224,10.8 Z M11.248,8.64 L11.584,8.304 C10.944,7.552 10.16,6.808 9.224,6.064 L8.92,6.368 C9.896,7.168 10.672,7.92 11.248,8.64 Z M18.856,9.528 L18.856,7.28 L17.304,7.28 L17.304,6.192 L19.448,6.192 L19.448,5.784 L17.304,5.784 L17.304,4.432 C17.992,4.32 18.592,4.144 19.12,3.92 L18.92,3.568 C17.848,3.992 16.472,4.208 14.792,4.216 L14.92,4.608 C15.624,4.608 16.28,4.568 16.888,4.488 L16.888,5.784 L14.76,5.784 L14.76,6.192 L16.888,6.192 L16.888,7.28 L15.336,7.28 L15.336,9.528 L18.856,9.528 Z M14.008,5.144 L14.312,4.848 C13.944,4.424 13.488,4 12.944,3.576 L12.64,3.864 C13.216,4.312 13.672,4.744 14.008,5.144 Z M12.776,10.792 C13.256,10.04 13.608,9.664 13.832,9.664 C13.928,9.664 14.024,9.728 14.136,9.864 C14.392,10.16 14.672,10.36 14.984,10.456 C15.296,10.536 15.712,10.584 16.232,10.6 C16.744,10.608 17.216,10.616 17.656,10.616 L19.536,10.616 L19.632,10.208 C19.424,10.216 19.128,10.224 18.744,10.232 L17.592,10.24 L17.592,10.24 C16.968,10.24 16.448,10.232 16.048,10.224 C15.576,10.208 15.208,10.144 14.952,10.04 C14.712,9.928 14.496,9.752 14.296,9.512 C14.208,9.408 14.12,9.336 14.04,9.288 L14.04,6.296 L12.448,6.296 L12.448,6.712 L13.632,6.712 L13.632,9.272 C13.296,9.384 12.896,9.792 12.448,10.496 L12.776,10.792 Z M18.44,9.136 L15.744,9.136 L15.744,7.672 L18.44,7.672 L18.44,9.136 Z M20.688,10.696 C21.208,10.024 21.512,9.168 21.592,8.128 L23.816,8.128 L23.816,10.512 L24.248,10.512 L24.248,8.128 L26.592,8.128 L26.592,9.656 C26.592,10.016 26.424,10.2 26.096,10.2 C25.824,10.2 25.528,10.192 25.208,10.176 L25.32,10.6 L26.24,10.6 C26.76,10.6 27.024,10.336 27.024,9.816 L27.024,3.832 L21.184,3.832 L21.184,7.624 C21.168,8.744 20.896,9.672 20.368,10.4 L20.688,10.696 Z M26.592,5.784 L24.248,5.784 L24.248,4.256 L26.592,4.256 L26.592,5.784 Z M23.816,5.784 L21.624,5.784 L21.624,4.256 L23.816,4.256 L23.816,5.784 Z M23.816,7.72 L21.616,7.72 C21.616,7.672 21.624,7.632 21.624,7.592 L21.624,6.184 L23.816,6.184 L23.816,7.72 Z M26.592,7.72 L24.248,7.72 L24.248,6.184 L26.592,6.184 L26.592,7.72 Z" fill="#5C5C5C" fill-rule="nonzero"></path>
                    </g>
                </g>
            </g>
        </g>
    </g>
</svg>