<?xml version="1.0" encoding="UTF-8"?>
<svg width="10px" height="10px" viewBox="0 0 10 10" version="1.1" xmlns="http://www.w3.org/2000/svg" xmlns:xlink="http://www.w3.org/1999/xlink">
    <title>编组</title>
    <g id="目录树优化" stroke="none" stroke-width="1" fill="none" fill-rule="evenodd">
        <g id="企业速览优化" transform="translate(-24.000000, -136.000000)" fill="#BBBBBB" fill-rule="nonzero">
            <g id="目录树" transform="translate(0.000000, 102.000000)">
                <g id="编组-33" transform="translate(10.000000, 8.000000)">
                    <g id="编组" transform="translate(14.000000, 26.000000)">
                        <path d="M3.16666667,6.41666667 C2.52233446,6.41666667 2,6.90169152 2,7.5 C2,8.09830848 2.52233446,8.58333333 3.16666667,8.58333333 C3.81099888,8.58333333 4.33333333,8.09830848 4.33333333,7.5 C4.33333333,6.90169152 3.81099888,6.41666667 3.16666667,6.41666667 Z M3.16666667,1 C2.52233446,1 2,1.48502485 2,2.08333333 C2,2.68164181 2.52233446,3.16666667 3.16666667,3.16666667 C3.81099888,3.16666667 4.33333333,2.68164181 4.33333333,2.08333333 C4.33333333,1.48502485 3.81099888,1 3.16666667,1 Z M7.83333333,6.41666667 C7.18900112,6.41666667 6.66666667,6.90169152 6.66666667,7.5 C6.66666667,8.09830848 7.18900112,8.58333333 7.83333333,8.58333333 C8.47766549,8.58333333 9,8.09830848 9,7.5 C9,6.90169152 8.47766549,6.41666667 7.83333333,6.41666667 Z M7.83333333,1 C7.18900112,1 6.66666667,1.48502485 6.66666667,2.08333333 C6.66666667,2.68164181 7.18900112,3.16666667 7.83333333,3.16666667 C8.47766549,3.16666667 9,2.68164181 9,2.08333333 C9,1.48502485 8.47766549,1 7.83333333,1 Z" id="形状"></path>
                    </g>
                </g>
            </g>
        </g>
    </g>
</svg>