<?xml version="1.0" encoding="UTF-8"?>
<svg width="14px" height="14px" viewBox="0 0 14 14" version="1.1" xmlns="http://www.w3.org/2000/svg" xmlns:xlink="http://www.w3.org/1999/xlink">
    <title>编组 16</title>
    <g id="页面-1" stroke="none" stroke-width="1" fill="none" fill-rule="evenodd">
        <g id="1.AI主页面" transform="translate(-328.000000, -247.000000)" fill="#0D77FF" fill-rule="nonzero">
            <g id="编组-17" transform="translate(328.000000, 245.000000)">
                <g id="编组" transform="translate(1.000000, 3.000000)">
                    <path d="M5.89285714,12 C2.625,12 0,9.32727273 0,6 C0,2.67272727 2.625,0 5.89285714,0 C9.16071429,0 11.7857143,2.67272727 11.7857143,6 C11.7857143,9.32727273 9.16071429,12 5.89285714,12 Z M5.89285714,1.09090909 C3.21428571,1.09090909 1.07142857,3.27272727 1.07142857,6 C1.07142857,8.72727273 3.21428571,10.9090909 5.89285714,10.9090909 C8.57142857,10.9090909 10.7142857,8.72727273 10.7142857,6 C10.7142857,3.27272727 8.57142857,1.09090909 5.89285714,1.09090909 Z" id="形状"></path>
                    <polygon id="路径" points="3.21428571 4.36363636 2.67857143 5.45454545 6.42857143 9.27272727 11.7857143 2.18181818 11.25 1.09090909 5.89285714 6"></polygon>
                    <path d="M6.42857143,9.70909091 L2.30357143,5.50909091 L3.05357143,3.98181818 L5.78571428,5.67272727 L11.25,0.654545449 L12,2.23636364 L6.42857143,9.70909091 Z M2.99999999,5.4 L6.375,8.83636364 L11.4642857,2.12727273 L11.1428571,1.52727273 L5.89285714,6.32727273 L3.32142857,4.74545455 L2.99999999,5.4 Z" id="形状"></path>
                </g>
            </g>
        </g>
    </g>
</svg>