<?xml version="1.0" encoding="UTF-8"?>
<svg width="12px" height="12px" viewBox="0 0 12 12" version="1.1" xmlns="http://www.w3.org/2000/svg" xmlns:xlink="http://www.w3.org/1999/xlink">
    <title>编组</title>
    <g id="#22822_240313" stroke="none" stroke-width="1" fill="none" fill-rule="evenodd">
        <g id="11.区域经济大全-增加自定义指标" transform="translate(-676.000000, -158.000000)" fill="#0171F6" fill-rule="nonzero" stroke="#0171F6" stroke-width="0.1">
            <g id="编组-6" transform="translate(0.000000, 98.000000)">
                <g id="表格" transform="translate(24.000000, 40.000000)">
                    <g id="编组-3" transform="translate(652.000000, 16.000000)">
                        <g id="编组" transform="translate(0.000000, 4.000000)">
                            <path d="M11.2538189,1.13652475 C11.3627851,1.0237037 11.5241476,0.97845663 11.6758866,1.01817429 C11.8276257,1.05789196 11.9461271,1.17639336 11.9858447,1.32813238 C12.0255624,1.47987141 11.9803153,1.64123394 11.8674943,1.75020016 L5.73030614,7.88753296 C5.56080441,8.05703469 5.2859878,8.05703469 5.11648607,7.88753296 C4.94698434,7.71803123 4.94698434,7.44321462 5.11648607,7.27371289 L11.2538189,1.1366694 L11.2538189,1.13652475 Z M11.126657,5.63869178 C11.126657,5.39900043 11.3209652,5.20469219 11.5606566,5.20469219 C11.8003479,5.20469219 11.9946562,5.39900043 11.9946562,5.63869178 L11.9946562,10.4126872 C11.9946562,11.2915364 11.2821735,12.004019 10.4033244,12.004019 L2.59133181,12.004019 C1.71248265,12.004019 1,11.2915364 1,10.4126872 L1,2.60069468 C1,1.72184552 1.71248265,1.00936287 2.59133181,1.00936287 L7.22066072,1.00936287 C7.46035207,1.00936287 7.65466031,1.2036711 7.65466031,1.44336245 C7.65466031,1.68305381 7.46035207,1.87736204 7.22066072,1.87736204 L2.59133181,1.87736204 C2.19184622,1.87736204 1.86799917,2.20120909 1.86799917,2.60069468 L1.86799917,10.4126872 C1.86799917,10.8121728 2.19184622,11.1360199 2.59133181,11.1360199 L10.4033244,11.1360199 C10.8028099,11.1360199 11.126657,10.8121728 11.126657,10.4126872 L11.126657,5.63869178 Z" id="形状"></path>
                        </g>
                    </g>
                </g>
            </g>
        </g>
    </g>
</svg>