<?xml version="1.0" encoding="UTF-8"?>
<svg width="13px" height="13px" viewBox="0 0 13 13" version="1.1" xmlns="http://www.w3.org/2000/svg" xmlns:xlink="http://www.w3.org/1999/xlink">
    <!-- Generator: Sketch 64 (93537) - https://sketch.com -->
    <title>icon_zq_jgcc</title>
    <desc>Created with Sketch.</desc>
    <g id="页面-1" stroke="none" stroke-width="1" fill="none" fill-rule="evenodd">
        <g id="1.地区经济、财政及债务" transform="translate(-268.000000, -230.000000)" fill="#0171F6" fill-rule="nonzero">
            <g id="编组-6" transform="translate(60.000000, 124.000000)">
                <g id="表格" transform="translate(24.000000, 48.000000)">
                    <g id="编组-12" transform="translate(0.000000, 49.000000)">
                        <g id="icon_zq_jgcc" transform="translate(184.000000, 9.000000)">
                            <path d="M10.1536,0 L1.8464,0 C0.8304,0 0,0.90025 0,2.000375 L0,10.999625 C0,12.09975 0.8304,13 1.8464,13 L10.1536,13 C11.1696,13 12,12.09975 12,10.999625 L12,2.000375 C12,0.90025 11.1696,0 10.1536,0 Z M11.0768,10.999625 C11.0768,11.5496875 10.6608,11.9998125 10.1536,11.9998125 L1.8464,11.9998125 C1.3384,11.9998125 0.9232,11.5496875 0.9232,11.0004375 L0.9232,1.9995625 C0.9232,1.4495 1.3392,0.999375 1.8464,0.999375 L10.1536,0.999375 C10.6616,0.999375 11.0768,1.4495 11.0768,1.99875 L11.0768,10.9988125 L11.0768,10.999625 Z" id="形状"></path>
                            <path d="M2.59906396,7 L7.399896,7 C7.73582943,7 8,6.7804878 8,6.5 C8,6.2195122 7.73582943,6 7.399896,6 L2.59906396,6 C2.26313053,6 2,6.2195122 2,6.5 C2,6.7804878 2.26313053,7 2.59906396,7 Z M9.42942051,3 L2.57057949,3 C2.25061912,3 2,3.22014622 2,3.50040617 C2,3.77985378 2.25061912,4 2.57057949,4 L9.42942051,4 C9.74938088,4 10,3.78066613 10,3.50040617 C10,3.22014622 9.74938088,3 9.42942051,3 L9.42942051,3 Z M5.66661852,9 L2.3328037,9 C2.1461794,9 2,9.21933387 2,9.49959383 C2,9.77985378 2.1461794,10 2.3328037,10 L5.66661852,10 C5.85324281,10 6,9.77985378 6,9.49959383 C6,9.22014622 5.85324281,9 5.66661852,9 Z" id="形状" opacity="0.403948103"></path>
                        </g>
                    </g>
                </g>
            </g>
        </g>
    </g>
</svg>