<?xml version="1.0" encoding="UTF-8"?>
<svg width="17px" height="16px" viewBox="0 0 17 16" version="1.1" xmlns="http://www.w3.org/2000/svg" xmlns:xlink="http://www.w3.org/1999/xlink">
    <title>编组 11备份</title>
    <g id="设计稿最终版" stroke="none" stroke-width="1" fill="none" fill-rule="evenodd">
        <g id="01目录树样式" transform="translate(-153.000000, -139.000000)">
            <g id="目录树" transform="translate(0.000000, 102.000000)">
                <g id="编组-11备份" transform="translate(153.818799, 37.000000)">
                    <rect id="矩形备份-2" x="0" y="0" width="16" height="16"></rect>
                    <g id="编组-9" transform="translate(1.000000, 4.000000)" fill="#0171F6" fill-rule="nonzero">
                        <path d="M13.7724662,0.302367663 C13.5479646,0.152699907 13.1737952,0.152699907 13.0241274,0.452035436 C10.6294432,3.74472619 6.06457649,4.41823111 2.77188574,2.0983808 C2.02354693,1.57454363 1.42487589,0.97587259 0.975872603,0.227533794 C0.826204847,0.00303215148 0.452035432,-0.0718017352 0.227533789,0.0778660206 C0.00303214676,0.227533776 -0.0718017399,0.601703192 0.0778660334,0.826204834 C0.601703205,1.64937752 1.350042,2.32288244 2.09838081,2.9215535 C2.39771634,3.14605514 2.77188574,3.37055679 3.07122125,3.52022454 L1.64937753,4.94206828 C1.42487589,5.16656993 1.42487589,5.54073932 1.64937753,5.76524097 C1.72421142,5.84007485 1.87387917,5.91490872 2.02354693,5.91490872 C2.17321468,5.91490872 2.32288246,5.84007484 2.39771633,5.76524097 L4.04406171,4.11889558 L4.1188956,4.04406171 C4.86723441,4.34339724 5.61557321,4.493065 6.36391202,4.56789887 L6.36391202,6.66324754 C6.36391202,6.96258307 6.58841366,7.26191858 6.96258306,7.26191858 C7.33675246,7.26191858 7.5612541,7.03741693 7.5612541,6.66324754 L7.5612541,4.493065 C8.23475903,4.41823111 8.83343007,4.34339724 9.50693501,4.19372947 C9.50693501,4.19372947 9.50693501,4.26856336 9.58176888,4.26856336 L11.2281143,5.91490872 C11.3029482,5.98974261 11.4526159,6.06457648 11.6022837,6.0645765 C11.7519514,6.06457651 11.9016192,5.98974261 11.9764531,5.91490872 C12.2009547,5.69040708 12.2009547,5.31623768 11.9764531,5.09173604 L10.6294432,3.74472619 C11.9016192,3.14605514 13.0241274,2.24804858 13.922134,1.05070648 C14.0718017,0.826204834 13.9969679,0.526869305 13.7724662,0.302367663 L13.7724662,0.302367663 Z" id="路径"></path>
                    </g>
                </g>
            </g>
        </g>
    </g>
</svg>