<?xml version="1.0" encoding="UTF-8"?>
<svg width="14px" height="14px" viewBox="0 0 14 14" version="1.1" xmlns="http://www.w3.org/2000/svg" xmlns:xlink="http://www.w3.org/1999/xlink">
    <title>搜索备份 24</title>
    <g id="页面-1" stroke="none" stroke-width="1" fill="none" fill-rule="evenodd">
        <g id="01区域f9_地区经济" transform="translate(-22.000000, -124.000000)" fill-rule="nonzero">
            <g id="编组-48" transform="translate(0.000000, 102.000000)">
                <g id="编组-42" transform="translate(12.000000, 16.000000)">
                    <g id="搜索" transform="translate(10.000000, 6.000000)">
                        <rect id="矩形" fill="#000000" opacity="0" x="0" y="0" width="14" height="14"></rect>
                        <path d="M9.79314971,11.0305866 C8.77064177,11.7963969 7.50079321,12.25 6.125,12.25 C2.74225591,12.25 0,9.50774405 0,6.125 C0,2.74225591 2.74225591,0 6.125,0 C9.50774405,0 12.25,2.74225591 12.25,6.125 C12.25,7.50079321 11.7963969,8.77064177 11.0305866,9.79314971 L12.9337504,11.6963135 C13.2738864,12.0364496 13.2749938,12.5868116 12.9309028,12.9309028 C12.589194,13.2726115 12.0302564,13.2676933 11.6963135,12.9337504 L9.79314971,11.0305866 Z M6.125,10.5 C8.54124578,10.5 10.5,8.54124578 10.5,6.125 C10.5,3.70875422 8.54124578,1.75 6.125,1.75 C3.70875422,1.75 1.75,3.70875422 1.75,6.125 C1.75,8.54124578 3.70875422,10.5 6.125,10.5 Z" id="形状" stroke="#FBFBFB" stroke-width="0.7" fill="#0171F6"></path>
                    </g>
                </g>
            </g>
        </g>
    </g>
</svg>