<?xml version="1.0" encoding="UTF-8"?>
<svg width="14px" height="14px" viewBox="0 0 14 14" version="1.1" xmlns="http://www.w3.org/2000/svg" xmlns:xlink="http://www.w3.org/1999/xlink">
    <title>编组 3</title>
    <g id="#28113_240617" stroke="none" stroke-width="1" fill="none" fill-rule="evenodd">
        <g id="10、趋势弹窗" transform="translate(-940.000000, -240.000000)" fill="#0171F6" fill-rule="nonzero">
            <g id="编组-115" transform="translate(206.000000, 225.000000)">
                <g id="编组-11" transform="translate(734.000000, 12.000000)">
                    <g id="编组-4" transform="translate(0.000000, 3.000000)">
                        <g id="编组" transform="translate(0.875000, 0.000000)">
                            <path d="M1.47438667,13.125 C1.30358902,13.1247952 1.14002745,13.0567901 1.02041082,12.9362475 C0.900794194,12.8157048 0.835141459,12.6527211 0.838187359,12.4838754 L0.838187359,9.20912872 C0.803534704,8.96163505 0.917659285,8.71681999 1.13048437,8.58210593 C1.34330946,8.44739188 1.61595067,8.44739188 1.82877576,8.58210593 C2.04160085,8.71681999 2.15572543,8.96163505 2.12107278,9.20912872 L2.12107278,12.4838754 C2.12153714,12.6537531 2.05360939,12.8168304 1.93228185,12.9371145 C1.81095431,13.0573987 1.64620174,13.125 1.47438667,13.125 L1.47438667,13.125 Z M4.6649961,13.125 C4.49435014,13.1245639 4.33101463,13.0564571 4.21158765,12.93594 C4.09216068,12.815423 4.02662705,12.6525716 4.0296707,12.4838754 L4.0296707,7.29785174 C4.07102167,6.97874644 4.34573181,6.73971269 4.67111341,6.73971269 C4.99649501,6.73971269 5.27120515,6.97874644 5.31255612,7.29785174 L5.31255612,12.4735068 C5.31584144,12.6451714 5.24916175,12.8109295 5.12752667,12.9334687 C5.00589159,13.0560079 4.83952281,13.125 4.66587001,13.125 L4.6649961,13.125 Z M7.85647946,13.125 C7.6858335,13.1245639 7.52249798,13.0564571 7.403071,12.93594 C7.28364402,12.815423 7.21811039,12.6525716 7.22115404,12.4838754 L7.22115404,10.2062416 C7.26250501,9.88713627 7.53721515,9.64810252 7.86259675,9.64810252 C8.18797835,9.64810252 8.46268849,9.88713627 8.50404183,10.2062416 L8.50404183,12.4838754 C8.50450382,12.6537531 8.43657607,12.8168304 8.31524853,12.9371145 C8.19392099,13.0573987 8.02916842,13.125 7.85735335,13.125 L7.85647946,13.125 Z M11.0479628,13.125 C10.8771652,13.1247952 10.7136036,13.0567901 10.593987,12.9362475 C10.4743703,12.8157048 10.4087176,12.6527211 10.4117635,12.4838754 L10.4117635,8.284596 C10.3784691,8.03770086 10.4930165,7.79412284 10.705409,7.66017665 C10.9178014,7.52623046 11.1894849,7.52623046 11.4018773,7.66017665 C11.6142698,7.79412284 11.7288172,8.03770086 11.6955228,8.284596 L11.6955228,12.5365824 C11.6681482,12.8693207 11.3864781,13.125235 11.0488367,13.124136 L11.0479628,13.125 Z M0.63631643,6.77250978 C0.432539737,6.77574266 0.239531257,6.68225385 0.117219741,6.52107145 C-0.0879871716,6.23113725 -0.0167995148,5.83164316 0.276269556,5.62850855 L4.88784065,2.11182804 C5.1227437,1.9349568 5.44818673,1.9349568 5.68308978,2.11182804 L7.80404544,3.82264559 L11.2288601,0.998068532 C11.5005942,0.800749486 11.8804454,0.845098383 12.0982219,1.09956944 C12.3159984,1.35404049 12.2973623,1.73177009 12.0555697,1.96407562 L8.24886063,5.13513642 C8.01276754,5.3307901 7.66873096,5.3307901 7.43263787,5.13513642 L5.31255612,3.41308623 L1.07064479,6.63599 C0.947010283,6.73133243 0.792938065,6.779761 0.63631643,6.77250978 Z" id="形状"></path>
                            <path d="M11.6318459,3.49917472 C11.2940053,3.4992116 11.0187137,3.23128032 11.0136918,2.89754775 L11.0136918,1.21315728 L9.29037835,1.21315728 C8.98143407,1.17407801 8.75,0.91429157 8.75,0.606578639 C8.75,0.298865708 8.98143407,0.0390792704 9.29037835,0 L11.6318459,0 C11.9693663,-4.38462413e-05 12.2445267,0.267392409 12.25,0.600801696 L12.25,2.89754775 C12.2454303,3.23160352 11.9700072,3.5 11.6318459,3.5 L11.6318459,3.49917472 Z" id="路径"></path>
                        </g>
                    </g>
                </g>
            </g>
        </g>
    </g>
</svg>