<?xml version="1.0" encoding="UTF-8"?>
<svg width="14px" height="14px" viewBox="0 0 14 14" version="1.1" xmlns="http://www.w3.org/2000/svg" xmlns:xlink="http://www.w3.org/1999/xlink">
    <title>编组 7</title>
    <g id="0103" stroke="none" stroke-width="1" fill="none" fill-rule="evenodd">
        <g id="1、AI主页面1" transform="translate(-661.000000, -389.000000)" fill="#1D8EFF" fill-rule="nonzero">
            <g id="编组-24" transform="translate(454.000000, 381.000000)">
                <g id="编组-18" transform="translate(195.000000, 0.000000)">
                    <g id="编组-17" transform="translate(12.000000, 6.000000)">
                        <g id="编组" transform="translate(0.000000, 2.000000)">
                            <path d="M6.69946026,11.2384691 L6.98969578,11.5596173 L7.28336605,11.2419038 C7.32458292,11.1972522 8.32065751,10.1170265 9.33390579,8.74656526 C10.7266928,6.86089303 11.4342493,5.39597645 11.4342493,4.39303238 C11.4342493,3.22006869 10.9774289,2.1157998 10.1479392,1.28631011 C9.31844946,0.456820412 8.21418057,0 7.04121688,0 C5.86825319,0 4.76226693,0.456820412 3.93277723,1.28631011 C3.10328754,2.1157998 2.64646712,3.22006869 2.64646712,4.39303238 C2.64646712,5.39425908 3.33684985,6.85745829 4.69700687,8.74313052 C5.6844946,10.1135918 6.65824338,11.1938175 6.69946026,11.2384691 L6.69946026,11.2384691 Z M3.43473994,4.39303238 C3.43473994,2.40603533 5.05078508,0.789990186 7.03778214,0.789990186 C9.0247792,0.789990186 10.6408243,2.40603533 10.6408243,4.39303238 C10.6408243,4.83096173 10.4433268,5.42860648 10.0552012,6.16535819 C9.72890088,6.78361138 9.27379784,7.49288518 8.6984789,8.27085378 C8.03385672,9.17075564 7.36408243,9.95559372 6.99313052,10.3780667 C6.63076546,9.95731109 5.97988224,9.17590775 5.33415113,8.281158 C4.77257115,7.50147203 4.32605496,6.79219823 4.00662414,6.17222767 C3.62880275,5.43204122 3.43473994,4.8326791 3.43473994,4.39303238 Z" id="形状"></path>
                            <path d="M12.8424926,10.3265456 C12.2311089,10.0689401 11.3672718,9.85598626 10.3454367,9.70829244 L10.2338077,10.4896958 C11.1903827,10.6270854 11.985525,10.8211482 12.5368008,11.0529931 C13.094946,11.2882728 13.2100098,11.484053 13.2100098,11.5235525 C13.2100098,11.5973994 12.9197743,11.9683513 11.5750736,12.3032385 C10.3574583,12.6054956 8.7328263,12.7737978 7,12.7737978 C5.2671737,12.7737978 3.64254171,12.607213 2.4249264,12.3032385 C1.08194308,11.9683513 0.789990186,11.5973994 0.789990186,11.5235525 C0.789990186,11.484053 0.903336605,11.2882728 1.45804711,11.0547105 C2.00588813,10.8228656 2.79759568,10.6288027 3.74901865,10.4914132 L3.63567223,9.71000981 C2.61727184,9.85598626 1.75858685,10.0706575 1.15063788,10.3265456 C0.386408243,10.6494112 0,11.0512758 0,11.5235525 C0,11.8945044 0.240431796,12.2259568 0.714425908,12.5041708 C1.08022571,12.718842 1.59200196,12.9094701 2.23429833,13.0691855 C3.51202159,13.3868989 5.20363101,13.5620707 7,13.5620707 C8.79636899,13.5620707 10.4879784,13.3868989 11.7657017,13.0691855 C12.4097154,12.9094701 12.9197743,12.718842 13.2855741,12.5041708 C13.7595682,12.2259568 14,11.8962218 14,11.5235525 C14,11.0529931 13.610157,10.6494112 12.8424926,10.3265456 Z M6.98969578,5.88027478 C7.81403337,5.88027478 8.48380765,5.21050049 8.48380765,4.3861629 C8.48380765,3.56182532 7.81403337,2.89205103 6.98969578,2.89205103 C6.16535819,2.89205103 5.49558391,3.56182532 5.49558391,4.3861629 C5.49558391,5.21050049 6.16707556,5.88027478 6.98969578,5.88027478 Z M6.98969578,3.68204122 C7.37782139,3.68204122 7.69381747,3.99803729 7.69381747,4.3861629 C7.69381747,4.77428852 7.37782139,5.09028459 6.98969578,5.09028459 C6.60157017,5.09028459 6.28557409,4.77428852 6.28557409,4.3861629 C6.28557409,3.99803729 6.60157017,3.68204122 6.98969578,3.68204122 Z" id="形状"></path>
                        </g>
                    </g>
                </g>
            </g>
        </g>
    </g>
</svg>