<?xml version="1.0" encoding="UTF-8"?>
<svg width="14px" height="15px" viewBox="0 0 14 15" version="1.1" xmlns="http://www.w3.org/2000/svg" xmlns:xlink="http://www.w3.org/1999/xlink">
    <title>编组</title>
    <g id="0103" stroke="none" stroke-width="1" fill="none" fill-rule="evenodd">
        <g id="1、AI主页面1" transform="translate(-758.000000, -388.000000)" fill="#0171F6" fill-rule="nonzero">
            <g id="编组-24" transform="translate(454.000000, 381.000000)">
                <g id="1.通用/按钮/面型/圆角/浅蓝色-高30备份-3" transform="translate(292.000000, 0.000000)">
                    <g id="编组" transform="translate(12.000000, 7.789990)">
                        <path d="M14,8.79334315 L14,12.2933431 C14,12.6155093 13.7388328,12.8766765 13.4166667,12.8766765 L0.583333333,12.8766765 C0.261167229,12.8766765 0,12.6155093 0,12.2933431 L0,8.79334315 C0.644332208,8.79334315 1.16666667,8.27100869 1.16666667,7.62667648 C1.16666667,6.98234427 0.644332208,6.46000981 0,6.46000981 L0,1.79334315 C0,1.47117704 0.261167229,1.21000981 0.583333333,1.21000981 L13.4166667,1.21000981 C13.7388328,1.21000981 14,1.47117704 14,1.79334315 L14,6.46000981 C13.3556678,6.46000981 12.8333333,6.98234427 12.8333333,7.62667648 C12.8333333,8.27100869 13.3556678,8.79334315 14,8.79334315 Z M11.9583333,7.62667648 C11.9581706,6.83792406 12.4123559,6.11962989 13.125,5.78159315 L13.125,2.08500981 L0.875,2.08500981 L0.875,5.78159315 C1.58799045,6.1193735 2.04255553,6.83772087 2.04255553,7.62667648 C2.04255553,8.41563209 1.58799045,9.13397946 0.875,9.47175981 L0.875,12.0016765 L13.125,12.0016765 L13.125,9.47175981 C12.4123559,9.13372307 11.9581706,8.4154289 11.9583333,7.62667648 Z M6.01825,6.50550981 L3.81325,8.76242648 L3.18733333,8.15109315 L6.0235,5.24784315 L8.20225,7.51409315 L10.19375,5.56400981 L10.80625,6.18934315 L8.18358333,8.75717648 L6.01825,6.50550981 L6.01825,6.50550981 Z" id="形状"></path>
                    </g>
                </g>
            </g>
        </g>
    </g>
</svg>