<?xml version="1.0" encoding="UTF-8"?>
<svg width="14px" height="14px" viewBox="0 0 14 14" version="1.1" xmlns="http://www.w3.org/2000/svg" xmlns:xlink="http://www.w3.org/1999/xlink">
    <title>编组 8</title>
    <g id="0103" stroke="none" stroke-width="1" fill="none" fill-rule="evenodd">
        <g id="1、AI主页面1" transform="translate(-564.000000, -389.000000)" fill="#1D8EFF" fill-rule="nonzero">
            <g id="编组-24" transform="translate(454.000000, 381.000000)">
                <g id="编组-8" transform="translate(98.000000, 0.000000)">
                    <g id="编组" transform="translate(12.000000, 8.000000)">
                        <path d="M7.3347704,1.46505504 L2.69570884,4.48812097 L2.69570884,12.9077165 L7.3347704,12.9077165 L7.3347704,1.46505504 Z M7.47162623,0.0951944969 C7.65526364,-0.0243593543 7.88767228,-0.0318173729 8.07821528,0.0757289881 C8.26875828,0.183275349 8.38726056,0.388794661 8.38750752,0.612136608 L8.38750752,4.11249079 L8.38891117,4.11321177 L8.38891117,5.39439187 L8.38891117,5.39367089 L8.38891117,12.9113214 L11.3042912,12.9113214 L11.3042912,7.29489313 L9.09143774,5.85293466 L9.09143774,4.5703126 L12.0798075,6.51839849 C12.2522185,6.63064318 12.3567962,6.8256526 12.3570283,7.0353406 L12.3570283,12.9185311 L13.4736314,12.9185311 C13.7643368,12.9185311 14,13.1606262 14,13.4592656 C14,13.757905 13.7643368,14 13.4736314,14 L0.526368558,14 C0.235663231,14 0,13.757905 0,13.4592656 C0,13.1606262 0.235663231,12.9185311 0.526368558,12.9185311 L1.64367355,12.9185311 L1.64367355,4.23073138 C1.64351289,4.02092801 1.74783928,3.8256216 1.9201925,3.71306829 L7.47162623,0.0951944969 Z" id="形状"></path>
                    </g>
                </g>
            </g>
        </g>
    </g>
</svg>