<?xml version="1.0" encoding="UTF-8"?>
<svg width="16px" height="16px" viewBox="0 0 16 16" version="1.1" xmlns="http://www.w3.org/2000/svg" xmlns:xlink="http://www.w3.org/1999/xlink">
    <title>编组 30</title>
    <g id="页面-1" stroke="none" stroke-width="1" fill="none" fill-rule="evenodd">
        <g id="4.客服卡片" transform="translate(-346.000000, -353.000000)" fill-rule="nonzero">
            <g id="编组-40" transform="translate(334.000000, 341.000000)">
                <g id="编组-33" transform="translate(12.000000, 8.000000)">
                    <g id="编组" transform="translate(0.000000, 4.000000)">
                        <path d="M13.1674286,10.0141297 C12.7885804,9.66376648 12.5708588,9.15259725 12.5714286,8.61483444 L12.5714286,6.7687985 C12.5714286,6.12022454 12.8817143,5.55041477 13.3514286,5.22120502 C12.5136876,2.82049923 10.3815744,1.23060071 8,1.23069064 C5.61842557,1.23060071 3.48631237,2.82049923 2.64857143,5.22120502 C3.13516869,5.56154192 3.42872188,6.14397911 3.42857142,6.7687985 L3.42857142,8.61483444 C3.42857142,9.27435957 3.10183042,9.88378592 2.57142857,10.2135485 C2.04102672,10.5433111 1.38754469,10.5433111 0.857142847,10.2135485 C0.326740999,9.88378592 0,9.27435957 0,8.61483444 L0,6.7687985 C0,5.82608706 0.659372307,5.03472199 1.52971429,4.93322341 C2.46799999,2.05956077 5.01085714,0 8,0 C10.9891429,0 13.5314286,2.05956079 14.4702857,4.93322341 C15.3406277,5.03472199 16,5.82608706 16,6.7687985 L16,8.61483444 C16,9.11374514 15.8125525,9.59143041 15.480245,9.93907617 C15.1479375,10.2867219 14.6991089,10.4747235 14.236,10.4602551 C13.36815,12.4950863 11.6913755,13.997337 9.67542857,14.546148 C9.49795925,15.4239917 8.75956059,16.0369196 7.92604616,15.9982704 C7.09253173,15.9596212 6.40579316,15.2806112 6.29905461,14.389589 C6.19231607,13.4985668 6.6965538,12.6541133 7.49367302,12.3889459 C8.29079224,12.1237785 9.14946344,12.5148507 9.52799999,13.3154573 C11.1284845,12.8354788 12.4566289,11.6309075 13.168,10.0141297 L13.1674286,10.0141297 Z M1.71428571,6.15345317 C1.56273343,6.15345317 1.41738833,6.21828401 1.31022469,6.33368364 C1.20306105,6.44908328 1.14285715,6.60559877 1.14285715,6.7687985 L1.14285715,8.61483444 C1.14285715,8.95468028 1.39869443,9.23017976 1.71428572,9.23017976 C2.029877,9.23017976 2.28571429,8.95468028 2.28571429,8.61483444 L2.28571429,6.7687985 C2.28571429,6.60559877 2.22551039,6.44908327 2.11834674,6.33368363 C2.01118309,6.218284 1.86583799,6.15345317 1.71428571,6.15345317 Z M8,14.7682876 C8.31559128,14.7682876 8.57142857,14.4927881 8.57142857,14.1529423 C8.57142857,13.8130965 8.31559128,13.537597 8,13.537597 C7.68440871,13.537597 7.42857142,13.8130965 7.42857142,14.1529423 C7.42857142,14.4927881 7.68440871,14.7682876 8,14.7682876 Z M14.8571428,8.61483444 L14.8571428,6.7687985 C14.8571428,6.42895266 14.6013056,6.15345318 14.2857143,6.15345318 C13.970123,6.15345318 13.7142857,6.42895266 13.7142857,6.7687985 L13.7142857,8.61483444 C13.7142857,8.95468028 13.970123,9.23017976 14.2857143,9.23017976 C14.6013056,9.23017976 14.8571428,8.95468028 14.8571428,8.61483444 L14.8571428,8.61483444 Z" id="形状" fill="#137FFF"></path>
                        <path d="M5.76685714,9.84552508 C5.20399999,9.84552508 4.90628572,10.5113287 5.36171428,10.868229 C6.04484142,11.4046812 6.86880944,11.6930462 7.71428572,11.6915667 C8.55976199,11.6930462 9.38373001,11.4046812 10.0668571,10.868229 C10.5217143,10.5113287 10.2245714,9.84552508 9.66114285,9.84552508 C9.51018478,9.84886979 9.36318757,9.89815017 9.23714285,9.98766983 C8.78142098,10.2976157 8.25328956,10.461723 7.71428572,10.4608704 C7.15428571,10.4608704 6.632,10.287343 6.19142856,9.98766983 C6.06523389,9.89800862 5.91801559,9.84872054 5.76685714,9.84552508 L5.76685714,9.84552508 Z" id="路径" fill="#FFA52F"></path>
                    </g>
                </g>
            </g>
        </g>
    </g>
</svg>