<?xml version="1.0" encoding="UTF-8"?>
<svg width="19px" height="19px" viewBox="0 0 19 19" version="1.1" xmlns="http://www.w3.org/2000/svg" xmlns:xlink="http://www.w3.org/1999/xlink">
    <title>编组 5</title>
    <g id="页面-1" stroke="none" stroke-width="1" fill="none" fill-rule="evenodd">
        <g id="2.1、默认页面" transform="translate(-42.000000, -426.000000)" fill="#606060" fill-rule="nonzero">
            <g id="编组-5" transform="translate(22.000000, 300.000000)">
                <g id="编组" transform="translate(20.000000, 126.000000)">
                    <path d="M13.7058823,8.41176471 C15.5972884,8.41176471 17.3450197,9.42081779 18.2907227,11.0588235 C19.2364258,12.6968292 19.2364258,14.7149355 18.2907227,16.3529412 C17.3450197,17.9909469 15.5972884,19 13.7058823,19 C10.7820219,19 8.41176467,16.6297428 8.41176467,13.7058824 C8.41176467,10.7820219 10.7820219,8.41176471 13.7058823,8.41176471 Z M14.3411764,1 C15.7446294,1 16.8823529,2.13772346 16.8823529,3.54117647 L16.8834117,7.59964706 C16.3806089,7.33721849 15.8470957,7.13839593 15.2951764,7.00776471 L15.2941176,3.54117647 C15.2941827,3.0610933 14.9371076,2.65592416 14.4608235,2.59564706 L14.3411764,2.58823529 L3.54117646,2.58823529 C3.06109329,2.58817018 2.65592416,2.94524533 2.59564705,3.42152941 L2.58823529,3.54117647 L2.58823529,15.4 C2.58817017,15.8800832 2.94524532,16.2852523 3.4215294,16.3455294 L3.54117646,16.3529412 L7.3508235,16.3529412 C7.59011762,16.9268235 7.90458821,17.4604706 8.28152938,17.9411765 L3.54117646,17.9411765 C2.13772345,17.9411765 1,16.803453 1,15.4 L1,3.54117647 C1,2.13772346 2.13772345,1 3.54117646,1 L14.3411764,1 Z M13.7058823,10 C11.65918,10 9.99999996,11.65918 9.99999996,13.7058824 C9.99999996,15.7525847 11.65918,17.4117647 13.7058823,17.4117647 C15.7525846,17.4117647 17.4117646,15.7525847 17.4117646,13.7058824 C17.4117646,11.65918 15.7525846,10 13.7058823,10 L13.7058823,10 Z M13.7058823,10.6437647 C14.1027143,10.6437647 14.438619,10.9367374 14.4925882,11.3298824 L14.4999999,11.4378824 L14.4999999,13.0621176 L15.5058823,13.0621176 C15.9034175,13.0622785 16.2395835,13.3563672 16.2925882,13.7503529 L16.3000006,13.8562353 C16.3005128,14.2534698 16.0074263,14.5899764 15.6138823,14.644 L15.5058823,14.6514118 L13.7058823,14.6514118 C13.3090503,14.6514118 12.9731456,14.3584391 12.9191764,13.9652941 L12.9117647,13.8572941 L12.9117647,11.4378824 C12.9117647,10.9993033 13.2673032,10.6437647 13.7058823,10.6437647 L13.7058823,10.6437647 Z M7.79976468,7.88235294 C8.21724201,7.8824809 8.5633369,8.20583706 8.59179213,8.62234354 C8.62024736,9.03885002 8.3213456,9.40627159 7.90776468,9.46317647 L7.79976468,9.47058824 L4.6232941,9.47058824 C4.20581676,9.47046028 3.85972188,9.14710411 3.83126665,8.73059764 C3.80281142,8.31409116 4.10171318,7.94666958 4.5152941,7.88976471 L4.6232941,7.88235294 L7.79976468,7.88235294 L7.79976468,7.88235294 Z M11.4675294,4.70588235 C11.8850067,4.70601031 12.2311016,5.02936647 12.2595568,5.44587295 C12.288012,5.86237943 11.9891103,6.229801 11.5755294,6.28670588 L11.4675294,6.29411765 L4.6232941,6.29411765 C4.20581676,6.29398969 3.85972188,5.97063353 3.83126665,5.55412705 C3.80281142,5.13762057 4.10171318,4.770199 4.5152941,4.71329412 L4.6232941,4.70588235 L11.4675294,4.70588235 Z" id="形状"></path>
                </g>
            </g>
        </g>
    </g>
</svg>