<?xml version="1.0" encoding="UTF-8"?>
<svg width="14px" height="14px" viewBox="0 0 14 14" version="1.1" xmlns="http://www.w3.org/2000/svg" xmlns:xlink="http://www.w3.org/1999/xlink">
    <g id="0103" stroke="none" stroke-width="1" fill="none" fill-rule="evenodd">
        <g id="1、AI主页面1" transform="translate(-466.000000, -389.000000)">
            <g id="编组-20" transform="translate(454.000000, 381.000000)">
                <g id="1.通用/按钮/面型/圆角/浅蓝色-高30" fill="url(#linearGradient-1)" stroke="#E9F4FF">
                    <rect id="矩形" x="0.5" y="0.5" width="81" height="29" rx="9"></rect>
                </g>
                <g id="其他/试验性/下拉菜单/icon/搜索" transform="translate(12.000000, 8.000000)">
                    <rect id="矩形" x="0" y="0" width="14" height="14"></rect>
                    <g id="搜索" fill="#1D8EFF" fill-rule="nonzero">
                        <rect id="矩形" opacity="0" x="0.538461538" y="0.538461538" width="12.9230769" height="12.9230769"></rect>
                        <path d="M12.710457,12.1308974 L10.4123671,9.83280744 C11.2965827,8.81222482 11.7791609,7.52262551 11.7791609,6.15881123 C11.7791609,4.65755963 11.1945389,3.24617313 10.1329941,2.18461387 C9.07144934,1.12308355 7.66004837,0.538461538 6.15878231,0.538461538 C4.65753071,0.538461538 3.24614421,1.12308355 2.18461387,2.18462835 C1.12306909,3.24617311 0.538461538,4.65757409 0.538461538,6.15881123 C0.538461538,7.66004836 1.12308355,9.07144932 2.18462835,10.1330086 C3.24615867,11.1945534 4.65755965,11.7791754 6.15879678,11.7791754 C7.39908818,11.7791754 8.57782061,11.3797943 9.54883498,10.642461 L11.8738715,12.9674975 C11.9893813,13.0830073 12.1407764,13.1407767 12.2921715,13.1407767 C12.4435666,13.1407767 12.5949617,13.0830073 12.7104715,12.9674975 C12.9414767,12.7364634 12.9414767,12.3619171 12.710457,12.1308974 Z M1.72157658,6.15881123 C1.72157658,3.71211769 3.71210324,1.72159104 6.15878231,1.72159104 C8.60547585,1.72159104 10.596017,3.7121177 10.596017,6.15881123 C10.596017,8.60550475 8.60547585,10.596017 6.15878231,10.596017 C3.71210324,10.596017 1.72157658,8.60550475 1.72157658,6.15881123 Z" id="形状"></path>
                    </g>
                </g>
            </g>
        </g>
    </g>
</svg>
