<?xml version="1.0" encoding="UTF-8"?>
<svg width="14px" height="14px" viewBox="0 0 14 14" version="1.1" xmlns="http://www.w3.org/2000/svg" xmlns:xlink="http://www.w3.org/1999/xlink">
    <title>编组 31</title>
    <g id="0103" stroke="none" stroke-width="1" fill="none" fill-rule="evenodd">
        <g id="2、提问加载中" transform="translate(-310.000000, -161.000000)">
            <g id="编组-31" transform="translate(310.000000, 155.000000)">
                <g id="编组-17" transform="translate(0.000000, 6.000000)">
                    <g id="编组-16">
                        <g id="编组" transform="translate(0.000000, 5.687629)"></g>
                        <path d="M6.99996523,0 C3.18909467,0 0.0895762368,3.04580535 0.00205859448,6.83566149 C0.0828997523,3.52858364 2.59739082,0.875187774 5.68754826,0.875118229 C8.82850266,0.875118229 11.3751243,3.61764495 11.3751243,6.99997218 C11.3751243,7.72481421 11.9627667,8.31270517 12.6875969,8.31270517 C13.4121212,8.31270517 14,7.72481421 14,6.99997218 C14,3.13392083 10.8660698,0 7.00000696,0 L6.99996523,0 L6.99996523,0 Z" id="路径" fill="#0171F6" fill-rule="nonzero"></path>
                    </g>
                    <path d="M6.99996523,14 C10.8108358,14 13.9103403,10.9541947 13.9976215,7.16439416 C13.9171003,10.4710825 11.4026092,13.1251739 8.31243784,13.1251739 C5.17142781,13.1251739 2.62486178,10.382369 2.62486178,7.00004172 C2.62486178,6.27550569 2.03691343,5.68762866 1.31212489,5.68762866 C0.587878798,5.68762866 0,6.27528316 0,7.00004172 C0,10.8660931 3.13390236,14 6.99996523,14 L6.99996523,14 Z" id="路径" fill="#7CB8FF" fill-rule="nonzero"></path>
                </g>
            </g>
        </g>
    </g>
</svg>