<svg xmlns="http://www.w3.org/2000/svg" xmlns:xlink="http://www.w3.org/1999/xlink" width="20px" height="20px" viewBox="0 0 20 20" version="1.1">
    <title>编组 34</title>
    <g id="页面-1" stroke="none" stroke-width="1" fill="none" fill-rule="evenodd">
        <g id="1.AI主页面" transform="translate(-9.000000, -124.000000)">
            <rect fill="#FFFFFF" x="0" y="0" width="1280" height="800"/>
            <g id="编组" transform="translate(10.000000, 125.000000)" fill="#606060" fill-rule="nonzero">
                <path d="M9.00001057,0 C13.9705165,0 17.9999894,4.02948 17.9999894,9 C17.9999894,13.97052 13.9705165,18 9.00001057,18 L1.68841824,18 C1.35595325,18 1.05053932,17.8168134 0.894116496,17.5234447 C0.737693671,17.2300761 0.755743569,16.8743676 0.941059557,16.59834 L1.73935815,15.40908 C1.97919714,15.0522231 1.96249418,14.5816346 1.69795822,14.24268 L1.56529845,14.06916 C1.54405849,14.04054 1.52857852,14.01876 1.51849854,14.00382 C0.525961787,12.5240156 -0.00272578269,10.7818378 1.0568448e-05,9 C1.0568448e-05,4.02966 4.0294941,0 9.00001057,0 Z M9.00000533,1.49994 C4.85785264,1.49994 1.49995857,4.85784 1.49995857,8.99999999 C1.49995857,10.50732 1.94419779,11.9448 2.76427634,13.1688 L2.87965613,13.31928 C3.54351418,14.169327 3.58585132,15.3497585 2.98459595,16.24518 L2.81305625,16.49988 L9.00000533,16.49988 C13.0607982,16.49988 16.3679323,13.27248 16.4960921,9.24263999 L16.5000521,8.99999999 C16.5000521,4.85784 13.142158,1.49994 9.00000533,1.49994 Z M9.00000533,5.45004 C9.41418101,5.45004 9.74996461,5.78574359 9.750064,6.19992 L9.750064,8.24903999 L11.8000804,8.24993999 C12.0707875,8.245746 12.3227453,8.38776512 12.4593241,8.62153074 C12.5959028,8.85529636 12.5959028,9.14452363 12.4593241,9.37828925 C12.3227453,9.61205487 12.0707875,9.75407399 11.8000804,9.74987999 L9.749884,9.74897999 L9.749884,11.7999 C9.75584017,12.0717231 9.61423108,12.3254862 9.37976831,12.4631463 C9.14530554,12.6008064 8.85470511,12.6008064 8.62024234,12.4631463 C8.38577957,12.3254862 8.24417048,12.0717231 8.25012665,11.7999 L8.25012665,9.74897999 L6.19993027,9.74987999 C5.92922318,9.75407399 5.67726532,9.61205487 5.54068659,9.37828925 C5.40410787,9.14452363 5.40410787,8.85529636 5.54068659,8.62153074 C5.67726532,8.38776512 5.92922318,8.245746 6.19993027,8.24993999 L8.25012665,8.24903999 L8.25012665,6.19992 C8.25022602,5.78581387 8.58589993,5.45013936 9.00000533,5.45004 Z" id="形状"/>
            </g>
        </g>
    </g>
</svg>