<svg xmlns="http://www.w3.org/2000/svg" xmlns:xlink="http://www.w3.org/1999/xlink" width="20px" height="20px" viewBox="0 0 20 20" version="1.1">
    <title>编组 34备份 6</title>
    <g id="页面-1" stroke="none" stroke-width="1" fill="none" fill-rule="evenodd">
        <g id="1.AI主页面" transform="translate(-119.000000, -166.000000)" fill="#0171F6" fill-rule="nonzero">
            <g id="编组-5" transform="translate(119.000000, 166.000000)">
                <path d="M6.82024082,9.70249634 L3.18597417,9.70249634 C1.97902697,9.70062613 1.0012422,8.71950319 1,7.50905923 L1,3.86539708 C1.0012422,2.65495312 1.97902697,1.67383018 3.18597417,1.67195997 L6.82024082,1.67195997 C8.02718803,1.67383018 9.0049728,2.65495312 9.00621499,3.86539708 L9.00621499,7.50905923 C9.0049728,8.71950319 8.02718803,9.70062613 6.82024082,9.70249634 L6.82024082,9.70249634 Z M3.18597417,3.02829369 C2.72605349,3.02891785 2.35354438,3.40301259 2.35354438,3.86426586 L2.35354438,7.50905923 C2.35354438,7.9703125 2.72605349,8.34440724 3.18597417,8.3450314 L6.82024082,8.3450314 C7.2801615,8.34440724 7.65267061,7.9703125 7.65267061,7.50905923 L7.65267061,3.86539708 C7.65267061,3.40414381 7.2801615,3.03004907 6.82024082,3.02942491 L3.18597417,3.02829369 Z M6.82024082,19 L3.18597417,19 C1.97858702,18.9981286 1.0006206,18.0163173 1,16.8054317 L1,13.1617695 C1.0012422,11.9513256 1.97902697,10.9702026 3.18597417,10.9683324 L6.82024082,10.9683324 C8.02718803,10.9702026 9.0049728,11.9513256 9.00621499,13.1617695 L9.00621499,16.8054317 C9.00559439,18.0163173 8.02762797,18.9981286 6.82024082,19 Z M3.18597417,12.3257974 C2.72605349,12.3264215 2.35354361,12.7005162 2.35354361,13.1617695 L2.35354361,16.8054317 C2.35324502,17.0271453 2.44077907,17.2398974 2.59688998,17.3968848 C2.75300089,17.5538722 2.96490085,17.6422352 3.18597417,17.6425351 L6.82024082,17.6425351 C7.2801615,17.6419109 7.65267061,17.2678162 7.65267061,16.8065629 L7.65267061,13.1617695 C7.65267061,12.7005162 7.2801615,12.3264215 6.82024082,12.3257974 L3.18597417,12.3257974 Z M16.0897639,19 L12.4554972,19 C11.24855,18.9981298 10.2707653,18.0170068 10.2695231,16.8065629 L10.2695231,13.1617695 C10.2707653,11.9513256 11.24855,10.9702026 12.4554972,10.9683324 L16.0897639,10.9683324 C17.2967111,10.9702026 18.2744959,11.9513256 18.2757381,13.1617695 L18.2757381,16.8054317 C18.2751175,18.0163173 17.297151,18.9981286 16.0897639,19 L16.0897639,19 Z M12.4554972,12.3257974 C11.9955766,12.3264215 11.6230675,12.7005162 11.6230675,13.1617695 L11.6230675,16.8054317 C11.6230675,17.2666849 11.9955766,17.6407797 12.4554972,17.6414038 L16.0897639,17.6414038 C16.5496846,17.6407797 16.9221937,17.2666849 16.9221937,16.8054317 L16.9221937,13.1617695 C16.9221937,12.7005162 16.5496846,12.3264215 16.0897639,12.3257974 L12.4554972,12.3257974 Z M14.5433394,9.93553487 C13.963341,9.93640275 13.4068723,9.7055992 12.996915,9.29412564 L10.7297282,7.01810941 C9.87834489,6.16089738 9.87834489,4.77464526 10.7297282,3.91743323 L12.9991709,1.64141701 C13.8537814,0.786194331 15.2374093,0.786194331 16.0920198,1.64141701 L18.3614625,3.91743323 C19.2128458,4.77464526 19.2128458,6.16089738 18.3614625,7.01810941 L16.0920198,9.29412564 C15.6815106,9.7061556 15.1241192,9.93700506 14.5433394,9.93553487 L14.5433394,9.93553487 Z M14.5433394,2.35631967 C14.3237469,2.35570569 14.1128453,2.44234443 13.9568036,2.59729857 L11.6873608,4.87670846 C11.3626654,5.20303256 11.3626654,5.73137887 11.6873608,6.05770296 L13.9568036,8.33371919 C14.2821852,8.65935506 14.8090055,8.65935506 15.1343872,8.33371919 L17.4038299,6.05770296 C17.7285253,5.73137887 17.7285253,5.20303256 17.4038299,4.87670846 L15.1343872,2.59729857 C14.9772385,2.44123177 14.7644925,2.35450246 14.5433394,2.35631967 Z" id="形状"/>
            </g>
        </g>
    </g>
</svg>