<svg xmlns="http://www.w3.org/2000/svg" xmlns:xlink="http://www.w3.org/1999/xlink" width="20px" height="20px" viewBox="0 0 20 20" version="1.1">
    <title>编组 34备份 3</title>
    <g id="页面-1" stroke="none" stroke-width="1" fill="none" fill-rule="evenodd">
        <g id="1.AI主页面" transform="translate(-9.000000, -249.000000)">
            <rect fill="#FFFFFF" x="0" y="0" width="1280" height="800"/>
            <g id="编组" transform="translate(10.000000, 251.000000)" fill="#606060" fill-rule="nonzero">
                <path d="M17.325,9.33333333 L18,9.33333333 L18,14 C18,15.1045684 17.0933755,16 15.975,16 L2.025,16 C0.906624473,16 0,15.1045684 0,14 L0,9.11111111 L0.675,9.11111111 C1.29630802,9.11111111 1.8,8.61365838 1.8,8 C1.8,7.38636245 1.29632911,6.88888889 0.675,6.88888889 L0,6.88888889 L0,2 C0,0.895431578 0.906624473,0 2.025,0 L15.975,0 C17.0933755,0 18,0.895431578 18,2 L18,7.11111111 L17.325,7.11111111 C16.703692,7.11111111 16.2,7.60856384 16.2,8.22222222 C16.2,8.83585977 16.7036709,9.33333333 17.325,9.33333333 Z M14.85,8.22222222 C14.85,7.10329739 15.6111814,6.15998333 16.65,5.86979216 L16.65,2 C16.65,1.63181747 16.3477848,1.33333333 15.975,1.33333333 L2.025,1.33333333 C1.65221519,1.33333333 1.35,1.63181747 1.35,2 L1.35,5.64756993 C2.38881857,5.93776111 3.15,6.881096 3.15,8 C3.15,9.11892483 2.38881857,10.0622389 1.35,10.3524301 L1.35,14 C1.35,14.3681825 1.65221519,14.6666667 2.025,14.6666667 L15.975,14.6666667 C16.3477848,14.6666667 16.65,14.3681825 16.65,14 L16.65,10.5746523 C15.6111814,10.2844611 14.85,9.34112622 14.85,8.22222222 Z M8.775,10.2761473 L7.425,8.94281398 L5.87729958,10.4713862 L4.92270042,9.52859301 L7.425,7.05718602 L8.775,8.39051935 L10.0704008,7.11111111 L9.45,7.11111111 L9.45,5.77777778 L13.3295992,5.77777778 L8.775,10.2761473 Z" id="形状"/>
            </g>
        </g>
    </g>
</svg>