<?xml version="1.0" encoding="UTF-8"?>
<svg width="14px" height="14px" viewBox="0 0 14 14" version="1.1" xmlns="http://www.w3.org/2000/svg" xmlns:xlink="http://www.w3.org/1999/xlink">
    <title>矩形</title>
    <g id="页面-1" stroke="none" stroke-width="1" fill="none" fill-rule="evenodd">
        <g id="3.2区域f9-入口" transform="translate(-1166.000000, -73.000000)">
            <g id="编组-21" transform="translate(885.000000, 70.000000)">
                <g id="1.通用/按钮/线型/圆角/橘色图标+文字+vip-高22" transform="translate(281.000000, 0.000000)">
                    <g id="编组-13" transform="translate(0.000000, 3.000000)">
                        <rect id="矩形" x="1" y="0.5" width="13" height="13"></rect>
                        <path d="M12.3230886,12.0510654 C12.599231,12.0510654 12.8230886,12.274923 12.8230886,12.5510654 C12.8230886,12.7965253 12.6462134,13.0006737 12.4129642,13.0430097 L12.3230886,13.0510654 L2.67691142,13.0510654 C2.40076905,13.0510654 2.17691142,12.8272077 2.17691142,12.5510654 C2.17691142,12.3056055 2.35378658,12.101457 2.58703579,12.059121 L2.67691142,12.0510654 L12.3230886,12.0510654 Z M7.5,0.958368271 C7.74545989,0.958368271 7.94960837,1.13524343 7.99194433,1.36849264 L8,1.45836827 L7.99991142,9.12236827 L11.328517,5.79272147 C11.5237233,5.59740351 11.8403057,5.597313 12.0356237,5.79251932 C12.2092397,5.96603604 12.2286018,6.23545492 12.0936615,6.43036165 L12.0358259,6.49962607 L8.20430307,10.3332961 C7.84108434,10.6910244 7.27365856,10.7144334 6.88370161,10.4064299 L6.79013052,10.3225263 L3.02245534,6.49702446 C2.82868585,6.30028098 2.83109675,5.98370767 3.02784023,5.78993819 C3.20272332,5.61769864 3.47228678,5.60046582 3.66612122,5.73694196 L3.73492651,5.79532308 L6.99991142,9.11036827 L7,1.45836827 C7,1.1822259 7.22385763,0.958368271 7.5,0.958368271 Z" id="形状结合" fill="#0171F6" fill-rule="nonzero"></path>
                    </g>
                </g>
            </g>
        </g>
    </g>
</svg>