<?xml version="1.0" encoding="UTF-8"?>
<svg width="15px" height="14px" viewBox="0 0 15 14" version="1.1" xmlns="http://www.w3.org/2000/svg" xmlns:xlink="http://www.w3.org/1999/xlink">
    <title>icon_qygy_kh</title>
    <g id="页面-1" stroke="none" stroke-width="1" fill="none" fill-rule="evenodd">
        <g id="图标" transform="translate(-112.000000, -79.000000)" fill-rule="nonzero">
            <g id="icon_qygy_kh" transform="translate(112.500000, 79.000000)">
                <g id="证券公司" transform="translate(0.500000, 0.538154)">
                    <path d="M6.41905194,0 C9.19656898,0 11.6328598,1.78018689 12.5044512,4.3713603 C12.5798012,4.59537006 12.4592887,4.83804911 12.2352789,4.91339913 C12.0112692,4.98874916 11.7685901,4.86823663 11.6932401,4.64422687 C11.0238059,2.65405114 9.28875428,1.21566618 7.22678642,0.914428428 C8.78315979,2.63967499 9.42722218,4.64440439 9.14526426,6.90006776 C8.84905398,9.26974998 8.09936226,11.0690101 6.88354507,12.2848273 L6.88354507,12.2848273 L6.55219142,12.6161809 L6.25219791,12.2561887 C4.76346168,10.4697053 4.01332729,8.51935585 4.01332729,6.41905194 C4.01332729,4.31874802 4.76346168,2.36839861 6.25219791,0.581915131 L6.01919226,0.870023 C3.13337028,1.07498053 0.855873592,3.48104731 0.855873592,6.41905194 C0.855873592,6.6553949 0.664279762,6.84698873 0.427936796,6.84698873 C0.19159383,6.84698873 0,6.6553949 0,6.41905194 C0,2.87390744 2.87390744,0 6.41905194,0 Z M6.60905587,1.50890514 L6.50175738,1.65083538 C5.41063285,3.1385396 4.86920088,4.7246236 4.86920088,6.41905194 C4.86920088,8.11348027 5.41063285,9.69956427 6.50175738,11.1872685 L6.50175738,11.1872685 L6.60306476,11.3214959 L6.75434122,11.1326787 C7.4989087,10.1513947 7.99931407,8.82121875 8.24933578,7.13574389 L8.24933578,7.13574389 L8.29599983,6.79390971 C8.54316742,4.81656893 7.99874637,3.07863717 6.64879449,1.55196044 L6.64879449,1.55196044 L6.60905587,1.50890514 Z" id="形状结合" fill="#5693FF"></path>
                    <path d="M12.5720632,6.0767025 C12.8084062,6.0767025 13,6.26829633 13,6.5046393 C13,10.0497838 10.1260926,12.9236912 6.58094806,12.9236912 C3.74611307,12.9236912 1.27145899,11.0696251 0.447130059,8.402266 C0.377346353,8.17646026 0.503827201,7.93683767 0.729632941,7.86705396 C0.955438681,7.79727026 1.19506127,7.9237511 1.26484498,8.14955684 C1.97910589,10.4607585 4.12407555,12.0678176 6.58094806,12.0678176 C9.65340662,12.0678176 12.1441264,9.57709786 12.1441264,6.5046393 C12.1441264,6.26829633 12.3357202,6.0767025 12.5720632,6.0767025 Z" id="路径" fill="#9ABEFF"></path>
                    <path d="M12.5401893,6.00917353 C12.784682,6.00917353 12.9828825,6.20076736 12.9828825,6.43711033 C12.9828825,6.64719296 12.8262797,6.82191826 12.619764,6.85815249 L12.5401893,6.86504712 L0.587471892,6.86504712 C0.342979168,6.86504712 0.144778655,6.67345329 0.144778655,6.43711033 C0.144778655,6.22702769 0.30138153,6.0523024 0.507897223,6.01606817 L0.587471892,6.00917353 L12.5401893,6.00917353 Z" id="路径-6" fill="#5693FF"></path>
                </g>
            </g>
        </g>
    </g>
</svg>
