<?xml version="1.0" encoding="UTF-8"?>
<svg width="15px" height="14px" viewBox="0 0 15 14" version="1.1" xmlns="http://www.w3.org/2000/svg" xmlns:xlink="http://www.w3.org/1999/xlink">
    <title>icon_qygy_kh</title>
    <g id="页面-1" stroke="none" stroke-width="1" fill="none" fill-rule="evenodd">
        <g id="图标" transform="translate(-112.000000, -109.000000)" fill-rule="nonzero">
            <g id="icon_qygy_kh" transform="translate(112.500000, 109.000000)">
                <g id="编组-52备份" transform="translate(0.500000, 1.660706)">
                    <path d="M11.2055099,7.77034229 C11.4467967,7.77034229 11.6442132,7.97931322 11.6442132,8.23472213 L11.6442132,10.6204736 C11.6442132,10.8758825 11.4467967,11.0848534 11.2055099,11.0848534 C10.9642232,11.0848534 10.7668067,10.8758825 10.7668067,10.6204736 L10.7668067,8.23472213 C10.7668067,7.97931322 10.9642232,7.77034229 11.2055099,7.77034229 Z M8.9285278,6.40622651 C9.16978391,6.40622651 9.36717526,6.61519744 9.36717526,6.87060635 L9.36717526,10.6204736 C9.37265836,10.8758825 9.175267,11.0848534 8.9285278,11.0848534 C8.6872717,11.0848534 8.48988034,10.8758825 8.48988034,10.6204736 L8.48988034,6.87060635 C8.48988034,6.61519744 8.6872717,6.40622651 8.9285278,6.40622651 Z M6.54023106,7.31757194 C6.78151784,7.31757194 6.97893429,7.52654287 6.97893429,7.78195178 L6.97893429,10.6204736 C6.97893429,10.8758825 6.78151784,11.0848534 6.54023106,11.0848534 C6.29894429,11.0848534 6.10152784,10.8758825 6.10152784,10.6204736 L6.10152784,7.78195178 C6.10152784,7.52654287 6.29894429,7.31757194 6.54023106,7.31757194 Z" id="形状结合" stroke="#9ABEFF" stroke-width="0.1" fill="#9ABEFF"></path>
                    <path d="M6.63548661,0.0769253933 L6.72194143,0.125131681 L12.031212,3.53823417 C12.2142236,3.65588449 12.2672094,3.89961913 12.1495591,4.08263073 C12.044981,4.24530771 11.8407807,4.30524825 11.6681591,4.23393044 L11.6051625,4.20097781 L6.29589195,0.787875324 L2.363,3.147 L2.36368507,9.77866984 C2.36368507,9.97206159 2.50304062,10.1329051 2.68681188,10.1662606 L2.75762266,10.1726074 L3.93943543,10.1726074 C4.15700116,10.1726074 4.33337302,10.3489793 4.33337302,10.566545 C4.33337302,10.7599368 4.19401747,10.9207803 4.01024621,10.9541357 L3.93943543,10.9604826 L2.75762266,10.9604826 C2.14331945,10.9604826 1.63848641,10.4917851 1.5812199,9.8924863 L1.57580989,9.77866984 L1.575,3.619 L0.596676343,4.20740469 C0.410115274,4.31934133 0.16813507,4.25884628 0.0561984284,4.07228521 C-0.0433008082,3.90645315 -0.00655771996,3.69683313 0.133863598,3.57368153 L0.191317907,3.5318073 L5.89053351,0.112277931 C6.11899512,-0.0247990341 6.39900437,-0.0360932549 6.63548661,0.0769253933 Z" id="形状结合" stroke="#5693FF" stroke-width="0.2" fill="#5693FF"></path>
                </g>
            </g>
        </g>
    </g>
</svg>
