<?xml version="1.0" encoding="UTF-8"?>
<svg width="14px" height="14px" viewBox="0 0 14 14" version="1.1" xmlns="http://www.w3.org/2000/svg" xmlns:xlink="http://www.w3.org/1999/xlink">
    <title>icon_qygy_kh</title>
    <g id="页面-1" stroke="none" stroke-width="1" fill="none" fill-rule="evenodd">
        <g id="02地区经济_进度" transform="translate(-234.000000, -294.000000)" fill="#5693FF" fill-rule="nonzero">
            <g id="icon_qygy_kh" transform="translate(234.000000, 294.000000)">
                <path d="M6.98121166,6.51150307 C8.27291028,6.51150307 9.3297546,5.45465874 9.3297546,4.16296012 C9.3297546,2.8712615 8.27291028,1.81441718 6.98121166,1.81441718 C5.68951304,1.81441718 4.63266871,2.8712615 4.63266871,4.16296012 C4.63266871,5.45465874 5.68951304,6.51150307 6.98121166,6.51150307 Z M4.93797929,6.74635736 C4.18644555,6.1357362 3.69325153,5.21980445 3.69325153,4.16296012 C3.69325153,2.35458206 5.17283359,0.875 6.98121166,0.875 C8.78958972,0.875 10.2691718,2.35458206 10.2691718,4.16296012 C10.2691718,5.19631902 9.77597776,6.1357362 9.02444402,6.74635736 C11.372987,7.42743482 13.0874233,9.58809433 13.0874233,12.1480061 C13.0874233,12.9230253 12.4533167,13.5571319 11.6782975,13.5571319 L2.28412577,13.5571319 C1.5091066,13.5571319 0.875,12.9230253 0.875,12.1480061 C0.875,9.58809433 2.58943635,7.42743482 4.93797929,6.74635736 Z M11.6782975,12.6177147 C11.9366373,12.6177147 12.1480061,12.4063459 12.1480061,12.1480061 C12.1480061,9.5646089 10.0343175,7.45092025 7.45092025,7.45092025 L6.51150307,7.45092025 C3.92810583,7.45092025 1.81441718,9.5646089 1.81441718,12.1480061 C1.81441718,12.4063459 2.02578604,12.6177147 2.28412577,12.6177147 L11.6782975,12.6177147 Z" id="形状"></path>
                <path d="M6.6993865,8.76610429 C6.58195936,8.67216258 6.51150307,8.55473543 6.51150307,8.39033742 C6.51150307,8.1319977 6.72287193,7.92062883 6.98121166,7.92062883 C7.23955138,7.92062883 7.45092025,8.1319977 7.45092025,8.39033742 C7.45092025,8.55473543 7.38046396,8.67216258 7.26303681,8.76610429 L7.8971434,10.9972201 C7.94411426,11.1616181 7.8971434,11.3260161 7.77971626,11.4434433 L7.14560966,12.0775498 C7.05166794,12.1714916 6.91075537,12.1714916 6.81681365,12.0775498 L6.18270706,11.4434433 C6.06527991,11.3260161 6.01830905,11.1616181 6.06527991,10.9972201 L6.6993865,8.76610429 Z" id="路径" opacity="0.6"></path>
            </g>
        </g>
    </g>
</svg>
