<?xml version="1.0" encoding="UTF-8"?>
<svg width="13px" height="13px" viewBox="0 0 13 13" version="1.1" xmlns="http://www.w3.org/2000/svg" xmlns:xlink="http://www.w3.org/1999/xlink">
    <title>形状</title>
    <g id="页面-1" stroke="none" stroke-width="1" fill="none" fill-rule="evenodd">
        <g id="01区域评分" transform="translate(-1187.000000, -113.000000)" fill="#0171F5" fill-rule="nonzero">
            <g id="-mockplus-" transform="translate(1187.000000, 109.000000)">
                <g id="编组" transform="translate(0.000000, 4.000000)">
                    <path d="M6.5,5.68434189e-14 C2.91012744,5.68434189e-14 5.32907052e-15,2.91015382 5.32907052e-15,6.5 C5.32907052e-15,10.0898462 2.91015714,13 6.5,13 C10.0898429,13 13,10.0898462 13,6.5 C13,2.91015382 10.0898577,5.68434189e-14 6.5,5.68434189e-14 Z M6.50000742,12.0663958 C3.42576388,12.0663958 0.933620095,9.57422518 0.933620095,6.50000001 C0.933620095,3.42575999 3.42574904,0.933619043 6.50000742,0.933619043 C9.57422125,0.933619043 12.0663948,3.42575999 12.0663948,6.50000001 C12.0663948,9.57422518 9.57422127,12.0663958 6.50000742,12.0663958 Z M6.36394701,3.00373703 C5.407217,3.03511956 4.40345027,3.50561982 4.07410416,4.96420183 C4.85828207,5.07400355 5.23470945,5.12105506 5.23470945,5.12105506 C5.23470945,5.12105506 5.43861442,3.86633323 6.69330798,4.00750261 C7.9480164,4.14867199 7.66572186,5.08970223 7.5402213,5.27790828 C7.41476532,5.59159987 6.25416003,6.34442406 6.06593892,6.7992405 C5.87773266,7.25407178 5.89341651,8.10101384 5.89341651,8.10101384 L7.02266893,8.10101384 C7.02266893,8.10101384 6.95991866,7.20702026 7.58728771,6.83060817 C8.21464192,6.45419609 9.28114407,5.35631262 8.81064326,4.30549553 C8.05780336,3.09784005 7.32066217,2.97236935 6.36394701,3.00373703 Z M5.8777475,8.52446259 L7.05403664,8.52446259 L7.05403664,9.81037387 L5.8777475,9.81037387 L5.8777475,8.52446259 L5.8777475,8.52446259 Z" id="形状"></path>
                </g>
            </g>
        </g>
    </g>
</svg>