<?xml version="1.0" encoding="UTF-8"?>
<svg width="15px" height="14px" viewBox="0 0 15 14" version="1.1" xmlns="http://www.w3.org/2000/svg" xmlns:xlink="http://www.w3.org/1999/xlink">
    <title>icon_qygy_kh</title>
    <g id="页面-1" stroke="none" stroke-width="1" fill="none" fill-rule="evenodd">
        <g id="图标" transform="translate(-22.000000, -79.000000)" fill-rule="nonzero">
            <g id="icon_qygy_kh" transform="translate(22.500000, 79.000000)">
                <g id="编组-5" transform="translate(0.500000, 0.916528)">
                    <path d="M5.95097554,0.211426664 L0.303706343,5.07167403 C-0.0619306361,5.38635465 -0.103238928,5.93786103 0.211441691,6.30349801 C0.377374418,6.49630029 0.619111501,6.60718932 0.873486007,6.60718932 L12.126529,6.60718932 C12.6089337,6.60718932 13,6.21612304 13,5.73371835 C13,5.48045653 12.8900752,5.2396633 12.6987202,5.07375717 L7.09294642,0.213509806 C6.76551292,-0.0703774631 6.27944257,-0.0712641351 5.95097554,0.211426664 Z M6.52028078,0.910060056 L12.0509863,5.70502123 L0.949001147,5.70502123 L6.52028078,0.910060056 Z" id="路径-13" fill="#5693FF"></path>
                    <polygon id="路径-14" fill="#5693FF" points="3.14383647 6.1756812 3.14383647 12.0363897 2.24218901 12.0363897 2.24218901 6.1756812"></polygon>
                    <polygon id="路径-14" fill="#5693FF" points="5.67971994 6.1756812 5.67971994 12.0363897 4.77807248 12.0363897 4.77807248 6.1756812"></polygon>
                    <polygon id="路径-14" fill="#5693FF" points="8.21560341 6.1756812 8.21560341 12.0363897 7.31395595 12.0363897 7.31395595 6.1756812"></polygon>
                    <polygon id="路径-14" fill="#5693FF" points="10.7514869 6.1756812 10.7514869 12.0363897 9.84983942 12.0363897 9.84983942 6.1756812"></polygon>
                    <path d="M12.4138994,11.1669439 C12.6628824,11.1669439 12.8647231,11.3687846 12.8647231,11.6177676 C12.8647231,11.8390859 12.7052441,12.0231559 12.4949355,12.061328 L12.4138994,12.0685914 L0.579776513,12.0685914 C0.330793444,12.0685914 0.128952785,11.8667507 0.128952785,11.6177676 C0.128952785,11.3964493 0.288431824,11.2123794 0.498740378,11.1742073 L0.579776513,11.1669439 L12.4138994,11.1669439 Z" id="路径-15" fill="#5693FF"></path>
                    <path d="M8.18742692,4.05036934 C8.43640999,4.05036934 8.63825065,4.25221 8.63825065,4.50119307 C8.63825065,4.72251135 8.47877161,4.90658131 8.26846306,4.94475342 L8.18742692,4.95201679 L4.80624896,4.95201679 C4.55726589,4.95201679 4.35542524,4.75017614 4.35542524,4.50119307 C4.35542524,4.27987478 4.51490427,4.09580482 4.72521283,4.05763271 L4.80624896,4.05036934 L8.18742692,4.05036934 Z" id="路径-16" fill="#9ABEFF"></path>
                </g>
            </g>
        </g>
    </g>
</svg>
