<?xml version="1.0" encoding="UTF-8"?>
<svg width="15px" height="14px" viewBox="0 0 15 14" version="1.1" xmlns="http://www.w3.org/2000/svg" xmlns:xlink="http://www.w3.org/1999/xlink">
    <title>icon_qygy_kh</title>
    <g id="页面-1" stroke="none" stroke-width="1" fill="none" fill-rule="evenodd">
        <g id="图标" transform="translate(-122.000000, -19.000000)" fill-rule="nonzero" stroke-width="0.1">
            <g id="icon_qygy_kh" transform="translate(122.500000, 19.000000)">
                <path d="M12.9796748,10.5333333 L1.0203252,10.5333333 C0.733143165,10.5328857 0.500447674,10.3001902 0.5,10.0130081 L0.5,1.5203252 C0.5,1.23414634 0.734146341,1 1.0203252,1 L12.9796748,1 C13.2658537,1 13.5,1.23414634 13.5,1.5203252 L13.5,10.0130081 C13.5,10.299187 13.2658537,10.5333333 12.9796748,10.5333333 Z M1.36666667,9.66666667 L12.6325203,9.66666667 L12.6325203,1.86666667 L1.36666667,1.86666667 L1.36666667,9.66666667 Z M10.9081301,13.195122 L3.1097561,13.195122 C2.99449623,13.1962187 2.88363783,13.1509163 2.8021331,13.0694116 C2.72062838,12.9879069 2.67532602,12.8770485 2.6764033,12.7617886 C2.6764033,12.5195122 2.86666667,12.3284553 3.1097561,12.3284553 L10.9089431,12.3284553 C11.1520325,12.3284553 11.3422764,12.5195122 11.3422764,12.7617886 C11.3413848,13.0007417 11.1478962,13.1942303 10.9089431,13.195122 L10.9081301,13.195122 Z" id="形状" stroke="#5693FF" fill="#5693FF"></path>
                <path d="M7.44646168,3.68617886 L7.44646168,8.0195122 C7.44755843,8.13477206 7.40225607,8.24563047 7.32075134,8.32713519 C7.23924662,8.40863991 7.12838822,8.45394227 7.01312835,8.45286499 C6.89786848,8.45394227 6.78701008,8.40863991 6.70550536,8.32713519 C6.62400063,8.24563047 6.57869827,8.13477206 6.57979502,8.0195122 L6.57979502,3.68617886 C6.57979502,3.44390244 6.77085193,3.25284553 7.01312835,3.25284553 C7.24727469,3.25284553 7.44646168,3.45284553 7.44646168,3.68617886 Z M4.3097561,4.55284553 L4.3097561,7.15284553 C4.31085284,7.26810539 4.26555048,7.3789638 4.18404576,7.46046852 C4.10254104,7.54197324 3.99168263,7.58727561 3.87642276,7.58619832 C3.7611629,7.58727561 3.65030449,7.54197324 3.56879977,7.46046852 C3.48729505,7.3789638 3.44199269,7.26810539 3.44308943,7.15284553 L3.44308943,4.55284553 C3.44308943,4.31056911 3.63414634,4.1195122 3.87642276,4.1195122 C4.11056911,4.1195122 4.3097561,4.3195122 4.3097561,4.55284553 L4.3097561,4.55284553 Z M10.5831673,4.1195122 L10.5831673,7.58617886 C10.584264,7.70143873 10.5389617,7.81229713 10.4574569,7.89380186 C10.3759522,7.97530658 10.2650938,8.02060894 10.1498339,8.01953165 C10.0345741,8.02060894 9.92371567,7.97530658 9.84221094,7.89380186 C9.76070622,7.81229713 9.71540386,7.70143873 9.7165006,7.58617886 L9.7165006,4.1195122 C9.7165006,3.87723577 9.90674451,3.68617886 10.1498339,3.68617886 C10.3831673,3.68617886 10.5831673,3.88617886 10.5831673,4.1195122 Z" id="形状" stroke="#9ABEFF" fill="#9ABEFF"></path>
            </g>
        </g>
    </g>
</svg>
