<?xml version="1.0" encoding="UTF-8"?>
<svg width="15px" height="14px" viewBox="0 0 15 14" version="1.1" xmlns="http://www.w3.org/2000/svg" xmlns:xlink="http://www.w3.org/1999/xlink">
    <title>icon_qygy_kh</title>
    <g id="页面-1" stroke="none" stroke-width="1" fill="none" fill-rule="evenodd">
        <g id="图标" transform="translate(-232.000000, -109.000000)" fill-rule="nonzero">
            <g id="icon_qygy_kh" transform="translate(232.500000, 109.000000)">
                <g id="编组-6" transform="translate(0.035714, 0.928635)">
                    <path d="M8.35593192,3.69845576 L11.4542556,5.24761762 C11.9479124,5.49444598 12.2737309,5.9791757 12.3209358,6.52256827 L12.3268685,6.65953483 L12.3268685,11.5159307 L11.398297,11.5159307 L11.398297,6.65953483 C11.398297,6.44410822 11.2917974,6.24485989 11.1176493,6.12465223 L11.0389859,6.07815715 L7.94066215,4.52899529 L8.35593192,3.69845576 Z" id="路径-2" fill="#9ABEFF"></path>
                    <path d="M7.6112314,0 C8.2266344,0 8.72551711,0.498882707 8.72551711,1.11428571 L8.72551711,11.100012 C8.72551711,11.6128478 8.30978152,12.0285834 7.79694568,12.0285834 L2.22551711,12.0285834 C1.71268127,12.0285834 1.29694568,11.6128478 1.29694568,11.100012 L1.29694568,1.11428571 C1.29694568,0.498882707 1.79582839,0 2.4112314,0 L7.6112314,0 Z M7.6112314,0.928571429 L2.4112314,0.928571429 C2.32575876,0.928571429 2.25377226,0.986312483 2.232151,1.0649155 L2.22551711,1.11428571 L2.22551711,11.100012 L7.79694568,11.100012 L7.79694568,1.11428571 C7.79694568,1.02881307 7.73920463,0.95682658 7.66060161,0.935205322 L7.6112314,0.928571429 Z" id="矩形" fill="#5693FF"></path>
                    <path d="M13.4642857,11.144505 C13.7207036,11.144505 13.9285714,11.3523728 13.9285714,11.6087907 C13.9285714,11.8367178 13.7643302,12.0262842 13.5477417,12.0655962 L13.4642857,12.0730765 L0.464285714,12.0730765 C0.207867795,12.0730765 0,11.8652087 0,11.6087907 C0,11.3808637 0.164241221,11.1912973 0.38082977,11.1519853 L0.464285714,11.144505 L13.4642857,11.144505 Z" id="路径-3" fill="#5693FF"></path>
                    <path d="M6.34621594,3.70866266 C6.60263386,3.70866266 6.81050166,3.91653045 6.81050166,4.17294837 C6.81050166,4.40087541 6.64626044,4.59044186 6.42967189,4.62975382 L6.34621594,4.63723409 L3.56050166,4.63723409 C3.30408374,4.63723409 3.09621594,4.42936629 3.09621594,4.17294837 C3.09621594,3.94502133 3.26045716,3.75545489 3.47704571,3.71614292 L3.56050166,3.70866266 L6.34621594,3.70866266 Z" id="路径-4" fill="#5693FF"></path>
                    <path d="M5.75408854,6.92144057 C6.0831582,6.92144057 6.35511404,7.16597394 6.3981548,7.48323942 L6.40408854,7.57144057 L6.40408854,12.0285834 L5.47551711,12.0285834 L5.47485714,7.84921429 L4.54628571,7.84921429 L4.54694568,12.0285834 L3.61837425,12.0285834 L3.61837425,7.57144057 C3.61837425,7.24237091 3.86290762,6.97041507 4.1801731,6.92737431 L4.26837425,6.92144057 L5.75408854,6.92144057 Z" id="路径-5" fill="#5693FF"></path>
                </g>
            </g>
        </g>
    </g>
</svg>
