<?xml version="1.0" encoding="UTF-8"?>
<svg width="15px" height="14px" viewBox="0 0 15 14" version="1.1" xmlns="http://www.w3.org/2000/svg" xmlns:xlink="http://www.w3.org/1999/xlink">
    <title>icon_qygy_kh</title>
    <g id="页面-1" stroke="none" stroke-width="1" fill="none" fill-rule="evenodd">
        <g id="图标" transform="translate(-122.000000, -49.000000)" fill-rule="nonzero" stroke-width="0.1">
            <g id="icon_qygy_kh" transform="translate(122.500000, 49.000000)">
                <path d="M11.9528796,12.8359511 L2.04013962,12.8359511 C1.92844677,12.8359511 1.83769634,12.7452007 1.83769634,12.6335079 L1.83769634,1.35951134 C1.83769634,1.2478185 1.92844677,1.15706806 2.04013962,1.15706806 L9.77486911,1.15706806 L9.77486911,3.55148342 C9.77486911,3.78184991 9.96335079,3.97033159 10.1937173,3.97033159 L12.1623037,3.97033159 L12.1623037,12.6265271 C12.1623037,12.7452007 12.0715532,12.8359511 11.9528796,12.8359511 L11.9528796,12.8359511 Z M10.6125654,1.84816754 L11.7015707,3.13961606 L10.6125654,3.13961606 L10.6125654,1.84816754 Z M12.895288,3.2582897 L10.5427574,0.472949389 C10.4659686,0.382198953 10.3472949,0.326352531 10.2216405,0.326352531 L2.04013962,0.326352531 C1.46771379,0.326352531 1,0.794066318 1,1.36649215 L1,12.6335079 C1,13.2059337 1.46771379,13.6736475 2.04013962,13.6736475 L11.9598604,13.6736475 C12.5322862,13.6736475 13,13.2059337 13,12.6335079 L13,3.52356021 C12.9930192,3.42582897 12.9581152,3.32809773 12.895288,3.2582897 Z" id="形状" stroke="#5793FF" fill="#5693FF"></path>
                <path d="M8.46945899,5.05933682 L4.34380454,5.05933682 C4.11343805,5.05933682 3.92495637,4.87085515 3.92495637,4.64048866 C3.92495637,4.41012216 4.11343805,4.22164049 4.34380454,4.22164049 L8.46945899,4.22164049 C8.69982548,4.22164049 8.88830716,4.41012216 8.88830716,4.64048866 C8.88830716,4.87085515 8.69982548,5.05933682 8.46945899,5.05933682 Z M8.46945899,7.60732984 L4.34380454,7.60732984 C4.11343805,7.60732984 3.92495637,7.41884817 3.92495637,7.18848168 C3.92495637,6.95811518 4.11343805,6.76963351 4.34380454,6.76963351 L8.46945899,6.76963351 C8.69982548,6.76963351 8.88830716,6.95811518 8.88830716,7.18848168 C8.88830716,7.42582897 8.69982548,7.60732984 8.46945899,7.60732984 Z M6.29842932,10.2600349 L4.34380454,10.2600349 C4.11343805,10.2600349 3.92495637,10.0715532 3.92495637,9.84118674 C3.92495637,9.61082024 4.11343805,9.42233857 4.34380454,9.42233857 L6.29842932,9.42233857 C6.52879581,9.42233857 6.71727749,9.61082024 6.71727749,9.84118674 C6.71727749,10.0715532 6.52879581,10.2600349 6.29842932,10.2600349 L6.29842932,10.2600349 Z" id="形状" stroke="#9ABEFE" fill="#9ABEFF"></path>
            </g>
        </g>
    </g>
</svg>
