<?xml version="1.0" encoding="UTF-8"?>
<svg width="15px" height="14px" viewBox="0 0 15 14" version="1.1" xmlns="http://www.w3.org/2000/svg" xmlns:xlink="http://www.w3.org/1999/xlink">
    <title>icon_qygy_kh</title>
    <g id="页面-1" stroke="none" stroke-width="1" fill="none" fill-rule="evenodd">
        <g id="图标" transform="translate(-232.000000, -79.000000)" fill-rule="nonzero">
            <g id="icon_qygy_kh" transform="translate(232.500000, 79.000000)">
                <g id="编组-115" transform="translate(0.500000, 0.224269)">
                    <path d="M6.88346517,0.115128923 L0.838410316,2.73822965 C0.329370216,2.9591149 0,3.46107927 0,4.01597756 L0,12.3828743 C0,13.152128 0.623603384,13.7757314 1.39285714,13.7757314 L8.88562346,13.7757314 C9.07611426,13.7757314 9.25419706,13.6812323 9.36097981,13.5234851 C9.53869382,13.260953 9.4699352,12.9040631 9.20740314,12.7263491 L7.16830845,11.3460388 C7.04071878,11.2596704 6.96428571,11.1156329 6.96428571,10.9615594 L6.96428571,6.46857837 C6.96428571,6.28965352 7.06710107,6.12665074 7.22857454,6.04957662 L9.46362704,4.98274682 C9.94804744,4.75152446 10.2564935,4.26251611 10.2564935,3.72574157 L10.2564935,2.599259 C10.2564935,2.1895493 10.0761084,1.80061976 9.76334163,1.53597095 L8.33761726,0.329588798 C7.93314386,-0.0126579271 7.36951883,-0.095781937 6.88346517,0.115128923 Z M7.73781375,1.03844749 L9.16353812,2.24482965 C9.26779371,2.33304592 9.32792208,2.4626891 9.32792208,2.599259 L9.32792208,3.72574157 C9.32792208,3.90466641 9.22510672,4.0676692 9.06363325,4.14474332 L6.82858075,5.21157311 C6.34416035,5.44279547 6.03571429,5.93180383 6.03571429,6.46857837 L6.03571429,10.9615594 L6.04251743,11.0991794 C6.08310882,11.5084722 6.30329037,11.881803 6.6477825,12.1149976 L7.72942857,12.84716 L1.39285714,12.84716 C1.13643922,12.84716 0.928571429,12.6392922 0.928571429,12.3828743 L0.928571429,4.01597756 C0.928571429,3.83101147 1.0383615,3.66369001 1.20804153,3.59006159 L7.25309639,0.966960866 C7.41511428,0.896657247 7.60298928,0.92436525 7.73781375,1.03844749 Z" id="路径-121" fill="#5693FF"></path>
                    <path d="M5.27597403,5.20430283 C5.53239195,5.20430283 5.74025974,5.41217062 5.74025974,5.66858854 C5.74025974,5.89651558 5.57601852,6.08608203 5.35942997,6.12539399 L5.27597403,6.13287425 L2.49025974,6.13287425 C2.23384182,6.13287425 2.02597403,5.92500646 2.02597403,5.66858854 C2.02597403,5.4406615 2.19021525,5.25109505 2.4068038,5.21178309 L2.49025974,5.20430283 L5.27597403,5.20430283 Z" id="路径-122" fill="#5693FF"></path>
                    <path d="M4.68506494,7.49001711 C4.94148285,7.49001711 5.14935065,7.69788491 5.14935065,7.95430283 C5.14935065,8.18222987 4.98510943,8.37179631 4.76852088,8.41110828 L4.68506494,8.41858854 L2.49025974,8.41858854 C2.23384182,8.41858854 2.02597403,8.21072075 2.02597403,7.95430283 C2.02597403,7.72637579 2.19021525,7.53680934 2.4068038,7.49749738 L2.49025974,7.49001711 L4.68506494,7.49001711 Z" id="路径-122" fill="#5693FF"></path>
                    <path d="M9.7634108,5.4500749 L8.11667624,6.20036225 C7.85180621,6.32104267 7.68181818,6.58529342 7.68181818,6.87636025 L7.68181818,9.36795251 C7.68181818,10.3530609 8.16822307,11.2746339 8.98153513,11.8304774 L9.86936064,12.4372457 C10.1536961,12.6315696 10.5281221,12.6315696 10.8124575,12.4372457 L11.700283,11.8304774 C12.5135951,11.2746339 13,10.3530609 13,9.36795251 L13,6.87636025 C13,6.58529342 12.830012,6.32104267 12.5651419,6.20036225 L10.9184074,5.4500749 C10.5515504,5.28292704 10.1302678,5.28292704 9.7634108,5.4500749 Z M12.0705,6.99437425 L12.0714286,9.36795251 L12.0655322,9.5236404 C12.0185615,10.1425272 11.6933661,10.7104906 11.1763403,11.0638426 L10.3405714,11.6335171 L9.50547785,11.0638426 L9.38026788,10.9711282 C8.89581381,10.5831445 8.61038961,9.99418986 8.61038961,9.36795251 L8.60971429,6.99530283 L10.1484097,6.2950724 C10.2706953,6.23935645 10.4111229,6.23935645 10.5334085,6.2950724 L12.0705,6.99437425 Z" id="路径-123" fill="#9ABEFF"></path>
                </g>
            </g>
        </g>
    </g>
</svg>
