<?xml version="1.0" encoding="UTF-8"?>
<svg width="16px" height="16px" viewBox="0 0 16 16" version="1.1" xmlns="http://www.w3.org/2000/svg" xmlns:xlink="http://www.w3.org/1999/xlink">
    <title>编组 12</title>
    <g id="页面-1备份" stroke="none" stroke-width="1" fill="none" fill-rule="evenodd">
        <g id="03地区头部标题_超大/特大城市下拉浮窗" transform="translate(-685.000000, -115.000000)" fill="#0171F6" fill-rule="nonzero">
            <g id="弹窗" transform="translate(423.000000, 96.000000)">
                <g id="头" transform="translate(14.000000, 17.000000)">
                    <g id="链接" transform="translate(248.000000, 0.000000)">
                        <g id="编组-12" transform="translate(0.000000, 2.000000)">
                            <g id="lianjie" transform="translate(2.000000, 2.000000)">
                                <path d="M7.07514451,8.1627907 L6.86705202,8.1627907 C6.38150289,8.1627907 5.96531792,8.02325581 5.54913295,7.74418605 C5.13294798,7.53488372 4.78612717,7.18604651 4.50867052,6.8372093 C4.3699422,6.62790698 4.3699422,6.27906977 4.64739884,6.06976744 C4.85549133,5.93023256 5.20231214,5.93023256 5.34104046,6.20930233 C5.54913295,6.48837209 5.75722543,6.69767442 6.03468208,6.8372093 C6.31213873,6.97674419 6.58959538,7.11627907 6.93641618,7.11627907 C7.28323699,7.11627907 7.56069364,7.11627907 7.90751445,6.97674419 C8.1849711,6.8372093 8.46242775,6.69767442 8.67052023,6.48837209 L10.3352601,4.81395349 C10.7514451,4.39534884 10.9595376,3.8372093 10.9595376,3.27906977 C10.9595376,2.72093023 10.7514451,2.1627907 10.3352601,1.74418605 C9.91907514,1.3255814 9.36416185,1.11627907 8.80924855,1.11627907 C8.25433526,1.11627907 7.69942197,1.3255814 7.21387283,1.74418605 L6.24277457,2.65116279 C6.03468208,2.86046512 5.68786127,2.86046512 5.47976879,2.65116279 C5.2716763,2.37209302 5.2716763,2.09302326 5.47976879,1.88372093 L6.45086705,0.906976744 C7.07514451,0.279069767 7.90751445,0 8.73988439,0 C9.57225434,0 10.4046243,0.348837209 11.0289017,0.976744186 C11.6531792,1.60465116 12,2.37209302 12,3.27906977 C12,4.11627907 11.6531792,4.95348837 11.0982659,5.58139535 L9.43352601,7.25581395 C9.0867052,7.60465116 8.73988439,7.81395349 8.25433526,8.02325581 C7.83815029,8.09302326 7.49132948,8.1627907 7.07514451,8.1627907 L7.07514451,8.1627907 Z" id="路径"></path>
                                <path d="M3.26011561,12 C2.3583815,12 1.52601156,11.6511628 0.971098266,11.0232558 C0.346820809,10.3953488 0,9.62790698 0,8.72093023 C0,7.88372093 0.346820809,7.04651163 0.901734104,6.41860465 L2.56647399,4.74418605 C2.9132948,4.39534884 3.26011561,4.18604651 3.74566474,3.97674419 C4.16184971,3.8372093 4.64739884,3.76744186 5.13294798,3.76744186 C5.61849711,3.76744186 6.03468208,3.90697674 6.45086705,4.18604651 C6.86705202,4.39534884 7.21387283,4.74418605 7.49132948,5.09302326 C7.6300578,5.30232558 7.6300578,5.65116279 7.35260116,5.79069767 C7.14450867,5.93023256 6.79768786,5.93023256 6.65895954,5.65116279 C6.45086705,5.37209302 6.24277457,5.1627907 5.96531792,5.02325581 C5.61849711,4.95348837 5.34104046,4.88372093 4.99421965,4.88372093 C4.64739884,4.88372093 4.3699422,4.88372093 4.02312139,5.02325581 C3.8150289,5.09302326 3.53757225,5.30232558 3.26011561,5.51162791 L1.59537572,7.18604651 C1.17919075,7.60465116 0.971098266,8.1627907 0.971098266,8.72093023 C0.971098266,9.27906977 1.17919075,9.8372093 1.59537572,10.255814 C2.01156069,10.6744186 2.56647399,10.8837209 3.12138728,10.8837209 C3.74566474,10.8837209 4.23121387,10.6744186 4.71676301,10.255814 L5.61849711,9.34883721 C5.8265896,9.13953488 6.1734104,9.13953488 6.38150289,9.34883721 C6.58959538,9.55813953 6.58959538,9.90697674 6.38150289,10.1162791 L5.41040462,11.0930233 C4.92485549,11.6511628 4.09248555,12 3.26011561,12 L3.26011561,12 Z" id="路径"></path>
                            </g>
                        </g>
                    </g>
                </g>
            </g>
        </g>
    </g>
</svg>