<?xml version="1.0" encoding="UTF-8"?>
<svg width="22px" height="14px" viewBox="0 0 22 14" version="1.1" xmlns="http://www.w3.org/2000/svg" xmlns:xlink="http://www.w3.org/1999/xlink">
    <title>PK (4)</title>
    <defs>
        <linearGradient x1="18.4853816%" y1="89.5061728%" x2="77.9786523%" y2="10.4938272%" id="linearGradient-1">
            <stop stop-color="#41C1FF" offset="0%"></stop>
            <stop stop-color="#2589FF" offset="100%"></stop>
        </linearGradient>
        <path d="M7.17991038,3.75309043 L7.70618132,1.39713528 L3.10495638,1.39713528 L1.43692341,8 L0,8 L2.13944443,0 L7.98520207,0 C8.16520341,0 8.33106178,0.0509473672 8.48234862,0.152842102 C8.63363546,0.255157891 8.75235062,0.398736836 8.83892269,0.584421055 C8.92506619,0.769684211 8.97735229,0.990315789 8.99535242,1.24547369 C9.01335256,1.50021053 8.97906659,1.78105263 8.89249452,2.0871579 L8.64392124,3.0471579 C8.56726596,3.33797765 8.44909273,3.61667231 8.29291864,3.87494737 C8.14920827,4.11595529 7.98532796,4.36971628 7.81804043,4.53596628 C7.6507529,4.70221628 7.3856262,4.89346019 7.17991038,5.00503914 C6.97462315,5.11619704 6.78562175,5.14778948 6.61290618,5.14778948 L3.7063132,5.14778948 L4.08092668,3.75309043 L7.17991038,3.75309043 Z" id="path-2"></path>
        <linearGradient x1="17.9549839%" y1="89.5061728%" x2="61.3356925%" y2="10.4938272%" id="linearGradient-3">
            <stop stop-color="#FFA72C" offset="0%"></stop>
            <stop stop-color="#FF7500" offset="100%"></stop>
        </linearGradient>
        <polygon id="path-4" points="12.8563038 0.0141787804 11.9413639 3.0326324 16.1702338 -5.58219695e-05 18 -5.58219695e-05 12.6255744 4 15.8178656 7.9857654 14.1526468 7.9857654 11.4497519 4.61505199 10.4642983 8 9 8 11.3456755 -5.58219695e-05"></polygon>
    </defs>
    <g id="#_230728" stroke="none" stroke-width="1" fill="none" fill-rule="evenodd">
        <g id="2-2.区域f9-入口" transform="translate(-1121.000000, -73.000000)">
            <g id="编组-109" transform="translate(0.000000, 62.000000)">
                <g id="编组-21" transform="translate(981.000000, 8.000000)">
                    <g id="编组-34备份" transform="translate(140.000000, 0.000000)">
                        <g id="PK-(4)" transform="translate(0.000000, 3.000000)">
                            <rect id="矩形" fill="#F1F7FF" x="0" y="0" width="22" height="14" rx="2"></rect>
                            <g id="编组-17" transform="translate(2.000000, 3.000000)" fill-rule="nonzero">
                                <g id="路径">
                                    <use fill="url(#linearGradient-1)" xlink:href="#path-2"></use>
                                    <use fill="#0171F6" xlink:href="#path-2"></use>
                                </g>
                                <g id="路径">
                                    <use fill="url(#linearGradient-3)" xlink:href="#path-4"></use>
                                    <use fill="#FF7500" xlink:href="#path-4"></use>
                                </g>
                            </g>
                        </g>
                    </g>
                </g>
            </g>
        </g>
    </g>
</svg>