<?xml version="1.0" encoding="UTF-8"?>
<svg width="12px" height="12px" viewBox="0 0 12 12" version="1.1" xmlns="http://www.w3.org/2000/svg" xmlns:xlink="http://www.w3.org/1999/xlink">
    <title>搜索备份 12</title>
    <g id="页面-1" stroke="none" stroke-width="1" fill="none" fill-rule="evenodd">
        <g id="18黑名单榜单搜索样式" transform="translate(-759.000000, -74.000000)" fill="#0171F6" fill-rule="nonzero">
            <g id="编组-16" transform="translate(60.000000, 57.000000)">
                <g id="编组-10" transform="translate(687.000000, 9.000000)">
                    <g id="搜索" transform="translate(12.000000, 8.000000)">
                        <path d="M5.43557273,10.8702601 L5.43557249,10.8702601 C2.43383463,10.8702601 0.00044507544,8.43686529 0.00044507544,5.43512742 C0.00044507544,2.43338955 2.43383463,3.63797881e-12 5.43557249,3.63797881e-12 C8.43731036,3.63797881e-12 10.8707,2.43338955 10.8707,5.43512742 L10.8707,5.43507412 C10.8674241,8.43544089 8.43599792,10.8669203 5.43561943,10.8702601 L5.43557273,10.8702601 Z M5.43557273,1.12450716 L5.43557254,1.12450716 C3.05364008,1.12450716 1.12270424,3.05544496 1.12270424,5.43737742 C1.12270424,7.81930988 3.05364008,9.75024572 5.43557254,9.75024572 C7.817505,9.75024572 9.74844094,7.81930988 9.74844094,5.43737742 L9.74844094,5.4374575 C9.74559349,3.05672035 7.8163801,1.12744857 5.43565467,1.12450716 L5.43557273,1.12450716 Z" id="形状"></path>
                        <path d="M11.2447865,11.9947405 L11.2447865,11.9947405 C11.0459777,11.9946981 10.8553263,11.915687 10.714768,11.7750864 L9.21542246,10.2757409 L9.2154224,10.2757408 C8.90290759,10.0041573 8.86972708,9.53065128 9.14131036,9.21813646 C9.41289388,8.90562164 9.8863999,8.87244114 10.1989147,9.14402442 C10.2262548,9.16778375 10.251837,9.19349319 10.2754603,9.22095084 L11.7748058,10.7202963 L11.7748058,10.7202963 C12.0675276,11.0131061 12.0674549,11.4877722 11.7746457,11.7804941 C11.6341003,11.9209973 11.443518,11.9999455 11.2447865,11.9999877 L11.2447865,11.9947405 Z" id="路径"></path>
                    </g>
                </g>
            </g>
        </g>
    </g>
</svg>