<?xml version="1.0" encoding="UTF-8"?>
<svg width="10px" height="10px" viewBox="0 0 10 10" version="1.1" xmlns="http://www.w3.org/2000/svg" xmlns:xlink="http://www.w3.org/1999/xlink">
    <title>形状结合 2</title>
    <g id="页面-1" stroke="none" stroke-width="1" fill="none" fill-rule="evenodd">
        <g id="02黑名单列表" transform="translate(-1075.000000, -294.000000)" fill="#BFBFBF">
            <g id="编组-16" transform="translate(60.000000, 57.000000)">
                <g id="编组-20" transform="translate(24.000000, 232.000000)">
                    <g id="编组-22" transform="translate(898.000000, 0.000000)">
                        <g id="编组-21备份" transform="translate(93.000000, 2.000000)">
                            <g id="形状结合-2" transform="translate(0.000000, 3.000000)">
                                <path d="M5,0 C5.27614237,-5.07265313e-17 5.5,0.223857625 5.5,0.5 L5.499,4.499 L9.5,4.5 C9.77614237,4.5 10,4.72385763 10,5 C10,5.27614237 9.77614237,5.5 9.5,5.5 L5.499,5.499 L5.5,9.5 C5.5,9.77614237 5.27614237,10 5,10 C4.72385763,10 4.5,9.77614237 4.5,9.5 L4.499,5.499 L0.5,5.5 C0.223857625,5.5 0,5.27614237 0,5 C0,4.72385763 0.223857625,4.5 0.5,4.5 L4.499,4.499 L4.5,0.5 C4.5,0.223857625 4.72385763,-6.02957711e-17 5,0 Z" id="形状结合"></path>
                            </g>
                        </g>
                    </g>
                </g>
            </g>
        </g>
    </g>
</svg>