<?xml version="1.0" encoding="UTF-8"?>
<svg width="13px" height="13px" viewBox="0 0 13 13" version="1.1" xmlns="http://www.w3.org/2000/svg" xmlns:xlink="http://www.w3.org/1999/xlink">
    <title>icon_shijian@2x</title>
    <g id="页面-1" stroke="none" stroke-width="1" fill="none" fill-rule="evenodd">
        <g id="18黑名单榜单搜索样式" transform="translate(-759.000000, -106.000000)">
            <g id="浮窗" transform="translate(746.000000, 96.000000)">
                <g id="编组-18" transform="translate(13.000000, 10.000000)">
                    <rect id="矩形" fill="#FFFFFF" opacity="0" x="0" y="0" width="13" height="13"></rect>
                    <path d="M0.87115797,5.83019609 C0.87115797,3.0873665 3.11293781,0.864128299 5.87927091,0.864128299 C8.64513939,0.864128299 10.8873838,3.0873665 10.8873838,5.83019609 C10.8873838,8.57349002 8.64513939,10.7967282 5.87927091,10.7967282 C3.11293781,10.7967282 0.87115797,8.57349002 0.87115797,5.83019609 L0.87115797,5.83019609 Z M9.5729807,10.3658249 L12.2301287,13 L13,12.2366325 L10.3535382,9.61127978 C11.2293424,8.59345644 11.7580772,7.27335072 11.7580772,5.83019609 C11.7580772,2.61049398 9.12601858,0 5.87880629,0 C2.63205861,0 0,2.61049398 0,5.83019609 C0,9.05036254 2.63205861,11.6603922 5.87880629,11.6603922 C7.27869907,11.6603922 8.56383131,11.175626 9.5729807,10.3658249 L9.5729807,10.3658249 Z" id="ico_search" fill="#8C8C8C"></path>
                </g>
            </g>
        </g>
    </g>
</svg>