<svg xmlns="http://www.w3.org/2000/svg" xmlns:xlink="http://www.w3.org/1999/xlink" width="20px" height="20px" viewBox="0 0 20 20" version="1.1">
    <title>编组 34备份 5</title>
    <g id="页面-1" stroke="none" stroke-width="1" fill="none" fill-rule="evenodd">
        <g id="1.AI主页面" transform="translate(-119.000000, -124.000000)" fill="#0171F6" fill-rule="nonzero">
            <g id="编组" transform="translate(119.000000, 124.000000)">
                <path d="M10.0000106,1 C14.9705165,1 18.9999894,5.02948 18.9999894,10 C18.9999894,14.97052 14.9705165,19 10.0000106,19 L2.68841824,19 C2.35595325,19 2.05053932,18.8168134 1.8941165,18.5234447 C1.73769367,18.2300761 1.75574357,17.8743676 1.94105956,17.59834 L2.73935815,16.40908 C2.97919714,16.0522231 2.96249418,15.5816346 2.69795822,15.24268 L2.56529845,15.06916 C2.54405849,15.04054 2.52857852,15.01876 2.51849854,15.00382 C1.52596179,13.5240156 0.997274217,11.7818378 1.00001057,10 C1.00001057,5.02966 5.0294941,1 10.0000106,1 Z M10.0000053,2.49994 C5.85785264,2.49994 2.49995857,5.85784 2.49995857,9.99999999 C2.49995857,11.50732 2.94419779,12.9448 3.76427634,14.1688 L3.87965613,14.31928 C4.54351418,15.169327 4.58585132,16.3497585 3.98459595,17.24518 L3.81305625,17.49988 L10.0000053,17.49988 C14.0607982,17.49988 17.3679323,14.27248 17.4960921,10.24264 L17.5000521,9.99999999 C17.5000521,5.85784 14.142158,2.49994 10.0000053,2.49994 Z M10.0000053,6.45004 C10.414181,6.45004 10.7499646,6.78574359 10.750064,7.19992 L10.750064,9.24903999 L12.8000804,9.24993999 C13.0707875,9.245746 13.3227453,9.38776512 13.4593241,9.62153074 C13.5959028,9.85529636 13.5959028,10.1445236 13.4593241,10.3782892 C13.3227453,10.6120549 13.0707875,10.754074 12.8000804,10.74988 L10.749884,10.74898 L10.749884,12.7999 C10.7558402,13.0717231 10.6142311,13.3254862 10.3797683,13.4631463 C10.1453055,13.6008064 9.85470511,13.6008064 9.62024234,13.4631463 C9.38577957,13.3254862 9.24417048,13.0717231 9.25012665,12.7999 L9.25012665,10.74898 L7.19993027,10.74988 C6.92922318,10.754074 6.67726532,10.6120549 6.54068659,10.3782892 C6.40410787,10.1445236 6.40410787,9.85529636 6.54068659,9.62153074 C6.67726532,9.38776512 6.92922318,9.245746 7.19993027,9.24993999 L9.25012665,9.24903999 L9.25012665,7.19992 C9.25022602,6.78581387 9.58589993,6.45013936 10.0000053,6.45004 Z" id="形状"/>
            </g>
        </g>
    </g>
</svg>