<svg xmlns="http://www.w3.org/2000/svg" xmlns:xlink="http://www.w3.org/1999/xlink" width="20px" height="20px" viewBox="0 0 20 20" version="1.1">
    <title>编组 34备份 2</title>
    <g id="页面-1" stroke="none" stroke-width="1" fill="none" fill-rule="evenodd">
        <g id="1.AI主页面" transform="translate(-9.000000, -208.000000)">
            <rect fill="#FFFFFF" x="0" y="0" width="1280" height="800"/>
            <g id="编组" transform="translate(10.000000, 209.000000)" fill="#4C4C4C" fill-rule="nonzero">
                <path d="M3.11833243,9.04875463 L1.69537867,9.04875463 C0.786799582,9.02637054 0.0291318152,9.67747599 0,10.5056865 L0,16.5419724 C0.029131815,17.3701828 0.786799582,18.0212883 1.69537867,17.9989042 L3.11833243,17.9989042 C4.0269216,18.0213016 4.78460547,17.3701924 4.81373724,16.5419724 L4.81373724,10.5068061 C4.78526622,9.67814393 4.02738579,9.02636527 3.11833243,9.04875463 L3.11833243,9.04875463 Z M3.36159696,16.5419485 C3.35968638,16.5990084 3.33297582,16.6530358 3.28734815,16.6921315 C3.24172047,16.7312272 3.1809181,16.7521846 3.11833243,16.7503879 L1.69537867,16.7503879 C1.63279301,16.7521846 1.57199064,16.7312272 1.52636296,16.6921315 C1.48073529,16.6530358 1.45402473,16.5990084 1.45211415,16.5419485 L1.45211415,10.5068061 C1.45402473,10.4497463 1.48073529,10.3957188 1.52636296,10.3566231 C1.57199064,10.3175274 1.63279301,10.29657 1.69537867,10.2983667 L3.11833243,10.2983667 C3.1809181,10.29657 3.24172047,10.3175274 3.28734815,10.3566231 C3.33297582,10.3957188 3.35968638,10.4497463 3.36159696,10.5068061 L3.36159696,16.5419485 Z M9.56058326,9.79496767 L8.13757724,9.79496767 C7.20007344,9.79864024 6.44219857,10.4925457 6.44219857,11.3472576 L6.44219857,16.4477101 C6.44219857,17.3024219 7.20007344,17.9963274 8.13757724,18 L9.560531,18 C10.4980552,17.9963405 11.2559358,17.3024167 11.2559358,16.4476863 L11.2559358,11.3472576 C11.2559358,10.4925365 10.498045,9.79862717 9.560531,9.79496767 L9.56058326,9.79496767 Z M9.80382166,16.4476863 C9.80382166,16.5701717 9.69490842,16.6694658 9.56055713,16.6694658 L8.13760337,16.6694658 C8.00326229,16.6694658 7.89436498,16.5701624 7.89436498,16.4476863 L7.89436498,11.3472576 C7.89436498,11.2247814 8.00328842,11.1255019 8.1376295,11.1255019 L9.56055713,11.1255019 C9.6250749,11.1255019 9.68695018,11.1488679 9.73257113,11.1904596 C9.77819208,11.2320513 9.80382166,11.2884618 9.80382166,11.3472814 L9.80382166,16.4476863 Z M16.0441446,7.13275585 L14.6151289,7.13275585 C13.6776046,7.13641538 12.9197241,7.8303392 12.9197241,8.68506956 L12.9197241,16.4465905 C12.9197241,17.3013023 13.6775989,17.9952078 14.6151027,17.9988804 L16.0380826,17.9988804 C16.9755864,17.9952078 17.7334613,17.3013023 17.7334613,16.4465905 L17.7334613,8.68506956 C17.7334613,7.83249097 16.9792883,7.13945464 16.0441446,7.13275585 L16.0441446,7.13275585 Z M16.2874092,16.4465905 C16.2874092,16.5690666 16.1784857,16.6683462 16.0441446,16.6683462 L14.6151289,16.6683462 C14.5506111,16.6683462 14.4887358,16.6449802 14.4431149,16.6033885 C14.3974939,16.5617967 14.3718643,16.5053863 14.3718643,16.4465667 L14.3718643,8.68509338 C14.3718643,8.56260794 14.4807776,8.46331386 14.6151289,8.46331386 L16.0380826,8.46331386 C16.1724237,8.46331386 16.281321,8.56261724 16.281321,8.68509338 L16.2874092,16.4465905 Z M17.4561763,0.0209703031 L12.6691956,1.18077476 C12.530016,1.20439601 12.4175899,1.29796366 12.379137,1.42217866 C12.3406841,1.54639366 12.3828645,1.67974164 12.4879622,1.76621553 L13.7710715,2.82289608 L10.1942207,5.1624199 L7.47598135,3.3883743 C7.17441696,3.19585505 6.77297561,3.19585505 6.47141122,3.3883743 L0.537559729,7.26915859 C0.372462823,7.36936887 0.263252733,7.53001764 0.238279483,7.70940184 C0.213306233,7.88878603 0.275032776,8.06921413 0.407435418,8.2038485 C0.56937345,8.36659298 0.800072404,8.45823342 1.04107288,8.45560541 C1.22090385,8.45649729 1.39654802,8.40609128 1.54335794,8.31140323 L6.97492436,4.7632644 L9.6931376,6.53733382 C9.99481568,6.72952409 10.3960297,6.72952409 10.6977077,6.53733382 L14.9216004,3.77423732 L16.00887,4.66902597 C16.1183099,4.75951028 16.2699539,4.79442986 16.4133979,4.76217805 C16.556842,4.72992623 16.6732879,4.6347296 16.7240311,4.50822986 L17.991306,0.44897381 C18.0215434,0.317393389 17.9716815,0.181166511 17.8608322,0.0925077778 C17.7499828,0.00384904416 17.5953397,-0.0234896809 17.4561763,0.0209703031 L17.4561763,0.0209703031 Z" id="形状"/>
            </g>
        </g>
    </g>
</svg>