<svg xmlns="http://www.w3.org/2000/svg" xmlns:xlink="http://www.w3.org/1999/xlink" width="20px" height="20px" viewBox="0 0 20 20" version="1.1">
    <title>编组 34备份 7</title>
    <g id="页面-1" stroke="none" stroke-width="1" fill="none" fill-rule="evenodd">
        <g id="1.AI主页面" transform="translate(-119.000000, -208.000000)" fill="#0171F6" fill-rule="nonzero">
            <g id="编组" transform="translate(119.000000, 208.000000)">
                <path d="M4.11833243,10.0487546 L2.69537867,10.0487546 C1.78679958,10.0263705 1.02913182,10.677476 1,11.5056865 L1,17.5419724 C1.02913181,18.3701828 1.78679958,19.0212883 2.69537867,18.9989042 L4.11833243,18.9989042 C5.0269216,19.0213016 5.78460547,18.3701924 5.81373724,17.5419724 L5.81373724,11.5068061 C5.78526622,10.6781439 5.02738579,10.0263653 4.11833243,10.0487546 L4.11833243,10.0487546 Z M4.36159696,17.5419485 C4.35968638,17.5990084 4.33297582,17.6530358 4.28734815,17.6921315 C4.24172047,17.7312272 4.1809181,17.7521846 4.11833243,17.7503879 L2.69537867,17.7503879 C2.63279301,17.7521846 2.57199064,17.7312272 2.52636296,17.6921315 C2.48073529,17.6530358 2.45402473,17.5990084 2.45211415,17.5419485 L2.45211415,11.5068061 C2.45402473,11.4497463 2.48073529,11.3957188 2.52636296,11.3566231 C2.57199064,11.3175274 2.63279301,11.29657 2.69537867,11.2983667 L4.11833243,11.2983667 C4.1809181,11.29657 4.24172047,11.3175274 4.28734815,11.3566231 C4.33297582,11.3957188 4.35968638,11.4497463 4.36159696,11.5068061 L4.36159696,17.5419485 Z M10.5605833,10.7949677 L9.13757724,10.7949677 C8.20007344,10.7986402 7.44219857,11.4925457 7.44219857,12.3472576 L7.44219857,17.4477101 C7.44219857,18.3024219 8.20007344,18.9963274 9.13757724,19 L10.560531,19 C11.4980552,18.9963405 12.2559358,18.3024167 12.2559358,17.4476863 L12.2559358,12.3472576 C12.2559358,11.4925365 11.498045,10.7986272 10.560531,10.7949677 L10.5605833,10.7949677 Z M10.8038217,17.4476863 C10.8038217,17.5701717 10.6949084,17.6694658 10.5605571,17.6694658 L9.13760337,17.6694658 C9.00326229,17.6694658 8.89436498,17.5701624 8.89436498,17.4476863 L8.89436498,12.3472576 C8.89436498,12.2247814 9.00328842,12.1255019 9.1376295,12.1255019 L10.5605571,12.1255019 C10.6250749,12.1255019 10.6869502,12.1488679 10.7325711,12.1904596 C10.7781921,12.2320513 10.8038217,12.2884618 10.8038217,12.3472814 L10.8038217,17.4476863 Z M17.0441446,8.13275585 L15.6151289,8.13275585 C14.6776046,8.13641538 13.9197241,8.8303392 13.9197241,9.68506956 L13.9197241,17.4465905 C13.9197241,18.3013023 14.6775989,18.9952078 15.6151027,18.9988804 L17.0380826,18.9988804 C17.9755864,18.9952078 18.7334613,18.3013023 18.7334613,17.4465905 L18.7334613,9.68506956 C18.7334613,8.83249097 17.9792883,8.13945464 17.0441446,8.13275585 L17.0441446,8.13275585 Z M17.2874092,17.4465905 C17.2874092,17.5690666 17.1784857,17.6683462 17.0441446,17.6683462 L15.6151289,17.6683462 C15.5506111,17.6683462 15.4887358,17.6449802 15.4431149,17.6033885 C15.3974939,17.5617967 15.3718643,17.5053863 15.3718643,17.4465667 L15.3718643,9.68509338 C15.3718643,9.56260794 15.4807776,9.46331386 15.6151289,9.46331386 L17.0380826,9.46331386 C17.1724237,9.46331386 17.281321,9.56261724 17.281321,9.68509338 L17.2874092,17.4465905 Z M18.4561763,1.0209703 L13.6691956,2.18077476 C13.530016,2.20439601 13.4175899,2.29796366 13.379137,2.42217866 C13.3406841,2.54639366 13.3828645,2.67974164 13.4879622,2.76621553 L14.7710715,3.82289608 L11.1942207,6.1624199 L8.47598135,4.3883743 C8.17441696,4.19585505 7.77297561,4.19585505 7.47141122,4.3883743 L1.53755973,8.26915859 C1.37246282,8.36936887 1.26325273,8.53001764 1.23827948,8.70940184 C1.21330623,8.88878603 1.27503278,9.06921413 1.40743542,9.2038485 C1.56937345,9.36659298 1.8000724,9.45823342 2.04107288,9.45560541 C2.22090385,9.45649729 2.39654802,9.40609128 2.54335794,9.31140323 L7.97492436,5.7632644 L10.6931376,7.53733382 C10.9948157,7.72952409 11.3960297,7.72952409 11.6977077,7.53733382 L15.9216004,4.77423732 L17.00887,5.66902597 C17.1183099,5.75951028 17.2699539,5.79442986 17.4133979,5.76217805 C17.556842,5.72992623 17.6732879,5.6347296 17.7240311,5.50822986 L18.991306,1.44897381 C19.0215434,1.31739339 18.9716815,1.18116651 18.8608322,1.09250778 C18.7499828,1.00384904 18.5953397,0.976510319 18.4561763,1.0209703 L18.4561763,1.0209703 Z" id="形状"/>
            </g>
        </g>
    </g>
</svg>