<svg xmlns="http://www.w3.org/2000/svg" xmlns:xlink="http://www.w3.org/1999/xlink" width="20px" height="20px" viewBox="0 0 20 20" version="1.1">
    <title>编组 34备份 9</title>
    <g id="页面-1" stroke="none" stroke-width="1" fill="none" fill-rule="evenodd">
        <g id="1.AI主页面" transform="translate(-119.000000, -290.000000)" fill="#606060" fill-rule="nonzero">
            <g id="编组备份-2" transform="translate(119.000000, 290.000000)">
                <path d="M9.99974732,14.68 C6.25022759,11.767375 4.37490524,9.208 4.37490524,6.999625 C4.37490524,3.6865 6.89483449,1 9.99974732,1 C13.1069101,1 15.6245894,3.6865 15.6245894,6.999625 C15.6245894,9.208 13.749267,11.769625 9.99974732,14.68 Z M5.49987366,6.999625 C5.49987366,8.601625 6.96458254,10.70875 9.99974732,13.18375 C13.0349121,10.70875 14.499621,8.60275 14.499621,7.00075 C14.499621,4.35025 12.4859275,2.2015 9.99974732,2.2015 C7.51469209,2.2015 5.49987366,4.35025 5.49987366,7.00075 L5.49987366,6.999625 Z M10.1066193,11.762875 C10.3889864,11.760625 10.617355,11.515375 10.6196049,11.213875 L10.6196049,9.787375 L12.0213156,9.787375 C12.3036826,9.787375 12.5331762,9.541 12.5331762,9.238375 C12.5331762,8.934625 12.3036826,8.689375 12.0213156,8.689375 L10.6184799,8.689375 L10.6184799,7.73875 L11.9853166,7.73875 C12.2620588,7.7275 12.4803027,7.485625 12.4803027,7.18975 C12.4803027,6.893875 12.2620588,6.650875 11.9853166,6.64075 L10.615105,6.64075 C10.6383338,6.62255181 10.6598024,6.60221253 10.6792282,6.58 L12.3711807,4.769875 C12.571709,4.54997896 12.571709,4.21352104 12.3711807,3.993625 C12.2784305,3.89150852 12.1468894,3.83328317 12.0089409,3.83328317 C11.8709924,3.83328317 11.7394513,3.89150852 11.6467011,3.993625 L10.1032444,5.64625 L8.48891474,3.91825 C8.39325804,3.82741058 8.26491491,3.77914533 8.13310643,3.78444325 C8.00129795,3.78974117 7.8772423,3.84815135 7.78918438,3.946375 C7.59881163,4.15762684 7.5906955,4.47607431 7.77005992,4.69675 L9.46201242,6.508 C9.51832681,6.56838909 9.58864504,6.61398131 9.66675667,6.64075 L8.2267971,6.64075 C7.95005487,6.652 7.73181099,6.893875 7.73181099,7.18975 C7.73181099,7.485625 7.95005487,7.728625 8.2267971,7.73875 L9.59475869,7.73875 L9.59475869,8.689375 L8.26279609,8.689375 C7.97930405,8.689375 7.74981049,8.93575 7.74981049,9.238375 C7.74981049,9.542125 7.97930405,9.787375 8.26279609,9.787375 L9.59475869,9.787375 L9.59475869,11.213875 C9.59588366,11.5165 9.82425225,11.760625 10.1066193,11.762875 Z M10.0582457,6.639625 L10.0942447,6.739625 L9.98174782,6.739625 C10.0076221,6.739625 10.0323714,6.6993811 10.0582457,6.639625 Z M7.18732628,15.4 L12.8121684,15.4 C13.1226596,15.4 13.3746526,15.668875 13.3746526,15.999625 C13.3746526,16.3315 13.1226596,16.600375 12.8121684,16.600375 L7.18732628,16.600375 C6.876835,16.600375 6.62484207,16.330375 6.62484207,15.999625 C6.62484207,15.668875 6.876835,15.4 7.18732628,15.4 Z M14.7279896,11.8 C15.0568419,11.8024767 15.3215938,12.0707594 15.319723,12.399625 C15.3209209,12.5577617 15.2592497,12.7098969 15.1482772,12.8225604 C15.0373047,12.9352238 14.8861219,12.999186 14.7279896,13.000375 C14.4096235,13.00825 14.1452559,12.739375 14.1373811,12.399625 C14.1355076,12.0711948 14.3995778,11.8030931 14.7279896,11.8 L16.2410721,11.8 C16.7495578,11.8 17.2017951,12.129625 17.3626656,12.62125 L18.9376214,17.4205 C19.1466197,18.0458986 18.8135719,18.7230481 18.1906423,18.93925 C18.0702707,18.97975 17.9442743,19 17.8171528,19 L2.18121684,19 C1.52873516,19 1,18.46225 1,17.799625 C1,17.671375 1.02024943,17.543125 1.06074829,17.4205 L2.63682904,12.62125 C2.79769953,12.129625 3.24993683,11.8 3.75842255,11.8 L5.2703801,11.8 C5.59923243,11.8024767 5.8639843,12.0707594 5.86211349,12.399625 C5.86331144,12.5577617 5.80164022,12.7098969 5.69066771,12.8225604 C5.57969521,12.9352238 5.42851241,12.999186 5.2703801,13.000375 L14.7279896,13.000375 L14.7279896,11.8 L14.7279896,11.8 Z M3.75954752,13.000375 L2.18121684,17.799625 L17.8160279,17.799625 L16.2410721,13.000375 L3.75729758,13.000375 L3.75954752,13.000375 Z" id="形状"/>
            </g>
        </g>
    </g>
</svg>