
<svg xmlns="http://www.w3.org/2000/svg" xmlns:xlink="http://www.w3.org/1999/xlink" width="20px" height="20px" viewBox="0 0 20 20" version="1.1">
    <title>编组 34备份</title>
    <g id="页面-1" stroke="none" stroke-width="1" fill="none" fill-rule="evenodd">
        <g id="1.AI主页面" transform="translate(-9.000000, -166.000000)">
            <rect fill="#FFFFFF" x="0" y="0" width="1280" height="800"/>
            <path d="M15.8202408,175.702496 L12.1859742,175.702496 C10.979027,175.700626 10.0012422,174.719503 10,173.509059 L10,169.865397 C10.0012422,168.654953 10.979027,167.67383 12.1859742,167.67196 L15.8202408,167.67196 C17.027188,167.67383 18.0049728,168.654953 18.006215,169.865397 L18.006215,173.509059 C18.0049728,174.719503 17.027188,175.700626 15.8202408,175.702496 L15.8202408,175.702496 Z M12.1859742,169.028294 C11.7260535,169.028918 11.3535444,169.403013 11.3535444,169.864266 L11.3535444,173.509059 C11.3535444,173.970313 11.7260535,174.344407 12.1859742,174.345031 L15.8202408,174.345031 C16.2801615,174.344407 16.6526706,173.970313 16.6526706,173.509059 L16.6526706,169.865397 C16.6526706,169.404144 16.2801615,169.030049 15.8202408,169.029425 L12.1859742,169.028294 Z M15.8202408,185 L12.1859742,185 C10.978587,184.998129 10.0006206,184.016317 10,182.805432 L10,179.16177 C10.0012422,177.951326 10.979027,176.970203 12.1859742,176.968332 L15.8202408,176.968332 C17.027188,176.970203 18.0049728,177.951326 18.006215,179.16177 L18.006215,182.805432 C18.0055944,184.016317 17.027628,184.998129 15.8202408,185 Z M12.1859742,178.325797 C11.7260535,178.326422 11.3535436,178.700516 11.3535436,179.16177 L11.3535436,182.805432 C11.353245,183.027145 11.4407791,183.239897 11.59689,183.396885 C11.7530009,183.553872 11.9649008,183.642235 12.1859742,183.642535 L15.8202408,183.642535 C16.2801615,183.641911 16.6526706,183.267816 16.6526706,182.806563 L16.6526706,179.16177 C16.6526706,178.700516 16.2801615,178.326422 15.8202408,178.325797 L12.1859742,178.325797 Z M25.0897639,185 L21.4554972,185 C20.24855,184.99813 19.2707653,184.017007 19.2695231,182.806563 L19.2695231,179.16177 C19.2707653,177.951326 20.24855,176.970203 21.4554972,176.968332 L25.0897639,176.968332 C26.2967111,176.970203 27.2744959,177.951326 27.2757381,179.16177 L27.2757381,182.805432 C27.2751175,184.016317 26.297151,184.998129 25.0897639,185 L25.0897639,185 Z M21.4554972,178.325797 C20.9955766,178.326422 20.6230675,178.700516 20.6230675,179.16177 L20.6230675,182.805432 C20.6230675,183.266685 20.9955766,183.64078 21.4554972,183.641404 L25.0897639,183.641404 C25.5496846,183.64078 25.9221937,183.266685 25.9221937,182.805432 L25.9221937,179.16177 C25.9221937,178.700516 25.5496846,178.326422 25.0897639,178.325797 L21.4554972,178.325797 Z M23.5433394,175.935535 C22.963341,175.936403 22.4068723,175.705599 21.996915,175.294126 L19.7297282,173.018109 C18.8783449,172.160897 18.8783449,170.774645 19.7297282,169.917433 L21.9991709,167.641417 C22.8537814,166.786194 24.2374093,166.786194 25.0920198,167.641417 L27.3614625,169.917433 C28.2128458,170.774645 28.2128458,172.160897 27.3614625,173.018109 L25.0920198,175.294126 C24.6815106,175.706156 24.1241192,175.937005 23.5433394,175.935535 L23.5433394,175.935535 Z M23.5433394,168.35632 C23.3237469,168.355706 23.1128453,168.442344 22.9568036,168.597299 L20.6873608,170.876708 C20.3626654,171.203033 20.3626654,171.731379 20.6873608,172.057703 L22.9568036,174.333719 C23.2821852,174.659355 23.8090055,174.659355 24.1343872,174.333719 L26.4038299,172.057703 C26.7285253,171.731379 26.7285253,171.203033 26.4038299,170.876708 L24.1343872,168.597299 C23.9772385,168.441232 23.7644925,168.354502 23.5433394,168.35632 Z" id="形状" fill="#4C4C4C" fill-rule="nonzero"/>
        </g>
    </g>
</svg>