<svg xmlns="http://www.w3.org/2000/svg" xmlns:xlink="http://www.w3.org/1999/xlink" width="20px" height="20px" viewBox="0 0 20 20" version="1.1">
    <title>编组 34备份 8</title>
    <g id="页面-1" stroke="none" stroke-width="1" fill="none" fill-rule="evenodd">
        <g id="1.AI主页面" transform="translate(-119.000000, -249.000000)" fill="#0171F6" fill-rule="nonzero">
            <g id="编组" transform="translate(119.000000, 249.000000)">
                <path d="M18.325,11.3333333 L19,11.3333333 L19,16 C19,17.1045684 18.0933755,18 16.975,18 L3.025,18 C1.90662447,18 1,17.1045684 1,16 L1,11.1111111 L1.675,11.1111111 C2.29630802,11.1111111 2.8,10.6136584 2.8,10 C2.8,9.38636245 2.29632911,8.88888889 1.675,8.88888889 L1,8.88888889 L1,4 C1,2.89543158 1.90662447,2 3.025,2 L16.975,2 C18.0933755,2 19,2.89543158 19,4 L19,9.11111111 L18.325,9.11111111 C17.703692,9.11111111 17.2,9.60856384 17.2,10.2222222 C17.2,10.8358598 17.7036709,11.3333333 18.325,11.3333333 Z M15.85,10.2222222 C15.85,9.10329739 16.6111814,8.15998333 17.65,7.86979216 L17.65,4 C17.65,3.63181747 17.3477848,3.33333333 16.975,3.33333333 L3.025,3.33333333 C2.65221519,3.33333333 2.35,3.63181747 2.35,4 L2.35,7.64756993 C3.38881857,7.93776111 4.15,8.881096 4.15,10 C4.15,11.1189248 3.38881857,12.0622389 2.35,12.3524301 L2.35,16 C2.35,16.3681825 2.65221519,16.6666667 3.025,16.6666667 L16.975,16.6666667 C17.3477848,16.6666667 17.65,16.3681825 17.65,16 L17.65,12.5746523 C16.6111814,12.2844611 15.85,11.3411262 15.85,10.2222222 Z M9.775,12.2761473 L8.425,10.942814 L6.87729958,12.4713862 L5.92270042,11.528593 L8.425,9.05718602 L9.775,10.3905194 L11.0704008,9.11111111 L10.45,9.11111111 L10.45,7.77777778 L14.3295992,7.77777778 L9.775,12.2761473 Z" id="形状"/>
            </g>
        </g>
    </g>
</svg>