<?xml version="1.0" encoding="UTF-8"?>
<svg width="11px" height="11px" viewBox="0 0 11 11" version="1.1" xmlns="http://www.w3.org/2000/svg" xmlns:xlink="http://www.w3.org/1999/xlink">
    <title>编组 7</title>
    <g id="0103" stroke="none" stroke-width="1" fill="none" fill-rule="evenodd">
        <g id="2.1、提问回答中" transform="translate(-477.000000, -669.000000)" fill="#808080" fill-rule="nonzero">
            <g id="编组-24" transform="translate(310.000000, 660.000000)">
                <g id="编组-18" transform="translate(159.000000, 0.000000)">
                    <g id="编组-17" transform="translate(8.000000, 6.000000)">
                        <g id="编组" transform="translate(0.000000, 3.000000)">
                            <path d="M5.26386163,8.83022571 L5.49190383,9.08255643 L5.72264475,8.83292444 C5.75502944,8.79784102 6.53765947,7.94909225 7.33378312,6.87230128 C8.4281158,5.39070167 8.98405299,4.23969578 8.98405299,3.4516683 C8.98405299,2.53005397 8.62512267,1.66241413 7.97338077,1.01067223 C7.32163886,0.358930324 6.45399902,2.84217094e-14 5.53238469,2.84217094e-14 C4.61077036,2.84217094e-14 3.74178116,0.358930324 3.09003925,1.01067223 C2.43829735,1.66241413 2.07936703,2.53005397 2.07936703,3.4516683 C2.07936703,4.23834642 2.6218106,5.38800294 3.6905054,6.86960255 C4.46638862,7.94639352 5.23147694,8.7951423 5.26386163,8.83022571 L5.26386163,8.83022571 Z M2.69872424,3.4516683 C2.69872424,1.89045633 3.96847399,0.620706575 5.52968597,0.620706575 C7.09089794,0.620706575 8.36064769,1.89045633 8.36064769,3.4516683 C8.36064769,3.79575564 8.20547105,4.26533366 7.90051521,4.84421001 C7.64413641,5.32998037 7.28655545,5.88726693 6.83451914,6.49852797 C6.312316,7.20559372 5.78606477,7.82225221 5.49460255,8.15419529 C5.20988714,7.82360157 4.6984789,7.20964181 4.19111874,6.50662414 C3.74987733,5.89401374 3.39904318,5.33672718 3.14806183,4.84960746 C2.85120216,4.26803238 2.69872424,3.797105 2.69872424,3.4516683 Z" id="形状"></path>
                            <path d="M10.0905299,8.11371443 C9.61015702,7.91131011 8.93142787,7.74398921 8.12855741,7.62794406 L8.04084887,8.24190383 C8.79244357,8.3498528 9.41719823,8.50233072 9.85034347,8.6844946 C10.2888862,8.86935721 10.3792934,9.02318449 10.3792934,9.05421982 C10.3792934,9.11224239 10.1512512,9.40370461 9.09470069,9.66683023 C8.13800294,9.90431796 6.86150638,10.0365554 5.5,10.0365554 C4.13849362,10.0365554 2.86199706,9.90566732 1.90529931,9.66683023 C0.850098135,9.40370461 0.620706575,9.11224239 0.620706575,9.05421982 C0.620706575,9.02318449 0.709764475,8.86935721 1.14560844,8.68584396 C1.57605496,8.50368008 2.19811089,8.35120216 2.94565751,8.24325319 L2.85659961,7.62929342 C2.05642787,7.74398921 1.38174681,7.91265947 0.90407262,8.11371443 C0.303606477,8.3673945 0,8.68314524 0,9.05421982 C0,9.34568204 0.188910697,9.60610893 0.561334642,9.82470559 C0.848748773,9.99337586 1.25085868,10.1431551 1.75552012,10.2686457 C2.75944553,10.5182777 4.08856722,10.6559127 5.5,10.6559127 C6.91143278,10.6559127 8.24055447,10.5182777 9.24447988,10.2686457 C9.75049068,10.1431551 10.1512512,9.99337586 10.4386654,9.82470559 C10.8110893,9.60610893 11,9.3470314 11,9.05421982 C11,8.6844946 10.6936948,8.3673945 10.0905299,8.11371443 Z M5.49190383,4.6202159 C6.13959764,4.6202159 6.66584887,4.09396467 6.66584887,3.44627085 C6.66584887,2.79857704 6.13959764,2.27232581 5.49190383,2.27232581 C4.84421001,2.27232581 4.31795878,2.79857704 4.31795878,3.44627085 C4.31795878,4.09396467 4.84555937,4.6202159 5.49190383,4.6202159 Z M5.49190383,2.89303238 C5.79685967,2.89303238 6.0451423,3.14131501 6.0451423,3.44627085 C6.0451423,3.75122669 5.79685967,3.99950932 5.49190383,3.99950932 C5.18694799,3.99950932 4.93866536,3.75122669 4.93866536,3.44627085 C4.93866536,3.14131501 5.18694799,2.89303238 5.49190383,2.89303238 Z" id="形状"></path>
                        </g>
                    </g>
                </g>
            </g>
        </g>
    </g>
</svg>