<?xml version="1.0" encoding="UTF-8"?>
<svg width="12px" height="12px" viewBox="0 0 12 12" version="1.1" xmlns="http://www.w3.org/2000/svg" xmlns:xlink="http://www.w3.org/1999/xlink">
    <title>编组</title>
    <g id="0103" stroke="none" stroke-width="1" fill="none" fill-rule="evenodd">
        <g id="3.1、反馈提交" transform="translate(-376.000000, -362.000000)" fill="#8C8C8C" fill-rule="nonzero">
            <g id="编组-26" transform="translate(310.000000, 185.000000)">
                <g id="编组-25" transform="translate(16.000000, 159.000000)">
                    <g id="编组-7" transform="translate(0.000000, 17.000000)">
                        <g id="编组-2" transform="translate(50.000000, 1.000000)">
                            <path d="M10.4947505,11.2530556 C10.9117529,11.2530556 11.2500024,10.9215593 11.2500024,10.4970517 L11.2500024,7.89005319 C11.2500024,7.6845526 11.4240077,7.51805244 11.6249964,7.51805244 C11.832001,7.51805244 12.000003,7.68829782 12.000003,7.9005516 L12.000003,10.4955477 C12.0020694,11.3238019 11.3327512,11.9971456 10.5044969,12.0000503 L1.49551428,12.0000503 C0.667923562,11.9983989 -0.00164535086,11.3261611 3.03705706e-06,10.4985704 L3.03705706e-06,10.4955477 L3.03705706e-06,7.90056635 C3.03705706e-06,7.69221998 0.166712673,7.52215154 0.37501481,7.51805244 C0.582019389,7.51805244 0.750008789,7.67856614 0.750008789,7.89006793 L0.750008789,10.4970517 C0.750008789,10.9148061 1.08750632,11.2530556 1.5052607,11.2530556 L10.4947505,11.2530556 L10.4947505,11.2530556 Z M6.75000879,5.11356132 C1.405511,5.26506584 0.750008789,7.02981712 0.750008789,7.02981712 C0.750008789,4.32831814 2.96850691,1.64482277 7.50000363,1.72882485 L7.50000363,0.996073752 L7.51424727,0.982567363 L7.50000363,0.982567363 L7.50000363,0.810066004 C7.50000363,-0.0111843757 8.0122585,-0.24893221 8.6445079,0.286560726 L11.7555041,2.9250692 C12.0720048,3.19357504 12.0720048,3.62856628 11.7555041,3.89707212 L8.64149993,6.5423043 C8.01150651,7.076308 7.50000363,6.84380937 7.50000363,6.02030301 L7.50000363,5.10304816 C7.24425219,5.10304816 6.99750993,5.10604138 6.76049934,5.11279458 L6.75000879,5.10304816 L6.75000879,5.11356132 Z M7.50000363,4.35606817 C7.91399805,4.35606817 8.25000633,4.69057247 8.25000633,5.1030629 L8.25000633,5.88305687 L11.1749948,3.4103113 L8.25000633,0.930075284 L8.25000633,1.72807285 C8.24926909,2.14146272 7.9135557,2.47596703 7.50018057,2.47522978 C7.49537332,2.47521994 7.49056625,2.47516588 7.48575999,2.47506758 C4.67326091,2.42256076 2.70302379,3.54456421 1.90051426,5.22006421 C2.98500652,4.71006532 4.7490058,4.35757216 7.50000363,4.35757216 L7.50000363,4.35606817 L7.50000363,4.35606817 Z" id="形状"></path>
                        </g>
                    </g>
                </g>
            </g>
        </g>
    </g>
</svg>