<?xml version="1.0" encoding="UTF-8"?>
<svg width="11px" height="12px" viewBox="0 0 11 12" version="1.1" xmlns="http://www.w3.org/2000/svg" xmlns:xlink="http://www.w3.org/1999/xlink">
    <title>编组</title>
    <g id="0103" stroke="none" stroke-width="1" fill="none" fill-rule="evenodd">
        <g id="2.1、提问回答中" transform="translate(-555.000000, -668.000000)" fill="#808080" fill-rule="nonzero">
            <g id="编组-24" transform="translate(310.000000, 660.000000)">
                <g id="1.通用/按钮/面型/圆角/浅蓝色-高30备份-3" transform="translate(237.000000, 0.000000)">
                    <g id="编组" transform="translate(8.000000, 8.620707)">
                        <path d="M11,7.33762676 L11,10.0876268 C11,10.3407573 10.7947972,10.5459601 10.5416667,10.5459601 L0.458333333,10.5459601 C0.205202823,10.5459601 0,10.3407573 0,10.0876268 L0,7.33762676 C0.506261021,7.33762676 0.916666667,6.92722111 0.916666667,6.42096009 C0.916666667,5.91469907 0.506261021,5.50429342 0,5.50429342 L0,1.83762676 C0,1.58449625 0.205202823,1.37929342 0.458333333,1.37929342 L10.5416667,1.37929342 C10.7947972,1.37929342 11,1.58449625 11,1.83762676 L11,5.50429342 C10.493739,5.50429342 10.0833333,5.91469907 10.0833333,6.42096009 C10.0833333,6.92722111 10.493739,7.33762676 11,7.33762676 Z M9.39583333,6.42096009 C9.39570544,5.80122605 9.75256537,5.23685206 10.3125,4.97125176 L10.3125,2.06679342 L0.6875,2.06679342 L0.6875,4.97125176 C1.24770678,5.2366506 1.60486506,5.8010664 1.60486506,6.42096009 C1.60486506,7.04085378 1.24770678,7.60526958 0.6875,7.87066842 L0.6875,9.85846009 L10.3125,9.85846009 L10.3125,7.87066842 C9.75256537,7.60506813 9.39570544,7.04069414 9.39583333,6.42096009 Z M4.728625,5.54004342 L2.996125,7.31333509 L2.50433333,6.83300176 L4.73275,4.55187676 L6.444625,6.33250176 L8.009375,4.80029342 L8.490625,5.29162676 L6.42995833,7.30921009 L4.728625,5.54004342 L4.728625,5.54004342 Z" id="形状"></path>
                    </g>
                </g>
            </g>
        </g>
    </g>
</svg>