<?xml version="1.0" encoding="UTF-8"?>
<svg width="11px" height="11px" viewBox="0 0 11 11" version="1.1" xmlns="http://www.w3.org/2000/svg" xmlns:xlink="http://www.w3.org/1999/xlink">
    <title>编组</title>
    <g id="0103" stroke="none" stroke-width="1" fill="none" fill-rule="evenodd">
        <g id="2.1、提问回答中" transform="translate(-399.000000, -669.000000)" fill="#808080" fill-rule="nonzero">
            <g id="编组-24" transform="translate(310.000000, 660.000000)">
                <g id="编组-8" transform="translate(81.000000, 0.000000)">
                    <g id="编组" transform="translate(8.000000, 9.000000)">
                        <path d="M5.76303389,1.15111468 L2.11805695,3.52638076 L2.11805695,10.1417772 L5.76303389,10.1417772 L5.76303389,1.15111468 Z M5.87056347,0.0747956761 C6.01485,-0.0191394927 6.19745679,-0.0249993644 6.34716915,0.0595013478 C6.4968815,0.14400206 6.58999044,0.30548152 6.59018448,0.480964477 L6.59018448,3.23124276 L6.59128735,3.23180925 L6.59128735,4.23845075 L6.59128735,4.23788427 L6.59128735,10.1446096 L8.88194305,10.1446096 L8.88194305,5.73170174 L7.14327251,4.59873437 L7.14327251,3.5909599 L9.49127732,5.12159881 C9.62674307,5.20979107 9.70891134,5.36301276 9.70909364,5.52776762 L9.70909364,10.1502745 L10.5864247,10.1502745 C10.814836,10.1502745 11,10.340492 11,10.5751372 C11,10.8097825 10.814836,11 10.5864247,11 L0.413575296,11 C0.185163967,11 0,10.8097825 0,10.5751372 C0,10.340492 0.185163967,10.1502745 0.413575296,10.1502745 L1.29145779,10.1502745 L1.29145779,3.32414609 C1.29133156,3.15930058 1.37330229,3.00584555 1.50872268,2.9174108 L5.87056347,0.0747956761 Z" id="形状"></path>
                    </g>
                </g>
            </g>
        </g>
    </g>
</svg>