<?xml version="1.0" encoding="UTF-8"?>
<svg width="13px" height="13px" viewBox="0 0 13 13" version="1.1" xmlns="http://www.w3.org/2000/svg" xmlns:xlink="http://www.w3.org/1999/xlink">
    <title>编组</title>
    <g id="0103" stroke="none" stroke-width="1" fill="none" fill-rule="evenodd">
        <g id="3.1、反馈提交" transform="translate(-326.000000, -361.000000)" fill="#8C8C8C" fill-rule="nonzero">
            <g id="编组-26" transform="translate(310.000000, 185.000000)">
                <g id="编组-25" transform="translate(16.000000, 159.000000)">
                    <g id="编组" transform="translate(0.000000, 17.000000)">
                        <path d="M10.4,10.4 L10.4,9.53333333 L11.2666667,9.53333333 C11.7866667,9.53333333 12.1333333,9.18666666 12.1333333,8.66666667 L12.1333333,1.73333333 C12.1333333,1.21333333 11.7866667,0.866666658 11.2666667,0.866666671 L4.33333333,0.866666671 C3.81333333,0.866666671 3.46666666,1.21333334 3.46666667,1.73333333 L3.46666667,2.6 L2.6,2.6 L2.6,1.73333333 C2.6,0.78 3.38,0 4.33333333,0 L11.2666667,0 C12.22,0 13,0.78 13,1.73333333 L13,8.66666667 C13,9.62 12.22,10.4 11.2666667,10.4 L10.4,10.4 Z" id="路径"></path>
                        <path d="M1.73333333,2.6 L8.66666667,2.6 C9.62,2.6 10.4,3.38 10.4,4.33333333 L10.4,11.2666667 C10.4,12.22 9.62,13 8.66666667,13 L1.73333333,13 C0.78,13 0,12.22 0,11.2666667 L0,4.33333333 C0,3.38 0.78,2.6 1.73333333,2.6 Z M1.73333333,3.46666667 C1.21333333,3.46666667 0.866666671,3.81333334 0.866666671,4.33333333 L0.866666671,11.2666667 C0.866666671,11.7866667 1.21333334,12.1333333 1.73333333,12.1333333 L8.66666667,12.1333333 C9.18666667,12.1333333 9.53333333,11.7866667 9.53333333,11.2666667 L9.53333333,4.33333333 C9.53333333,3.81333333 9.18666666,3.46666667 8.66666667,3.46666667 L1.73333333,3.46666667 Z" id="形状"></path>
                        <path d="M3.03333333,6.06666667 L7.36666667,6.06666667 C7.62666667,6.06666667 7.8,6.24 7.8,6.5 C7.8,6.76 7.62666667,6.93333333 7.36666667,6.93333333 L3.03333333,6.93333333 C2.77333333,6.93333333 2.6,6.76 2.6,6.5 C2.6,6.24 2.77333333,6.06666667 3.03333333,6.06666667 Z M3.03333333,8.66666667 L7.36666667,8.66666667 C7.62666667,8.66666667 7.8,8.84 7.8,9.1 C7.8,9.36 7.62666667,9.53333333 7.36666667,9.53333333 L3.03333333,9.53333333 C2.77333333,9.53333333 2.6,9.36 2.6,9.1 C2.6,8.84 2.77333333,8.66666667 3.03333333,8.66666667 Z" id="形状"></path>
                    </g>
                </g>
            </g>
        </g>
    </g>
</svg>