<?xml version="1.0" encoding="UTF-8"?>
<svg width="13px" height="13px" viewBox="0 0 13 13" version="1.1" xmlns="http://www.w3.org/2000/svg" xmlns:xlink="http://www.w3.org/1999/xlink">
    <title>编组</title>
    <g id="0103" stroke="none" stroke-width="1" fill="none" fill-rule="evenodd">
        <g id="3.1、反馈提交" transform="translate(-351.000000, -361.000000)">
            <g id="编组-26" transform="translate(310.000000, 185.000000)">
                <g id="编组-25" transform="translate(16.000000, 159.000000)">
                    <g id="编组-7" transform="translate(0.000000, 17.000000)">
                        <g id="编组" transform="translate(25.000000, 0.000000)">
                            <rect id="矩形" fill="#D8D8D8" opacity="0" x="0" y="1.84199303e-06" width="13" height="13"></rect>
                            <path d="M6.35410383,0.124360945 C6.43240826,0.0448024445 6.53936732,0 6.65099678,0 C6.76262625,0 6.86958531,0.0448024445 6.94788973,0.124360945 L8.1363014,1.32537061 C8.29955714,1.49192478 8.29955714,1.75848141 8.1363014,1.92503558 L6.94704988,3.12604526 C6.86874545,3.20560376 6.76178639,3.2504062 6.65015693,3.2504062 C6.53852746,3.2504062 6.4315684,3.20560376 6.35326397,3.12604526 C6.18945866,2.95938901 6.18945866,2.69219667 6.35326397,2.52554042 L6.79167449,2.08209069 L6.69089046,2.08461029 C4.33159384,2.17270193 2.34974364,3.8870055 1.92279454,6.20902083 C1.49584545,8.53103615 2.73827053,10.8381874 4.91192153,11.7597524 C7.08557254,12.6813174 9.6076529,11.9702072 10.979747,10.048906 C12.351841,8.12760469 12.2060647,5.51124916 10.6290264,3.75426569 C10.5286578,3.64264503 10.4954623,3.48595728 10.5419444,3.34322521 C10.5884264,3.20049314 10.7075242,3.09340114 10.8543749,3.06228973 C11.0012255,3.03117832 11.1535188,3.08077408 11.2538874,3.19239474 C13.107064,5.25608212 13.2658167,8.33425016 11.6347718,10.5776319 C10.0037269,12.8210137 7.02662976,13.6192703 4.49202708,12.4928341 C1.95742439,11.3663979 0.554885275,8.62172941 1.12701129,5.90773952 C1.69913731,3.19374963 4.09027471,1.24881187 6.86390304,1.24138392 L6.35410383,0.724865771 C6.19029852,0.558209524 6.19029852,0.291017193 6.35410383,0.124360945 Z" id="路径" fill="#8C8C8C" fill-rule="nonzero"></path>
                        </g>
                    </g>
                </g>
            </g>
        </g>
    </g>
</svg>