<?xml version="1.0" encoding="UTF-8"?>
<svg width="11px" height="11px" viewBox="0 0 11 11" version="1.1" xmlns="http://www.w3.org/2000/svg" xmlns:xlink="http://www.w3.org/1999/xlink">
    <title>编组 20</title>
    <g id="0103" stroke="none" stroke-width="1" fill="none" fill-rule="evenodd">
        <g id="3、回答完成-反馈" transform="translate(-318.000000, -669.000000)">
            <g id="编组-20" transform="translate(310.000000, 660.000000)">

                <g id="其他/试验性/下拉菜单/icon/搜索" transform="translate(8.000000, 9.000000)">
                    <rect id="矩形" x="0" y="0" width="11" height="11"></rect>
                    <g id="搜索" fill="#262626" fill-rule="nonzero">
                        <rect id="矩形" opacity="0" x="0.423076923" y="0.423076923" width="10.1538462" height="10.1538462"></rect>
                        <path d="M9.98678767,9.53141941 L8.18114554,7.72577728 C8.87588643,6.92389093 9.25505503,5.91063433 9.25505503,4.83906596 C9.25505503,3.65951114 8.79570916,2.5505646 7.96163825,1.71648233 C7.12756734,0.882422789 6.01860944,0.423076923 4.83904324,0.423076923 C3.65948842,0.423076923 2.55054188,0.882422789 1.71648233,1.7164937 C0.882411427,2.55056459 0.423076923,3.6595225 0.423076923,4.83906596 C0.423076923,6.01860942 0.882422789,7.12756733 1.7164937,7.9616496 C2.55055324,8.79572051 3.65951115,9.25506638 4.83905461,9.25506638 C5.81356928,9.25506638 6.73971619,8.94126697 7.50265605,8.36193363 L9.32947044,10.188748 C9.42022816,10.2795057 9.53918145,10.324896 9.65813474,10.324896 C9.77708804,10.324896 9.89604133,10.2795057 9.98679905,10.188748 C10.1683031,10.0072212 10.1683031,9.71293484 9.98678767,9.53141941 Z M1.35266731,4.83906596 C1.35266731,2.9166639 2.91665255,1.35267867 4.83904324,1.35267867 C6.76144531,1.35267867 8.3254419,2.91666391 8.3254419,4.83906596 C8.3254419,6.76146802 6.76144531,8.32544189 4.83904324,8.32544189 C2.91665255,8.32544189 1.35266731,6.76146802 1.35266731,4.83906596 Z" id="形状"></path>
                    </g>
                </g>
            </g>
        </g>
    </g>
</svg>
