<?xml version="1.0" encoding="UTF-8"?>
<svg width="14px" height="14px" viewBox="0 0 14 14" version="1.1" xmlns="http://www.w3.org/2000/svg" xmlns:xlink="http://www.w3.org/1999/xlink">
    <title>编组 7</title>
    <g id="0103" stroke="none" stroke-width="1" fill="none" fill-rule="evenodd">
        <g id="3、回答完成-反馈" transform="translate(-917.000000, -379.000000)" fill="#0171F6" fill-rule="nonzero">
            <g id="编组-7" transform="translate(326.000000, 361.000000)">
                <g id="编组备份-2" transform="translate(591.000000, 18.000000)">
                    <path d="M8.25164139,0 C7.55622558,0 6.94966848,0.480396581 6.82217559,1.15998197 C6.82217559,1.15998197 6.61548257,2.22427519 6.50730677,2.6070302 C6.3295894,3.2377948 5.7075786,3.93495569 5.25749005,4.15757849 C4.91750898,4.32747485 3.6541703,4.32942768 3.57690188,4.32942766 L1.85767947,4.32942766 C1.3844104,4.32942766 1,4.71608832 1,5.1964849 L1,12.1329428 C1,12.6113865 1.38247869,13 1.85767947,13 L9.77382931,13 C11.0468266,13 12.1285845,12.0587352 12.3178921,10.785489 L12.9804688,6.3213159 C13.1369374,5.27264533 12.3333458,4.3313805 11.2844269,4.3313805 L9.3333993,4.3313805 C9.3333993,4.3313805 9.62315588,3.36082319 9.76996589,1.72239748 C9.84337088,0.892444048 9.26192602,0.101547254 8.40810995,0.011716996 C8.35595377,0.00390566534 8.30379759,0 8.25164139,0 L8.25164139,0 Z M4.42878622,12.1309899 L4.42878622,5.16914526 C4.99091398,5.13204145 5.39657321,5.05197536 5.63610531,4.93089981 C6.26777466,4.61454108 7.07522966,3.74748386 7.33021546,2.84136998 C7.44418639,2.43713385 7.63928915,1.43728406 7.66246968,1.32011416 C7.71269415,1.05843472 7.9599531,0.865104406 8.24970968,0.865104406 C8.2728902,0.865104406 8.29607073,0.867057238 8.31925127,0.869010071 C8.72684219,0.911972359 8.94512548,1.30253868 8.91614982,1.63842572 C8.78093008,3.15577588 8.51435403,4.06970107 8.51049061,4.07555957 L8.17630468,5.19257924 L11.2844269,5.19257924 C11.537481,5.19257924 11.7692863,5.29998497 11.9354134,5.4933153 C12.1015405,5.68664563 12.1710821,5.93465524 12.1324479,6.18852335 L11.4718029,10.6526964 C11.34431,11.5080367 10.6315088,12.1290371 9.77576102,12.1290371 L4.42878622,12.1290371 L4.42878622,12.1309899 Z M1.85767947,12.1309899 L1.85767947,5.19453207 L3.57110674,5.19453207 L3.57110674,12.1309899 L1.85767947,12.1309899 L1.85767947,12.1309899 Z" id="形状"></path>
                </g>
            </g>
        </g>
    </g>
</svg>