<?xml version="1.0" encoding="UTF-8"?>
<svg width="16px" height="16px" viewBox="0 0 16 16" version="1.1" xmlns="http://www.w3.org/2000/svg" xmlns:xlink="http://www.w3.org/1999/xlink">
    <!-- Generator: Sketch 64 (93537) - https://sketch.com -->
    <title>jiangpai</title>
    <desc>Created with Sketch.</desc>
    <g id="页面-1" stroke="none" stroke-width="1" fill="none" fill-rule="evenodd">
        <g id="04榜单明细弹窗（有排名）" transform="translate(-261.000000, -189.000000)">
            <g id="编组-3" transform="translate(172.000000, 149.000000)">
                <g id="编组-4备份" transform="translate(89.000000, 6.000000)">
                    <g id="编组-4">
                        <g id="编组-20" transform="translate(0.000000, 34.000000)">
                            <g id="编组-7">
                                <g id="jiangpai">
                                    <path d="M2.94080132,6.13520408 L6.11569628,9.31009904 L12.0363145,3.38948079 C12.1631152,3.26268007 12.2313926,3.09036114 12.2265156,2.91153962 L12.1696178,0.650260104 C12.1598639,0.295868347 11.8704982,0.0146308523 11.5161064,0.0146308523 L9.32960684,0.0162565026 C9.15728792,0.0162565026 8.99147159,0.0845338135 8.86954782,0.208083233 L2.94080132,6.13520408 Z" id="路径" fill="#D32F2F" fill-rule="nonzero"></path>
                                    <path d="M9.29871949,6.13682973 L6.12382453,9.31335034 L0.201580632,3.39110644 C0.074779912,3.26430572 0.00650260104,3.09198679 0.0113795518,2.91316527 L0.0682773109,0.650260104 C0.0780312125,0.295868347 0.367396959,0.0146308523 0.721788715,0.0146308523 L2.90991397,0.0178821529 C3.08223289,0.0178821529 3.24804922,0.0861594638 3.37159864,0.209708884 L9.29871949,6.13682973 Z" id="路径" fill="#F44336" fill-rule="nonzero"></path>
                                    <path d="M0.725040016,10.1651911 C0.725040016,13.1466337 3.14238195,15.5639756 6.12382453,15.5639756 C9.10526711,15.5639756 11.522609,13.1466337 11.522609,10.1651911 C11.522609,7.1837485 9.10689276,4.76640656 6.12545018,4.76640656 C3.1440076,4.76640656 0.725040016,7.1837485 0.725040016,10.1651911 Z" id="路径" fill="#FFCA28" fill-rule="nonzero"></path>
                                    <path d="M8.24042117,8.28919068 L9.79941977,10.3765256 C9.80267107,10.3066226 9.80592237,10.235094 9.80592237,10.1651911 C9.80592237,8.1315026 8.15751301,6.48309324 6.12382453,6.48309324 C4.09013605,6.48309324 2.44335234,8.1315026 2.44335234,10.1651911 C2.44335234,11.9030112 3.64958483,13.3595938 5.26710684,13.7464986 L3.71461084,11.6721689 L8.24042117,8.28919068 Z" id="路径" fill="#FFA000" fill-rule="nonzero"></path>
                                    <path d="M9.79941977,10.3765256 C9.68887555,12.3126751 8.08598439,13.8456633 6.12382453,13.8456633 C5.82795618,13.8456633 5.54184174,13.8115246 5.26710684,13.7448729 L6.60989396,15.5428421 C8.67121849,15.3591437 10.4009104,14.0163565 11.1373299,12.1696178 L9.79941977,10.3765256 L9.79941977,10.3765256 Z" id="路径" fill="#FFB300" fill-rule="nonzero"></path>
                                    <path d="M9.79941977,10.3765256 L8.24042117,8.28919068 L3.71623649,11.6705432 L5.26710684,13.7448729 C5.54346739,13.809899 5.82795618,13.8456646 6.12382453,13.8456646 C8.08761004,13.8472889 9.6905012,12.3126751 9.79941977,10.3765256 L9.79941977,10.3765256 Z" id="路径" fill="#FF8F00" fill-rule="nonzero"></path>
                                    <path d="M3.3368984,10.0520754 C3.3368984,11.0599785 3.87498863,11.9931018 4.74796282,12.4970534 C5.62093701,13.0010049 6.69711748,13.0010049 7.57009167,12.4970534 C8.44306586,11.9931018 8.9811561,11.0616042 8.9811561,10.0520754 C8.9811561,8.49307678 7.71802585,7.22994652 6.15902725,7.22994652 C4.60002865,7.22994652 3.3368984,8.49307678 3.3368984,10.0520754 L3.3368984,10.0520754 Z" id="路径" fill="#FFCA28" fill-rule="nonzero"></path>
                                    <polygon id="星形" fill="#FFA000" points="6.11764706 11.1229947 4.81006062 11.8104335 5.0597874 10.3544146 4.00192775 9.32325631 5.46385384 9.11082602 6.11764706 7.78609626 6.77144028 9.11082602 8.23336637 9.32325631 7.17550671 10.3544146 7.4252335 11.8104335"></polygon>
                                </g>
                            </g>
                        </g>
                    </g>
                </g>
            </g>
        </g>
    </g>
</svg>