<?xml version="1.0" encoding="UTF-8"?>
<svg width="26px" height="15px" viewBox="0 0 26 15" version="1.1" xmlns="http://www.w3.org/2000/svg" xmlns:xlink="http://www.w3.org/1999/xlink">
    <title>矩形</title>
    <defs>
        <path d="M1.7,0 L24.3,0 C25.2388841,-1.84026335e-15 26,0.761115925 26,1.7 L26,13.3 C26,14.2388841 25.2388841,15 24.3,15 L1.7,15 C0.761115925,15 -3.29109072e-16,14.2388841 0,13.3 L0,1.7 C-1.14980138e-16,0.761115925 0.761115925,6.16559416e-16 1.7,0 Z" id="path-1"></path>
    </defs>
    <g id="页面-1" stroke="none" stroke-width="1" fill="none" fill-rule="evenodd">
        <g id="03舆情动态_公司动态" transform="translate(-372.000000, -239.000000)">
            <g id="编组-13" transform="translate(234.000000, 205.000000)">
                <g id="5.数据展示/表格/表格列/无线框/文字列-不可点击" transform="translate(125.000000, 0.000000)">
                    <g id="5.数据展示/表格/元素/内容/无线框/无斑马纹/文本居左" transform="translate(1.000000, 28.000000)">
                        <g id="5.数据展示/标签/资讯类/文字+线框/红色-小" transform="translate(12.000000, 6.000000)">
                            <mask id="mask-2" fill="white">
                                <use xlink:href="#path-1"></use>
                            </mask>
                            <path stroke="#FB9791" stroke-width="0.5" d="M24.3,0.25 C24.7004064,0.25 25.0629064,0.412296778 25.3253048,0.674695167 C25.5877032,0.937093556 25.75,1.29959356 25.75,1.7 L25.75,1.7 L25.75,13.3 C25.75,13.7004064 25.5877032,14.0629064 25.3253048,14.3253048 C25.0629064,14.5877032 24.7004064,14.75 24.3,14.75 L24.3,14.75 L1.7,14.75 C1.29959356,14.75 0.937093556,14.5877032 0.674695167,14.3253048 C0.412296778,14.0629064 0.25,13.7004064 0.25,13.3 L0.25,13.3 L0.25,1.7 C0.25,1.29959356 0.412296778,0.937093556 0.674695167,0.674695167 C0.937093556,0.412296778 1.29959356,0.25 1.7,0.25 L1.7,0.25 Z"></path>
                            <text id="重要" mask="url(#mask-2)" font-family="PingFangSC-Regular, PingFang SC" font-size="10" font-weight="normal" line-spacing="12" fill="#FE3A2F">
                                <tspan x="3" y="12.1">置顶</tspan>
                            </text>
                        </g>
                    </g>
                </g>
            </g>
        </g>
    </g>
</svg>