<?xml version="1.0" encoding="UTF-8"?>
<svg width="13px" height="13px" viewBox="0 0 13 13" version="1.1" xmlns="http://www.w3.org/2000/svg" xmlns:xlink="http://www.w3.org/1999/xlink">
    <title>编组 13</title>
    <g id="#6593_230209" stroke="none" stroke-width="1" fill="none" fill-rule="evenodd">
        <g id="1-0.区域经济数据大全" transform="translate(-1187.000000, -70.000000)" fill="#0171F6" fill-rule="nonzero">
            <g id="编组-12备份" transform="translate(60.000000, 58.000000)">
                <g id="编组-7" transform="translate(916.000000, 8.000000)">
                    <g id="编组-13" transform="translate(211.000000, 0.000000)">
                        <g id="反馈-(1)" transform="translate(0.000000, 4.000000)">
                            <path d="M10.6274577,13 L2.37499908,13 C1.61603902,13 1,12.3796526 1,11.6153846 L1,2.38461539 C1,1.6203474 1.61603902,1 2.37499908,1 L8.79166146,1 C9.04546953,1 9.24635662,1.24967505 9.24635662,1.50525818 C9.24635662,1.76084132 9.04546954,2.00539672 8.79166146,2.00539672 L2.37499908,2.0053967 C2.12365517,2.0053967 2.01045321,2.12903225 2.01045321,2.382134 L2.01045321,11.6129032 C2.01045321,11.8684863 2.12611931,12.0158624 2.37746324,12.0158624 L10.6274577,12.0158624 C10.8812658,12.0158624 11.0149709,11.8709677 11.0149709,11.6153846 L11.0149709,4.22828784 C11.0149709,3.97270472 11.2480615,3.78105479 11.5018696,3.78105479 C11.7556777,3.78105479 12,3.97270471 12,4.22828784 L12,11.6129032 C12.0024568,12.3771712 11.3839536,13 10.6274577,13 Z" id="路径"></path>
                            <path d="M8.42032411,5 C8.312289,5 8.20650461,4.95947315 8.12322755,4.87616796 C7.95892415,4.71180908 7.95892415,4.44838456 8.12322755,4.28402567 L12.2848301,0.123269165 C12.4491335,-0.0410897217 12.7124691,-0.0410897217 12.8767725,0.123269165 C13.0410758,0.287628052 13.0410758,0.551052571 12.8767725,0.715411457 L8.71516994,4.87841945 C8.63414361,4.95947315 8.52610849,5 8.42032411,5 Z" id="路径"></path>
                            <path d="M6.5,6 L3.5,6 C3.22311829,6 3,5.77688173 3,5.5 C3,5.22311827 3.22311828,5 3.5,5 L6.5,5 C6.77688171,5 7,5.22311829 7,5.5 C7,5.77688173 6.77688172,6 6.5,6 Z" id="路径"></path>
                            <path d="M9.50268816,9 L3.5,9 C3.22311829,9 3,8.77688173 3,8.5 C3,8.22311827 3.22311828,8 3.5,8 L9.5,8 C9.77688171,8 10,8.22311827 10,8.5 C10,8.77688173 9.77688171,9 9.50268816,9 Z" id="路径"></path>
                        </g>
                    </g>
                </g>
            </g>
        </g>
    </g>
</svg>