<?xml version="1.0" encoding="UTF-8"?>
<svg width="10px" height="10px" viewBox="0 0 10 10" version="1.1" xmlns="http://www.w3.org/2000/svg" xmlns:xlink="http://www.w3.org/1999/xlink">
    <title>Group 10备份 8</title>
    <defs>
        <filter x="-12.7%" y="-16.2%" width="125.4%" height="137.6%" filterUnits="objectBoundingBox" id="filter-1">
            <feMorphology radius="1" operator="dilate" in="SourceAlpha" result="shadowSpreadOuter1"></feMorphology>
            <feOffset dx="0" dy="2" in="shadowSpreadOuter1" result="shadowOffsetOuter1"></feOffset>
            <feGaussianBlur stdDeviation="4.5" in="shadowOffsetOuter1" result="shadowBlurOuter1"></feGaussianBlur>
            <feColorMatrix values="0 0 0 0 0   0 0 0 0 0   0 0 0 0 0  0 0 0 0.09 0" type="matrix" in="shadowBlurOuter1" result="shadowMatrixOuter1"></feColorMatrix>
            <feMerge>
                <feMergeNode in="shadowMatrixOuter1"></feMergeNode>
                <feMergeNode in="SourceGraphic"></feMergeNode>
            </feMerge>
        </filter>
    </defs>
    <g id="#6593_230209" stroke="none" stroke-width="1" fill="none" fill-rule="evenodd">
        <g id="1-5.计算指标溯源弹框" transform="translate(-419.000000, -588.000000)">
            <g id="Feedback/Modal/Light/Basic备份" filter="url(#filter-1)" transform="translate(210.000000, 328.000000)">
                <g id="Group-11" transform="translate(24.000000, 57.000000)">
                    <g id="Group-10备份-8" transform="translate(0.000000, 192.000000)">
                        <g id="Group备份-2" transform="translate(185.000000, 11.000000)">
                            <rect id="Rectangle" fill="#D8D8D8" opacity="0" x="0" y="0" width="10" height="10"></rect>
                            <path d="M5.3904344,2.98804301 L8.35012198,6.68765248 C8.52262676,6.90328344 8.48766607,7.21792963 8.2720351,7.3904344 C8.18337858,7.46135962 8.07322332,7.5 7.95968758,7.5 L2.04031242,7.5 C1.76417005,7.5 1.54031242,7.27614237 1.54031242,7 C1.54031242,6.88646425 1.5789528,6.776309 1.64987802,6.68765248 L4.6095656,2.98804301 C4.78207037,2.77241204 5.09671656,2.73745135 5.31234752,2.90995612 C5.34117988,2.93302201 5.36736852,2.95921065 5.3904344,2.98804301 Z" id="三角形" fill="#BFBFBF" transform="translate(5.000000, 5.000000) scale(1, -1) translate(-5.000000, -5.000000) "></path>
                        </g>
                    </g>
                </g>
            </g>
        </g>
    </g>
</svg>