<?xml version="1.0" encoding="UTF-8"?>
<svg width="22px" height="13px" viewBox="0 0 22 13" version="1.1" xmlns="http://www.w3.org/2000/svg" xmlns:xlink="http://www.w3.org/1999/xlink">
    <title>PK (4)</title>
    <defs>
        <linearGradient x1="18.4853816%" y1="88.28125%" x2="77.9786523%" y2="11.71875%" id="linearGradient-1">
            <stop stop-color="#41C1FF" offset="0%"></stop>
            <stop stop-color="#2589FF" offset="100%"></stop>
        </linearGradient>
        <path d="M6.38214256,3.28395413 L6.84993895,1.22249337 L2.75996122,1.22249337 L1.27726525,7 L0,7 L1.90172839,0 L7.0979574,0 C7.25795858,0 7.40538825,0.0445789463 7.53986544,0.133736839 C7.67434263,0.223263154 7.77986722,0.348894731 7.85682017,0.511368423 C7.93339217,0.673473685 7.9798687,0.866526315 7.99586882,1.08978948 C8.01186894,1.31268421 7.98139252,1.55842105 7.90443957,1.82626316 L7.68348555,2.66626316 C7.61534752,2.92073044 7.51030465,3.16458827 7.37148324,3.39057895 C7.24374068,3.60146088 7.0980693,3.82350175 6.94936927,3.96897049 C6.80066924,4.11443924 6.56500106,4.28177767 6.38214256,4.37940925 C6.19966502,4.47667241 6.03166377,4.50431579 5.87813883,4.50431579 L3.29450062,4.50431579 L3.62749038,3.28395413 L6.38214256,3.28395413 Z" id="path-2"></path>
        <linearGradient x1="17.9549839%" y1="88.28125%" x2="61.3356925%" y2="11.71875%" id="linearGradient-3">
            <stop stop-color="#FFA72C" offset="0%"></stop>
            <stop stop-color="#FF7500" offset="100%"></stop>
        </linearGradient>
        <polygon id="path-4" points="11.4278256 0.0124064328 10.6145457 2.65355335 14.3735412 -4.88442233e-05 16 -4.88442233e-05 11.2227328 3.5 14.060325 6.98754472 12.5801305 6.98754472 10.1775573 4.03817049 9.30159849 7 8 7 10.0850449 -4.88442233e-05"></polygon>
    </defs>
    <g id="#_230728" stroke="none" stroke-width="1" fill="none" fill-rule="evenodd">
        <g id="2-1.区域经济数据大全-入口" transform="translate(-152.000000, -200.000000)">
            <g id="编组-6" transform="translate(0.000000, 98.000000)">
                <g id="表格" transform="translate(24.000000, 40.000000)">
                    <g id="编组-12" transform="translate(0.000000, 52.000000)">
                        <g id="PK-(4)" transform="translate(128.000000, 10.000000)">
                            <rect id="矩形" fill="#F1F7FF" x="0" y="0" width="22" height="13" rx="2"></rect>
                            <g id="编组-17" transform="translate(3.000000, 3.000000)" fill-rule="nonzero">
                                <g id="路径">
                                    <use fill="url(#linearGradient-1)" xlink:href="#path-2"></use>
                                    <use fill="#0171F6" xlink:href="#path-2"></use>
                                </g>
                                <g id="路径">
                                    <use fill="url(#linearGradient-3)" xlink:href="#path-4"></use>
                                    <use fill="#FF7500" xlink:href="#path-4"></use>
                                </g>
                            </g>
                        </g>
                    </g>
                </g>
            </g>
        </g>
    </g>
</svg>