<?xml version="1.0" encoding="UTF-8"?>
<svg width="13px" height="13px" viewBox="0 0 13 13" version="1.1" xmlns="http://www.w3.org/2000/svg" xmlns:xlink="http://www.w3.org/1999/xlink">
    <title>搜索</title>
    <g id="#6593_230209" stroke="none" stroke-width="1" fill="none" fill-rule="evenodd">
        <g id="1-0.区域经济数据大全" transform="translate(-270.000000, -110.000000)" fill="#0171F6" fill-rule="nonzero">
            <g id="编组-6" transform="translate(60.000000, 94.000000)">
                <g id="编组-13" transform="translate(24.000000, 12.000000)">
                    <g id="编组-3备份" transform="translate(186.000000, 0.000000)">
                        <g id="搜索" transform="translate(0.000000, 4.000000)">
                            <g id="编组-5" transform="translate(0.000482, 0.000000)">
                                <path d="M5.88805496,11.7761151 L5.8880547,11.7761151 C2.63617201,11.7761151 0,9.13993739 0,5.8880547 C0,2.63617201 2.63617201,0 5.8880547,0 C9.13993739,0 11.7761095,2.63617201 11.7761095,5.8880547 L11.7761095,5.88799697 C11.7725606,9.1383943 9.13851558,11.772497 5.88810555,11.7761151 L5.88805496,11.7761151 Z M5.88805496,1.21821609 L5.88805476,1.21821609 C3.30762793,1.21821609 1.21578076,3.31006538 1.21578076,5.89049221 C1.21578076,8.47091904 3.30762793,10.5627662 5.88805476,10.5627662 C8.46848159,10.5627662 10.5603289,8.47091904 10.5603289,5.89049221 L10.5603289,5.89057895 C10.5572441,3.31144705 8.46726294,1.22140262 5.88814373,1.21821609 L5.88805496,1.21821609 Z" id="形状"></path>
                                <path d="M12.1813699,12.9943022 L12.1813699,12.9943022 C11.9659937,12.9942562 11.7594547,12.9086609 11.6071831,12.7563436 L9.98289216,11.1320526 L9.98289211,11.1320526 C9.64433439,10.8378371 9.60838884,10.3248722 9.90260406,9.9863145 C10.1968195,9.64775678 10.7097844,9.61181123 11.0483421,9.90602646 C11.0779606,9.93176573 11.1056746,9.95961762 11.1312665,9.98936341 L12.7555574,11.6136544 L12.7555574,11.6136544 C13.0726727,11.9308649 13.072594,12.4450866 12.755384,12.7622019 C12.6031264,12.9144138 12.3966623,12.9999409 12.1813699,12.9999866 L12.1813699,12.9943022 Z" id="路径"></path>
                            </g>
                        </g>
                    </g>
                </g>
            </g>
        </g>
    </g>
</svg>