<?xml version="1.0" encoding="UTF-8"?>
<svg width="12px" height="12px" viewBox="0 0 12 12" version="1.1" xmlns="http://www.w3.org/2000/svg" xmlns:xlink="http://www.w3.org/1999/xlink">
    <title>编组</title>
    <g id="#22822_240313" stroke="none" stroke-width="1" fill="none" fill-rule="evenodd">
        <g id="11.区域经济大全-增加自定义指标" transform="translate(-305.000000, -171.000000)" fill="#0171F6" fill-rule="nonzero">
            <g id="编组-6" transform="translate(0.000000, 98.000000)">
                <g id="表格" transform="translate(24.000000, 40.000000)">
                    <g id="编组-9" transform="translate(250.000000, 7.000000)">
                        <g id="编组" transform="translate(31.007024, 26.715300)">
                            <path d="M2.12007992,9 C1.87180007,9 1.67052947,8.70499044 1.67052947,8.3410777 L1.67052947,0.658922297 C1.67052947,0.295009561 1.87180007,0 2.12007992,0 C2.36835978,0 2.56963037,0.295009561 2.56963037,0.658922297 L2.56963037,8.3410777 C2.56963037,8.70499044 2.36835978,9 2.12007992,9 Z M6.36743257,8.67592593 L6.36743257,2.32407407 C6.36743257,2.14509291 6.16616198,2 5.91788212,2 C5.66960226,2 5.46833167,2.14509291 5.46833167,2.32407407 L5.46833167,8.67592593 C5.46833167,8.85490709 5.66960226,9 5.91788212,9 C6.16616198,9 6.36743257,8.85490709 6.36743257,8.67592593 Z M10.0891109,8.63390886 L10.0891109,4.36593897 C10.0890689,4.16378442 9.88781059,3.99992391 9.63956045,3.99992391 C9.3913103,3.99992391 9.19005202,4.16378442 9.19001,4.36593897 L9.19001,8.63390886 C9.19005202,8.83606341 9.3913103,8.99992391 9.63956045,8.99992391 C9.88781059,8.99992391 10.0890689,8.83606341 10.0891109,8.63390886 L10.0891109,8.63390886 Z M11.988012,10.6003996 C11.988012,10.3521197 11.7867414,10.1508491 11.5384616,10.1508491 L0.449550451,10.1508491 C0.201270593,10.1508491 0,10.3521197 0,10.6003996 C0,10.8486795 0.201270593,11.04995 0.449550451,11.04995 L11.5384616,11.04995 C11.7867414,11.04995 11.988012,10.8486794 11.988012,10.6003996 L11.988012,10.6003996 Z" id="形状"></path>
                        </g>
                    </g>
                </g>
            </g>
        </g>
    </g>
</svg>