<?xml version="1.0" encoding="UTF-8"?>
<svg width="12px" height="12px" viewBox="0 0 12 12" version="1.1" xmlns="http://www.w3.org/2000/svg" xmlns:xlink="http://www.w3.org/1999/xlink">
    <title>编组</title>
    <g id="#22822_240313" stroke="none" stroke-width="1" fill="none" fill-rule="evenodd">
        <g id="11.区域经济大全-增加自定义指标" transform="translate(-778.000000, -142.000000)">
            <g id="编组-6" transform="translate(0.000000, 98.000000)">
                <g id="表格" transform="translate(24.000000, 40.000000)">
                    <g id="编组-3" transform="translate(652.000000, 4.000000)">
                        <g id="编组" transform="translate(102.000000, 0.000000)">
                            <rect id="矩形" fill="#FFFFFF" opacity="0" x="0" y="0" width="12" height="12"></rect>
                            <path d="M2.12710414,9.71530033 C1.87882428,9.71530033 1.67755369,9.42029077 1.67755369,9.05637803 L1.67755369,1.37422263 C1.67755369,1.01030989 1.87882428,0.715300331 2.12710414,0.715300331 C2.375384,0.715300331 2.57665459,1.01030989 2.57665459,1.37422263 L2.57665459,9.05637803 C2.57665459,9.42029077 2.375384,9.71530033 2.12710414,9.71530033 Z M6.37445679,9.39122626 L6.37445679,3.03937441 C6.37445679,2.86039324 6.1731862,2.71530033 5.92490634,2.71530033 C5.67662648,2.71530033 5.47535589,2.86039324 5.47535589,3.03937441 L5.47535589,9.39122626 C5.47535589,9.57020743 5.67662648,9.71530033 5.92490634,9.71530033 C6.1731862,9.71530033 6.37445679,9.57020743 6.37445679,9.39122626 Z M10.0961351,9.34920919 L10.0961351,5.0812393 C10.0960931,4.87908475 9.89483481,4.71522424 9.64658466,4.71522424 C9.39833452,4.71522424 9.19707624,4.87908475 9.19703422,5.0812393 L9.19703422,9.34920919 C9.19707624,9.55136374 9.39833452,9.71522424 9.64658466,9.71522424 C9.89483481,9.71522424 10.0960931,9.55136374 10.0961351,9.34920919 L10.0961351,9.34920919 Z M11.9950362,11.3156999 C11.9950362,11.0674201 11.7937656,10.8661495 11.5454858,10.8661495 L0.456574669,10.8661495 C0.208294811,10.8661495 0.00702421875,11.0674201 0.00702421875,11.3156999 C0.00702421875,11.5639798 0.208294811,11.7652504 0.456574669,11.7652504 L11.5454858,11.7652504 C11.7937656,11.7652504 11.9950362,11.5639798 11.9950362,11.3156999 L11.9950362,11.3156999 Z" id="形状" fill="#BFBFBF" fill-rule="nonzero"></path>
                        </g>
                    </g>
                </g>
            </g>
        </g>
    </g>
</svg>