<?xml version="1.0" encoding="UTF-8"?>
<svg width="13px" height="12px" viewBox="0 0 13 12" version="1.1" xmlns="http://www.w3.org/2000/svg" xmlns:xlink="http://www.w3.org/1999/xlink">
    <!-- Generator: Sketch 63.1 (92452) - https://sketch.com -->
    <title>ico_zixuan_tianjia</title>
    <desc>Created with Sketch.</desc>
    <g id="页面-1" stroke="none" stroke-width="1" fill="none" fill-rule="evenodd">
        <g id="03指标(一键收起节点)" transform="translate(-711.000000, -470.000000)" fill="#2994FF" fill-rule="nonzero">
            <g id="编组-31" transform="translate(208.000000, 125.000000)">
                <g id="底部选项" transform="translate(0.000000, 335.000000)">
                    <g id="ico_zixuan_tianjia" transform="translate(503.000000, 10.000000)">
                        <path d="M12.0451675,0 C12.8131582,0.00100854048 12.9984647,0.417051058 13,1.17459021 L13,1.17459021 L13,10.130067 C13,10.8490055 12.8138826,11.4233705 12.0451675,11.4243813 L12.0451675,11.4243813 L9.4884203,11.4243813 C9.23566833,11.7726856 8.82308792,12 8.3575411,12 L8.3575411,12 L0.948023148,12 C0.17930805,11.9989892 0.000511794111,11.3842862 1.13686838e-13,10.6260312 L1.13686838e-13,10.6260312 L0.000138215942,3.62579557 C0.0026261029,2.85260764 0.0498959551,2.2522273 0.948023148,2.2522273 L0.948023148,2.2522273 L1.41708363,2.2522273 L1.41708363,1.03441604 C1.41708363,0.368567328 1.57757365,0 2.24128164,0 L2.24128164,0 Z M8.61706098,2.8 L1.0829377,2.8 C0.870864589,2.8 0.7,2.97498181 0.7,3.19216511 L0.7,3.19216511 L0.7,10.9088628 C0.7,11.0127771 0.740376802,11.1124203 0.812220589,11.1858022 C0.884064376,11.259184 0.981468838,11.3002721 1.0829377,11.3 L1.0829377,11.3 L8.61706098,11.3 C8.71870424,11.3002729 8.81626164,11.2590437 8.88813453,11.185439 C8.96000742,11.1118342 9.00026651,11.011926 9,10.9078335 L9,10.9078335 L8.99899359,10.9068042 L8.99899359,3.19113581 C8.99899359,2.97498181 8.828129,2.8 8.61706098,2.8 L8.61706098,2.8 Z M11.9237055,0.7 L2.57335696,0.7 C2.1,0.7 2.1,0.86517191 2.1,1.07139246 L2.1,1.07139246 L2.1,2.14843059 L8.46953722,2.14843059 C9.28642698,2.14950844 9.63474595,2.80495838 9.63528982,3.61347611 L9.63528982,3.61347611 L9.63528982,10.7 L11.9237055,10.6992533 C12.023739,10.6995152 12.1197374,10.6602332 12.1903793,10.5901319 C12.2610212,10.5200305 12.3004582,10.4249134 12.3,10.3268835 L12.3,10.3268835 L12.3,1.07139246 C12.3,0.866149258 12.131074,0.7 11.9237055,0.7 L11.9237055,0.7 Z M5,5 C5.27614237,5 5.5,5.22385763 5.5,5.5 L5.5,6.5 L6.5,6.5 C6.77614237,6.5 7,6.72385763 7,7 C7,7.27614237 6.77614237,7.5 6.5,7.5 L5.5,7.5 L5.5,8.5 C5.5,8.77614237 5.27614237,9 5,9 C4.72385763,9 4.5,8.77614237 4.5,8.5 L4.5,7.5 L3.5,7.5 C3.22385763,7.5 3,7.27614237 3,7 C3,6.72385763 3.22385763,6.5 3.5,6.5 L4.5,6.5 L4.5,5.5 C4.5,5.22385763 4.72385763,5 5,5 Z" id="形状结合"></path>
                    </g>
                </g>
            </g>
        </g>
    </g>
</svg>