<?xml version="1.0" encoding="UTF-8"?>
<svg width="12px" height="12px" viewBox="0 0 12 12" version="1.1" xmlns="http://www.w3.org/2000/svg" xmlns:xlink="http://www.w3.org/1999/xlink">
    <title>清空表</title>
    <g id="#17660指标优化_231114" stroke="none" stroke-width="1" fill="none" fill-rule="evenodd">
        <g id="10.新建模版-搜索有数据" transform="translate(-836.000000, -179.000000)" fill="#262626" fill-rule="nonzero">
            <g id="编组-15" transform="translate(300.000000, 55.000000)">
                <g id="编组-7" transform="translate(24.000000, 118.000000)">
                    <g id="编组-19" transform="translate(512.000000, 3.000000)">
                        <g id="清空表" transform="translate(0.000000, 3.000000)">
                            <path d="M11.999942,5.34223706 C12.0065607,4.64774624 11.4456368,4.08013356 10.7511596,4.07345576 L7.77959851,4.07345576 L7.77959851,1.56260434 C7.78627617,0.707846411 7.09179897,0.00667779633 6.23705781,0 L5.82304256,0 C4.96830139,0.00667779633 4.27382419,0.707846411 4.28050186,1.56260434 L4.28050186,4.07345576 L1.24884178,4.07345576 C0.547686921,4.08013356 -0.00655930369,4.65442404 5.86520577e-05,5.35559265 C0.00679602703,5.90317195 0.367389957,6.38397329 0.888247855,6.5509182 L0.888247855,10.9782972 C0.881570189,11.5392321 1.33565143,11.9933222 1.89657532,12 L10.183558,12 C10.7444819,11.9933222 11.1918855,11.5392321 11.1918855,10.9782972 L11.1918855,6.52420701 C11.6793551,6.33722871 11.999942,5.86310518 11.999942,5.34223706 Z M5.05511104,1.56260434 C5.05511104,1.13522538 5.39567197,0.787979967 5.82304256,0.787979967 L6.23705781,0.787979967 C6.66442839,0.794657763 7.00498932,1.14190317 7.00498932,1.56260434 L7.00498932,4.07345576 L5.05511104,4.07345576 L5.05511104,1.56260434 Z M10.183558,11.21202 L8.90812395,11.21202 L8.90812395,9.60267112 C8.91480162,9.38898164 8.74785998,9.20868114 8.53417469,9.20200334 C8.3204894,9.19532554 8.14019244,9.36227045 8.13351477,9.57595993 L8.13351477,11.21202 L6.4307101,11.21202 L6.4307101,9.60267112 C6.4307101,9.38898164 6.2570908,9.21535893 6.04340551,9.21535893 C5.82972022,9.21535893 5.65610092,9.38898164 5.65610092,9.60267112 L5.65610092,11.21202 L3.95329626,11.21202 L3.95329626,9.60267112 C3.95329626,9.38898164 3.77967696,9.21535893 3.56599166,9.21535893 C3.35230637,9.21535893 3.17868707,9.38898164 3.17868707,9.60267112 L3.17868707,11.21202 L1.89657532,11.21202 C1.76969968,11.21202 1.66285704,11.1051753 1.66285704,10.9782972 L1.66285704,6.61101836 L10.4172763,6.61101836 L10.4172763,10.9782972 C10.4172763,11.1051753 10.3104337,11.21202 10.183558,11.21202 Z M10.7511596,5.8230384 L1.24884178,5.8230384 C0.98173517,5.8230384 0.768049878,5.60267112 0.768049878,5.33555927 C0.768049878,5.06844741 0.98173517,4.85475793 1.24884178,4.85475793 L10.7511596,4.85475793 C11.0182662,4.85475793 11.2319515,5.07512521 11.2319515,5.34223706 C11.2319515,5.60934891 11.0182662,5.8230384 10.7511596,5.8230384 Z" id="形状"></path>
                        </g>
                    </g>
                </g>
            </g>
        </g>
    </g>
</svg>