<?xml version="1.0" encoding="UTF-8"?>
<svg width="14px" height="14px" viewBox="0 0 14 14" version="1.1" xmlns="http://www.w3.org/2000/svg" xmlns:xlink="http://www.w3.org/1999/xlink">
    <title>编组 18备份</title>
    <g id="#17660指标优化_231203" stroke="none" stroke-width="1" fill="none" fill-rule="evenodd">
        <g id="2.有自定义模版下拉" transform="translate(-751.000000, -361.000000)">
            <g id="方案展开" transform="translate(471.000000, 218.000000)">
                <g id="编组-8" transform="translate(280.000000, 53.000000)">
                    <g id="编组-18备份-6" transform="translate(0.000000, 90.000000)">
                        <rect id="矩形" fill="#D8D8D8" opacity="0" x="0" y="0" width="14" height="14" rx="1"></rect>
                        <g id="ico_zixuan_piliangshanchu" transform="translate(1.000000, 1.000000)" fill="#424242" fill-rule="nonzero">
                            <path d="M7.10935571,9.24910207 L7.10935571,4.5367405 C7.10935571,3.98720443 7.96871142,3.98720443 7.96871142,4.5367405 L7.96871142,9.25089793 C7.96871142,9.800434 7.10935571,9.800434 7.10935571,9.25089793 L7.10935571,9.24910207 Z M4.53128858,9.24910207 L4.53128858,4.5367405 C4.53128858,3.98720443 5.39064429,3.98720443 5.39064429,4.5367405 L5.39064429,9.25089793 C5.39064429,9.800434 4.53128858,9.800434 4.53128858,9.25089793 L4.53128858,9.24910207 Z M11.8371591,2.39337025 L9.6883208,2.39337025 L9.6883208,1.53584256 C9.6883208,0.82647411 9.11092715,0.25 8.41230778,0.25 L4.10205971,0.25 C3.38907285,0.25 2.8116792,0.825576175 2.8116792,1.53584256 L2.8116792,2.39337025 L0.662840947,2.39337025 C0.112386351,2.39337025 0.112386351,3.25 0.662840947,3.25 L11.8371591,3.25 C12.3876136,3.25 12.3876136,2.39337025 11.8371591,2.39337025 L11.8371591,2.39337025 Z M3.67193288,1.53584256 C3.67193288,1.30776714 3.87307779,1.10662975 4.10116175,1.10662975 L8.41140981,1.10662975 C8.52459756,1.10531242 8.63336661,1.15050117 8.71229692,1.23163511 C8.79122724,1.31276904 8.83340214,1.42273837 8.82896509,1.53584256 L8.82896509,2.39337025 L3.67193288,2.39337025 L3.67193288,1.53584256 Z M9.25819396,12.25 L3.24180604,12.25 C2.52971714,12.25 1.95232349,11.6744238 1.95232349,10.9641574 L1.95232349,4.53584256 C1.95232349,4.28172703 2.15436637,4.10752769 2.38245033,4.10752769 C2.61053429,4.10752769 2.8116792,4.28172703 2.8116792,4.53584256 L2.8116792,10.9650554 C2.8116792,11.1913349 3.01372208,11.3924723 3.24180604,11.3924723 L9.25819396,11.3924723 C9.49248622,11.3863864 9.68125437,11.1984134 9.6883208,10.9641574 L9.6883208,4.54931158 C9.6883208,3.9863065 10.5476765,3.9863065 10.5476765,4.54931158 L10.5476765,10.9641574 C10.5476765,11.6735259 9.97028286,12.25 9.25819396,12.25 Z" id="形状"></path>
                        </g>
                    </g>
                </g>
            </g>
        </g>
    </g>
</svg>