<?xml version="1.0" encoding="UTF-8"?>
<svg width="14px" height="14px" viewBox="0 0 14 14" version="1.1" xmlns="http://www.w3.org/2000/svg" xmlns:xlink="http://www.w3.org/1999/xlink">
    <!-- Generator: Sketch 63.1 (92452) - https://sketch.com -->
    <title>编组 18</title>
    <desc>Created with Sketch.</desc>
    <g id="页面-1" stroke="none" stroke-width="1" fill="none" fill-rule="evenodd">
        <g id="13指标(我的指标_展开有)" transform="translate(-821.000000, -333.000000)">
            <g id="方案展开" transform="translate(593.000000, 160.000000)">
                <g id="编组-18" transform="translate(228.000000, 173.000000)">
                    <rect id="矩形" fill="#D8D8D8" opacity="0" x="0" y="0" width="14" height="14" rx="1"></rect>
                    <g id="ico_zixuan_zuoce_yidong" transform="translate(3.000000, 1.000000)" fill="#0171F6" fill-rule="nonzero">
                        <path d="M1.52848757,10.2499985 C1.16514437,10.2379388 0.824144425,10.4258041 0.638919039,10.7400839 C0.453693654,11.0543636 0.453693654,11.4450873 0.638919039,11.759367 C0.824144425,12.0736468 1.16514437,12.2615121 1.52848757,12.2494509 C2.06526035,12.2316364 2.49122796,11.7893039 2.49122796,11.2497254 C2.49122796,10.710147 2.06526035,10.2678145 1.52848757,10.2499985 L1.52848757,10.2499985 Z M1.52848757,5.24972767 C0.978625151,5.24972767 0.532873588,5.69756485 0.532873588,6.25 C0.532873588,6.80243515 0.978625151,7.25027233 1.52848757,7.25027233 C2.07834999,7.25027233 2.52410155,6.80243515 2.52410155,6.25 C2.52410155,5.69756485 2.07834999,5.24972767 1.52848757,5.24972767 Z M1.52848757,0.250547627 C1.16514437,0.238487905 0.824144425,0.426353221 0.638919039,0.740632961 C0.453693654,1.0549127 0.453693654,1.44563641 0.638919039,1.75991615 C0.824144425,2.07419589 1.16514437,2.2620612 1.52848757,2.25 C2.06526035,2.23218546 2.49122796,1.78985304 2.49122796,1.25027455 C2.49122796,0.710696071 2.06526035,0.268363649 1.52848757,0.250547627 L1.52848757,0.250547627 Z M6.50438602,10.2499985 C6.14104282,10.2379388 5.80004287,10.4258041 5.61481749,10.7400839 C5.4295921,11.0543636 5.4295921,11.4450873 5.61481749,11.759367 C5.80004287,12.0736468 6.14104282,12.2615121 6.50438602,12.2494509 C7.0411588,12.2316364 7.46712641,11.7893039 7.46712641,11.2497254 C7.46712641,10.710147 7.0411588,10.2678145 6.50438602,10.2499985 L6.50438602,10.2499985 Z M6.50438602,5.24972767 C5.9545236,5.24972767 5.50877204,5.69756485 5.50877204,6.25 C5.50877204,6.80243515 5.9545236,7.25027233 6.50438602,7.25027233 C7.05424844,7.25027233 7.5,6.80243515 7.5,6.25 C7.5,5.69756485 7.05424844,5.24972767 6.50438602,5.24972767 Z M6.50438602,0.250547627 C6.14104282,0.238487905 5.80004287,0.426353221 5.61481749,0.740632961 C5.4295921,1.0549127 5.4295921,1.44563641 5.61481749,1.75991615 C5.80004287,2.07419589 6.14104282,2.2620612 6.50438602,2.25 C7.0411588,2.23218546 7.46712641,1.78985304 7.46712641,1.25027455 C7.46712641,0.710696071 7.0411588,0.268363649 6.50438602,0.250547627 L6.50438602,0.250547627 Z" id="形状"></path>
                    </g>
                </g>
            </g>
        </g>
    </g>
</svg>