<?xml version="1.0" encoding="UTF-8"?>
<svg width="11px" height="11px" viewBox="0 0 11 11" version="1.1" xmlns="http://www.w3.org/2000/svg" xmlns:xlink="http://www.w3.org/1999/xlink">
    <!-- Generator: Sketch 63.1 (92452) - https://sketch.com -->
    <title>ico_zixuan_bianji_nor</title>
    <desc>Created with Sketch.</desc>
    <g id="页面-1" stroke="none" stroke-width="1" fill="none" fill-rule="evenodd">
        <g id="13指标(我的指标_展开有)" transform="translate(-529.000000, -335.000000)" fill="#424242" fill-rule="nonzero">
            <g id="方案展开" transform="translate(325.000000, 160.000000)">
                <g id="ico_zixuan_bianji_nor备份" transform="translate(204.000000, 175.000000)">
                    <path d="M5.1079215,0 L0.785313312,0 C0.351596746,0 0,0.351613927 0,0.785351634 L0,10.2146484 C0,10.6487921 0.352037002,11 0.785313312,11 L10.2141505,11 C10.6478671,11 10.9994684,10.6483861 10.9994684,10.2146484 L10.9994684,5.8935221 C11.0002313,5.73434693 10.904632,5.59052562 10.757575,5.52962027 C10.610518,5.46871491 10.4412313,5.50283058 10.3292395,5.61594094 C10.2555131,5.68949537 10.2141011,5.78937622 10.2141505,5.8935221 L10.2141505,10.216341 L0.785313312,10.216341 L0.785313312,0.785351634 L5.1079215,0.785351634 C5.26708891,0.786119159 5.41090321,0.690515187 5.47180559,0.543451046 C5.53270798,0.396386905 5.49859398,0.227091862 5.38548913,0.115094674 C5.31193828,0.0413646723 5.2120623,0 5.1079215,0 Z M9.82318634,0.785351634 C9.98194984,0.785418366 10.1250509,0.881089956 10.185798,1.02777921 C10.2465451,1.17446847 10.2129834,1.343307 10.100754,1.45560859 L5.53950532,6.01707957 L4.83458507,6.1694107 L4.98690878,5.46022467 L9.5456187,0.900446263 C9.61927489,0.826873806 9.71908257,0.785488115 9.82318634,0.785351634 L9.82318634,0.785351634 Z M9.82318634,4.41103509e-08 C9.5219239,4.41103509e-08 9.21981523,0.115094674 8.98963719,0.345283933 L4.43092726,4.90421606 C4.32354203,5.0115239 4.24948216,5.14760085 4.21767408,5.29604557 L3.9333365,6.62894293 C3.91547011,6.75139083 3.956493,6.87508313 4.04398938,6.96258378 C4.13148576,7.05008443 4.25517203,7.09110931 4.37761397,7.07324205 L5.70790764,6.78550548 C5.85571237,6.75397658 5.99104276,6.67983545 6.09717932,6.5722419 L10.6558892,2.01246349 C10.9920557,1.67511819 11.0924203,1.16871796 10.9103315,0.728648435 C10.7282426,0.288578911 10.2994187,0.00116390404 9.82318634,4.41103509e-08 L9.82318634,4.41103509e-08 Z" id="形状"></path>
                </g>
            </g>
        </g>
    </g>
</svg>