<?xml version="1.0" encoding="UTF-8"?>
<svg width="10px" height="10px" viewBox="0 0 10 10" version="1.1" xmlns="http://www.w3.org/2000/svg" xmlns:xlink="http://www.w3.org/1999/xlink">
    <!-- Generator: Sketch 63.1 (92452) - https://sketch.com -->
    <title>ico_zixuan_bianji_nor</title>
    <desc>Created with Sketch.</desc>
    <g id="页面-1" stroke="none" stroke-width="1" fill="none" fill-rule="evenodd">
        <g id="13指标(我的指标_展开有)" transform="translate(-557.000000, -178.000000)" fill="#BFBFBF" fill-rule="nonzero">
            <g id="方案展开" transform="translate(325.000000, 160.000000)">
                <g id="编组-35" transform="translate(206.000000, 14.000000)">
                    <g id="ico_zixuan_bianji_nor备份" transform="translate(26.000000, 4.000000)">
                        <path d="M4.643565,0 L0.713921192,0 C0.319633405,0 0,0.319649025 0,0.71395603 L0,9.28604401 C0,9.68072011 0.320033638,10 0.713921192,10 L9.28559137,10 C9.67987916,10 9.99951673,9.68035102 9.99951673,9.28604401 L9.99951673,5.35774736 C10.0002103,5.21304267 9.91330181,5.08229602 9.77961366,5.02692751 C9.6459255,4.97155901 9.49202841,5.00257325 9.39021775,5.10540085 C9.32319374,5.17226852 9.28554648,5.26306929 9.28559137,5.35774736 L9.28559137,9.28758271 L0.713921192,9.28758271 L0.713921192,0.71395603 L4.643565,0.71395603 C4.78826264,0.714653781 4.91900292,0.627741079 4.97436872,0.494046406 C5.02973452,0.360351732 4.9987218,0.206447147 4.89589921,0.104631521 C4.8290348,0.0376042476 4.73823846,0 4.643565,0 Z M8.9301694,0.71395603 C9.07449986,0.714016697 9.20459169,0.800990869 9.25981636,0.934344741 C9.31504103,1.06769861 9.28453034,1.22118819 9.18250361,1.32328054 L5.03591393,5.47007234 L4.39507734,5.60855518 L4.53355343,4.96384061 L8.67783518,0.818587512 C8.74479535,0.75170346 8.83552961,0.714080104 8.9301694,0.71395603 L8.9301694,0.71395603 Z M8.9301694,4.01003186e-08 C8.65629446,4.01003186e-08 8.3816502,0.104631521 8.17239744,0.313894484 L4.02811569,4.45837823 C3.93049275,4.55593082 3.8631656,4.67963714 3.83424916,4.81458688 L3.57576045,6.02631176 C3.55951829,6.13762803 3.59681182,6.25007557 3.67635398,6.32962162 C3.75589615,6.40916766 3.86833821,6.44646301 3.97964906,6.43022005 L5.18900694,6.16864134 C5.32337488,6.13997871 5.44640251,6.07257768 5.54289029,5.97476536 L9.68717204,1.82951227 C9.99277793,1.52283472 10.0840185,1.06247087 9.91848317,0.662407668 C9.75294784,0.262344465 9.36310795,0.00105809458 8.9301694,4.01003186e-08 L8.9301694,4.01003186e-08 Z" id="形状"></path>
                    </g>
                </g>
            </g>
        </g>
    </g>
</svg>