<?xml version="1.0" encoding="UTF-8"?>
<svg width="11px" height="11px" viewBox="0 0 11 11" version="1.1" xmlns="http://www.w3.org/2000/svg" xmlns:xlink="http://www.w3.org/1999/xlink">
    <!-- Generator: Sketch 63.1 (92452) - https://sketch.com -->
    <title>ico_zixuan_bianji_nor</title>
    <desc>Created with Sketch.</desc>
    <g id="页面-1" stroke="none" stroke-width="1" fill="none" fill-rule="evenodd">
        <g id="13指标(我的指标_展开有)" transform="translate(-556.000000, -335.000000)" fill="#0171F6" fill-rule="nonzero">
            <g id="方案展开" transform="translate(325.000000, 160.000000)">
                <g id="编组" transform="translate(231.000000, 175.000000)">
                    <g transform="translate(0.000000, -0.000000)" id="路径">
                        <path d="M10.8144007,2.12776963 C10.6352085,1.95384918 10.3489884,1.95800591 10.1749223,2.13705666 L4.59607071,7.88174811 L1.77679373,4.9798829 C1.60185179,4.80569554 1.3195676,4.80391487 1.14244211,4.97588138 C0.965316609,5.14784788 0.958754941,5.43006141 1.12769666,5.61007422 L4.27002962,8.84594084 C4.3552219,8.93366295 4.47229613,8.98316305 4.59457815,8.98316305 C4.71686017,8.98316305 4.83393441,8.93366295 4.91912668,8.84594084 L10.8230244,2.76691631 C10.9066294,2.68090338 10.9526242,2.56519031 10.9509301,2.44525283 C10.9491406,2.32531535 10.8998049,2.21098676 10.8137373,2.12743795 L10.8144007,2.12776963 Z"></path>
                    </g>
                </g>
            </g>
        </g>
    </g>
</svg>