<?xml version="1.0" encoding="UTF-8"?>
<svg width="13px" height="12px" viewBox="0 0 13 12" version="1.1" xmlns="http://www.w3.org/2000/svg" xmlns:xlink="http://www.w3.org/1999/xlink">
    <title>ico_zixuan_tianjia</title>
    <g id="#17660指标优化_231114" stroke="none" stroke-width="1" fill="none" fill-rule="evenodd">
        <g id="6.选择指标置-自定义模版" transform="translate(-704.000000, -752.000000)" fill="#8C8C8C" fill-rule="nonzero" stroke="#FFFFFF" stroke-width="0.2">
            <g id="编组-15" transform="translate(300.000000, 55.000000)">
                <g id="底部选项" transform="translate(0.000000, 686.000000)">
                    <g id="编组-22" transform="translate(404.000000, 7.000000)">
                        <g id="ico_zixuan_tianjia备份" transform="translate(0.000000, 4.000000)">
                            <g id="编组" transform="translate(1.000000, 0.000000)">
                                <path d="M9.02002531,3.12172998 C9.02002531,2.87775819 8.82041202,2.6767587 8.57505403,2.6767587 L2.90270985,2.6767587 C2.65873806,2.6767587 2.45773857,2.87637199 2.45773857,3.12172998 C2.45773857,3.36570177 2.65735185,3.56670126 2.90270985,3.56670126 L8.57505403,3.56670126 C8.82041202,3.56670126 9.02002531,3.36570177 9.02002531,3.12172998 L9.02002531,3.12172998 Z M2.90270985,5.33688296 C2.65873806,5.33688296 2.45773857,5.53649625 2.45773857,5.78185424 C2.45773857,6.02582604 2.65735185,6.22682552 2.90270985,6.22682552 L4.55174448,6.22682552 C4.79710248,6.22682552 4.99810197,6.02721224 4.99672289,5.78185424 C4.99672289,5.53788245 4.79710248,5.33688296 4.55174448,5.33688296 L2.90270985,5.33688296 Z M9.28201774,9.30488732 C9.25290747,9.27577705 9.2210248,9.25082539 9.18636971,9.23280475 C9.43727252,8.87516428 9.58421008,8.44128262 9.58421008,7.97274589 C9.58421008,6.75011452 8.58059884,5.76036531 7.34271923,5.76036531 C6.10483963,5.76036531 5.10122839,6.75011452 5.10122839,7.97274589 C5.10122839,9.19537726 6.10483963,10.1851265 7.34271923,10.1851265 C7.79600773,10.1851265 8.21879976,10.0520509 8.57228162,9.82332738 C8.59307467,9.86352728 8.61941253,9.90095477 8.65268141,9.93422365 L9.80738882,11.0889311 C9.98066424,11.2622065 10.2634497,11.2622065 10.4367251,11.0889311 C10.6100006,10.9156556 10.6100006,10.6328701 10.4367251,10.4595947 L9.28201774,9.30488732 Z M7.34271923,9.31320454 C6.59278321,9.31320454 5.98423993,8.71297848 5.98423993,7.97274589 C5.98423993,7.23251329 6.59278321,6.63228723 7.34271923,6.63228723 C8.09265525,6.63228723 8.70119853,7.23251329 8.70119853,7.97274589 C8.70119853,8.71297848 8.09404146,9.31320454 7.34271923,9.31320454 Z" id="形状"></path>
                                <path d="M1.72166458,11.0800781 C1.233721,11.0800781 0.834494427,10.6808516 0.834494427,10.192908 L0.834494427,1.79929197 C0.834494427,1.31134838 1.233721,0.912121815 1.72166458,0.912121815 L9.30835561,0.912121815 C9.79629919,0.912121815 10.1955258,1.31134838 10.1955258,1.79929197 L10.1955258,6.21296349 C10.1996844,6.45970769 10.3992977,6.65932097 10.6460419,6.65932097 C10.8927861,6.65932097 11.0923993,6.45970769 11.0923993,6.21434969 C11.0923993,6.19771525 11.0910131,6.18246702 11.0896269,6.16583258 L11.0896269,1.78542994 C11.0896269,0.809542766 10.7070348,0.0110896269 9.73114763,0.0110896269 L1.77434031,0.0110896269 C0.798453139,0.0110896269 0,0.809542766 0,1.78542994 L0,10.1956804 C0,11.1715675 0.798453139,11.9700207 1.77434031,11.9700207 L6.65654857,11.9700207 C6.90329277,11.9700207 7.10290605,11.7704074 7.10290605,11.5250494 C7.10290605,11.2810776 6.90606517,11.0828505 6.66209338,11.0800781 L1.72166458,11.0800781 Z" id="路径"></path>
                            </g>
                        </g>
                    </g>
                </g>
            </g>
        </g>
    </g>
</svg>