<?xml version="1.0" encoding="UTF-8"?>
<svg width="10px" height="10px" viewBox="0 0 10 10" version="1.1" xmlns="http://www.w3.org/2000/svg" xmlns:xlink="http://www.w3.org/1999/xlink">
    <title>加</title>
    <g id="#17660指标优化_231114" stroke="none" stroke-width="1" fill="none" fill-rule="evenodd">
        <g id="8.新建模版" transform="translate(-324.000000, -302.000000)">
            <g id="编组-15" transform="translate(300.000000, 55.000000)">
                <g id="编组-7" transform="translate(24.000000, 118.000000)">
                    <g id="编组-40" transform="translate(0.000000, 29.000000)">
                        <g id="编组-22备份-8" transform="translate(0.000000, 96.000000)">
                            <g id="加" transform="translate(0.000000, 4.000000)">
                                <path d="M9.16666667,0 C9.62690396,0 10,0.373096042 10,0.833333333 L10,9.16666667 C10,9.62690396 9.62690396,10 9.16666667,10 L0.833333333,10 C0.373096042,10 0,9.62690396 0,9.16666667 L0,0.833333333 C0,0.373096042 0.373096042,0 0.833333333,0 L9.16666667,0 Z M9.16666667,0.416666667 L0.833333333,0.416666667 C0.628783426,0.416666667 0.458659691,0.564062634 0.423379725,0.758436973 L0.416666667,0.833333333 L0.416666667,9.16666667 C0.416666667,9.37121657 0.564062634,9.54134031 0.758436973,9.57662028 L0.833333333,9.58333333 L9.16666667,9.58333333 C9.37121657,9.58333333 9.54134031,9.43593737 9.57662028,9.24156303 L9.58333333,9.16666667 L9.58333333,0.833333333 C9.58333333,0.628783426 9.43593737,0.458659691 9.24156303,0.423379725 L9.16666667,0.416666667 Z" id="矩形" fill="#C5C5C5" fill-rule="nonzero"></path>
                                <g id="编组-25" transform="translate(2.083333, 2.083333)" stroke="#7C7C7C" stroke-linecap="round" stroke-width="1.1">
                                    <path d="M0,2.91666667 L5.83333333,2.91666667 M2.91666667,0 L2.91666667,5.83333333" id="形状结合"></path>
                                </g>
                            </g>
                        </g>
                    </g>
                </g>
            </g>
        </g>
    </g>
</svg>