<?xml version="1.0" encoding="UTF-8"?>
<svg width="12px" height="12px" viewBox="0 0 12 12" version="1.1" xmlns="http://www.w3.org/2000/svg" xmlns:xlink="http://www.w3.org/1999/xlink">
    <!-- Generator: Sketch 63.1 (92452) - https://sketch.com -->
    <title>形状</title>
    <desc>Created with Sketch.</desc>
    <defs>
        <linearGradient x1="75.0404481%" y1="69.0233696%" x2="12.5465401%" y2="8.12461711%" id="linearGradient-1">
            <stop stop-color="#FF9518" offset="0%"></stop>
            <stop stop-color="#FF4D0A" offset="100%"></stop>
        </linearGradient>
    </defs>
    <g id="页面-1" stroke="none" stroke-width="1" fill="none" fill-rule="evenodd">
        <g id="城投平台大全-选择指标（展开状态）" transform="translate(-762.000000, -464.000000)" fill="url(#linearGradient-1)" fill-rule="nonzero">
            <g id="弹窗" transform="translate(202.000000, 119.000000)">
                <g id="底部选项" transform="translate(0.000000, 333.000000)">
                    <g id="VIP" transform="translate(560.000000, 12.000000)">
                        <path d="M7.4300445,11.0798375 L6.44109065,11.0798375 L6.44109065,6.35165563 L7.4300445,6.35165563 L7.4300445,11.0798375 M11.7098717,8.77978063 C11.4461455,9.17536217 11.035477,9.37127483 10.4760192,9.37127483 L9.34201676,9.37127483 L9.34201676,11.0798375 L8.35306291,11.0798375 L8.35306291,6.35165563 L10.5155991,6.35165563 C10.9733444,6.35165563 11.3331333,6.4872827 11.5931033,6.75665873 C11.8549358,7.02603477 11.9849572,7.39524524 11.9849572,7.86618377 C11.9868222,8.19772351 11.8945157,8.50289218 11.7099183,8.77979615 M0.921714611,11.0798375 L0.921714611,1.01125828 C0.921714611,0.969815811 0.887800083,0.935916805 0.846373137,0.935916805 L0.0759312914,0.935916805 C0.0344888245,0.935916805 0.000589817881,0.902002276 0.000589817881,0.860575331 L0.000589817881,0.0882398593 C0.000589817881,0.0467973924 0.034504346,0.0128828642 0.0759312914,0.0128828642 L3.61359685,0.0128828642 C3.65503932,0.0128828642 3.68893833,0.0468129139 3.68893833,0.0882398593 L3.68893833,4.62428084 L8.30974234,0.035482202 C8.32293564,0.0222889073 8.34365687,0.0128828642 8.36248448,0.0128828642 L11.807828,0.0128828642 C11.8756416,0.0128828642 11.9076625,0.0938896937 11.8605702,0.140981995 L0.921714611,11.0798375 M10.7943812,7.31988825 C10.6587541,7.22005381 10.4364704,7.16918978 10.1275455,7.16918978 L9.34203228,7.16918978 L9.34203228,8.55374069 L10.2594164,8.55374069 C10.5758847,8.55374069 10.790625,8.45766246 10.9055464,8.26552152 C10.9677101,8.16003725 10.9978529,8.01121689 10.9978529,7.81907595 C10.9978529,7.58737065 10.9300393,7.42161631 10.7944123,7.31988825" id="形状"></path>
                    </g>
                </g>
            </g>
        </g>
    </g>
</svg>